{
.appVersion = "1246";
classes = (
{
automatic = 1;

glyphs = (
{
glyphname = A;
lastChange = "2019-06-19 19:58:24 +0000";
layers = (
{
anchors = (
{
name = bottom;
position = "{127, 0}";
},
{
name = ogonek;
position = "{214, 1}";
},
{
name = top;
position = "{127, 800}";
}
);
layerId = "3B122060-26E0-4730-9241-82784E6CB359";
paths = (
{
closed = 1;
nodes = (
"50 0 LINE",
"90 461 LINE",
"118 780 LINE",
"136 780 LINE",
"164 462 LINE",
"204 0 LINE",
"224 0 LINE",
"153 800 LINE",
"101 800 LINE",
"30 0 LINE"
);
},
{
closed = 1;
nodes = (
"188 268 LINE",
"188 288 LINE",
"65 288 LINE",
"65 268 LINE"
);
}
);
width = 254;
},
{
anchors = (
{
name = bottom;
position = "{249, 0}";
},
{
name = ogonek;
position = "{390, 10}";
},
{
name = top;
position = "{249, 800}";
}
);
color = -1;
layerId = "1DFA7D5B-2E97-4B89-827F-FB43F8066DC1";
paths = (
{
closed = 1;
nodes = (
"174 0 LINE",
"223 476 LINE",
"235 668 LINE",
"263 668 LINE",
"275 476 LINE",
"324 0 LINE",
"478 0 LINE",
"367 800 LINE",
"131 800 LINE",
"20 0 LINE"
);
},
{
closed = 1;
nodes = (
"340 167 LINE",
"340 299 LINE",
"164 299 LINE",
"164 167 LINE"
);
}
);
width = 498;
}
);
leftKerningGroup = A;
rightKerningGroup = A;
unicode = 0041;
},
{
glyphname = AE;
lastChange = "2019-06-15 19:10:42 +0000";
layers = (
{
anchors = (
{
name = bottom;
position = "{170, 0}";
},
{
name = top;
position = "{205, 800}";
}
);
components = (
{
name = E;
transform = "{1, 0, 0, 1, 118, 0}";
}
);
layerId = "3B122060-26E0-4730-9241-82784E6CB359";
paths = (
{
closed = 1;
nodes = (
"50 0 LINE",
"113 461 LINE",
"158 780 LINE",
"176 780 LINE",
"193 800 LINE",
"141 800 LINE",
"30 0 LINE"
);
},
{
closed = 1;
nodes = (
"187 268 LINE",
"187 288 LINE",
"84 288 LINE",
"84 268 LINE"
);
}
);
width = 377;
},
{
anchors = (
{
name = bottom;
position = "{361, 0}";
},
{
name = top;
position = "{411, 800}";
}
);
color = -1;
components = (
{
name = E;
transform = "{1, 0, 0, 1, 286, 0}";
}
);
layerId = "1DFA7D5B-2E97-4B89-827F-FB43F8066DC1";
paths = (
{
closed = 1;
nodes = (
"184 0 LINE",
"278 436 LINE",
"300 668 LINE",
"442 668 LINE",
"442 800 LINE",
"186 800 LINE",
"20 0 LINE"
);
},
{
closed = 1;
nodes = (
"350 167 LINE",
"350 299 LINE",
"174 299 LINE",
"174 167 LINE"
);
}
);
width = 692;
}
);
leftKerningGroup = A;
leftMetricsKey = A;
rightKerningGroup = E;
rightMetricsKey = E;
unicode = 00C6;
},
{
glyphname = B;
lastChange = "2019-06-15 19:09:57 +0000";
layers = (
{
layerId = "3B122060-26E0-4730-9241-82784E6CB359";
paths = (
{
closed = 1;
nodes = (
"141 401 LINE SMOOTH",
"201 401 OFFCURVE",
"226 423 OFFCURVE",
"228 488 CURVE SMOOTH",
"230 551 OFFCURVE",
"230 614 OFFCURVE",
"228 707 CURVE SMOOTH",
"226 773 OFFCURVE",
"201 800 OFFCURVE",
"142 800 CURVE SMOOTH",
"71 800 LINE",
"71 780 LINE",
"142 780 LINE SMOOTH",
"187 780 OFFCURVE",
"206 759 OFFCURVE",
"208 707 CURVE SMOOTH",
"211 629 OFFCURVE",
"211 566 OFFCURVE",
"208 488 CURVE SMOOTH",
"206 432 OFFCURVE",
"187 410 OFFCURVE",
"141 410 CURVE SMOOTH",
"75 410 LINE",
"75 401 LINE"
);
},
{
closed = 1;
nodes = (
"80 0 LINE",
"80 800 LINE",
"60 800 LINE",
"60 0 LINE"
);
},
{
closed = 1;
nodes = (
"185 390 LINE",
"185 409 LINE",
"73 409 LINE",
"73 390 LINE"
);
},
{
closed = 1;
nodes = (
"76 390 LINE",
"137 390 LINE SMOOTH",
"186 390 OFFCURVE",
"207 368 OFFCURVE",
"209 312 CURVE SMOOTH",
"212 234 OFFCURVE",
"212 171 OFFCURVE",
"209 93 CURVE SMOOTH",
"207 41 OFFCURVE",
"188 20 OFFCURVE",
"143 20 CURVE SMOOTH",
"72 20 LINE",
"72 0 LINE",
"143 0 LINE SMOOTH",
"202 0 OFFCURVE",
"227 27 OFFCURVE",
"229 93 CURVE SMOOTH",
"231 171 OFFCURVE",
"231 233 OFFCURVE",
"229 312 CURVE SMOOTH",
"227 377 OFFCURVE",
"201 399 OFFCURVE",
"137 399 CURVE SMOOTH",
"76 399 LINE"
);
}
);
width = 280;
},
{
layerId = "1DFA7D5B-2E97-4B89-827F-FB43F8066DC1";
paths = (
{
closed = 1;
nodes = (
"225 402 LINE SMOOTH",
"373 404 OFFCURVE",
"432 440 OFFCURVE",
"439 552 CURVE SMOOTH",
"440 569 OFFCURVE",
"440 586 OFFCURVE",
"440 605 CURVE SMOOTH",
"440 744 OFFCURVE",
"374 800 OFFCURVE",
"225 800 CURVE SMOOTH",
"149 800 LINE",
"149 668 LINE",
"225 668 LINE SMOOTH",
"267 668 OFFCURVE",
"290 648 OFFCURVE",
"290 613 CURVE SMOOTH",
"290 581 OFFCURVE",
"290 588 OFFCURVE",
"290 556 CURVE SMOOTH",
"290 503 OFFCURVE",
"267 473 OFFCURVE",
"225 473 CURVE SMOOTH",
"145 473 LINE",
"145 401 LINE"
);
},
{
closed = 1;
nodes = (
"190 0 LINE",
"190 800 LINE",
"40 800 LINE",
"40 0 LINE"
);
},
{
closed = 1;
nodes = (
"349 387 LINE",
"349 421 LINE",
"145 421 LINE",
"145 387 LINE"
);
},
{
closed = 1;
nodes = (
"145 341 LINE",
"225 341 LINE SMOOTH",
"271 341 OFFCURVE",
"290 316 OFFCURVE",
"290 250 CURVE SMOOTH",
"290 218 OFFCURVE",
"290 229 OFFCURVE",
"290 197 CURVE SMOOTH",
"290 155 OFFCURVE",
"267 132 OFFCURVE",
"225 132 CURVE SMOOTH",
"149 132 LINE",
"149 0 LINE",
"225 0 LINE SMOOTH",
"374 0 OFFCURVE",
"434 56 OFFCURVE",
"440 195 CURVE SMOOTH",
"441 218 OFFCURVE",
"441 235 OFFCURVE",
"440 257 CURVE SMOOTH",
"435 371 OFFCURVE",
"375 408 OFFCURVE",
"225 410 CURVE SMOOTH",
"145 411 LINE"
);
}
);
width = 461;
}
);
leftKerningGroup = H;
rightKerningGroup = B;
unicode = 0042;
},
{
glyphname = C;
lastChange = "2019-06-15 19:10:23 +0000";
layers = (
{
anchors = (
{
name = bottom;
position = "{145, 0}";
},
{
name = top;
position = "{145, 800}";
}
);
background = {
paths = (
{
closed = 1;
nodes = (
"211 -10 OFFCURVE",
"252 33 OFFCURVE",
"252 90 CURVE SMOOTH",
"252 240 LINE",
"232 240 LINE",
"232 90 LINE SMOOTH",
"232 44 OFFCURVE",
"200 10 OFFCURVE",
"157 10 CURVE SMOOTH",
"114 10 OFFCURVE",
"82 44 OFFCURVE",
"82 90 CURVE SMOOTH",
"82 700 LINE SMOOTH",
"82 746 OFFCURVE",
"114 790 OFFCURVE",
"157 790 CURVE SMOOTH",
"200 790 OFFCURVE",
"232 746 OFFCURVE",
"232 700 CURVE SMOOTH",
"232 570 LINE",
"252 570 LINE",
"252 700 LINE SMOOTH",
"252 757 OFFCURVE",
"211 810 OFFCURVE",
"157 810 CURVE SMOOTH",
"103 810 OFFCURVE",
"62 757 OFFCURVE",
"62 700 CURVE SMOOTH",
"62 90 LINE SMOOTH",
"62 33 OFFCURVE",
"103 -10 OFFCURVE",
"157 -10 CURVE SMOOTH"
);
}
);
};
layerId = "3B122060-26E0-4730-9241-82784E6CB359";
paths = (
{
closed = 1;
nodes = (
"211 -6 OFFCURVE",
"237 21 OFFCURVE",
"239 87 CURVE SMOOTH",
"241 157 OFFCURVE",
"240 212 OFFCURVE",
"238 282 CURVE",
"218 282 LINE",
"219 217 OFFCURVE",
"220 152 OFFCURVE",
"219 87 CURVE SMOOTH",
"218 33 OFFCURVE",
"200 14 OFFCURVE",
"147 14 CURVE SMOOTH",
"100 14 OFFCURVE",
"84 33 OFFCURVE",
"83 87 CURVE SMOOTH",
"79 318 OFFCURVE",
"79 481 OFFCURVE",
"83 711 CURVE SMOOTH",
"84 766 OFFCURVE",
"100 784 OFFCURVE",
"146 784 CURVE SMOOTH",
"197 784 OFFCURVE",
"214 766 OFFCURVE",
"215 711 CURVE SMOOTH",
"216 652 OFFCURVE",
"216 593 OFFCURVE",
"215 534 CURVE",
"235 534 LINE",
"236 575 OFFCURVE",
"236 670 OFFCURVE",
"235 711 CURVE SMOOTH",
"233 777 OFFCURVE",
"207 804 OFFCURVE",
"146 804 CURVE SMOOTH",
"88 804 OFFCURVE",
"64 778 OFFCURVE",
"63 711 CURVE SMOOTH",
"59 481 OFFCURVE",
"59 318 OFFCURVE",
"63 87 CURVE SMOOTH",
"64 21 OFFCURVE",
"88 -6 OFFCURVE",
"147 -6 CURVE SMOOTH"
);
}
);
width = 290;
},
{
anchors = (
{
name = bottom;
position = "{248, 0}";
},
{
name = top;
position = "{248, 800}";
}
);
layerId = "1DFA7D5B-2E97-4B89-827F-FB43F8066DC1";
paths = (
{
closed = 1;
nodes = (
"399 -10 OFFCURVE",
"460 47 OFFCURVE",
"464 191 CURVE SMOOTH",
"465 223 OFFCURVE",
"465 268 OFFCURVE",
"464 300 CURVE",
"314 300 LINE",
"315 264 OFFCURVE",
"315 199 OFFCURVE",
"314 163 CURVE SMOOTH",
"313 130 OFFCURVE",
"291 112 OFFCURVE",
"252 112 CURVE SMOOTH",
"214 112 OFFCURVE",
"192 130 OFFCURVE",
"191 163 CURVE SMOOTH",
"186 302 OFFCURVE",
"186 498 OFFCURVE",
"191 638 CURVE SMOOTH",
"192 670 OFFCURVE",
"214 688 OFFCURVE",
"252 688 CURVE SMOOTH",
"288 688 OFFCURVE",
"309 670 OFFCURVE",
"310 638 CURVE SMOOTH",
"311 601 OFFCURVE",
"310 537 OFFCURVE",
"309 500 CURVE",
"459 500 LINE",
"460 533 OFFCURVE",
"461 577 OFFCURVE",
"460 610 CURVE SMOOTH",
"456 753 OFFCURVE",
"396 810 OFFCURVE",
"252 810 CURVE SMOOTH",
"105 810 OFFCURVE",
"43 733 OFFCURVE",
"41 611 CURVE SMOOTH",
"39 498 OFFCURVE",
"39 302 OFFCURVE",
"41 191 CURVE SMOOTH",
"44 47 OFFCURVE",
"101 -10 OFFCURVE",
"252 -10 CURVE SMOOTH"
);
}
);
width = 485;
}
);
leftKerningGroup = O;
rightKerningGroup = O;
unicode = 0043;
},
{
glyphname = D;
lastChange = "2019-06-15 17:00:21 +0000";
layers = (
{
anchors = (
{
name = bottom;
position = "{145, 0}";
},
{
name = center;
position = "{147, 400}";
},
{
name = top;
position = "{147, 800}";
}
);
layerId = "3B122060-26E0-4730-9241-82784E6CB359";
paths = (
{
closed = 1;
nodes = (
"193 780 OFFCURVE",
"211 759 OFFCURVE",
"212 707 CURVE SMOOTH",
"214 502 OFFCURVE",
"214 298 OFFCURVE",
"212 93 CURVE SMOOTH",
"211 41 OFFCURVE",
"193 20 OFFCURVE",
"145 20 CURVE SMOOTH",
"70 20 LINE",
"70 0 LINE",
"145 0 LINE SMOOTH",
"206 0 OFFCURVE",
"231 27 OFFCURVE",
"232 93 CURVE SMOOTH",
"235 312 OFFCURVE",
"235 487 OFFCURVE",
"232 707 CURVE SMOOTH",
"231 773 OFFCURVE",
"206 800 OFFCURVE",
"146 800 CURVE SMOOTH",
"72 800 LINE",
"72 780 LINE",
"146 780 LINE SMOOTH"
);
},
{
closed = 1;
nodes = (
"80 0 LINE",
"80 800 LINE",
"60 800 LINE",
"60 0 LINE"
);
}
);
width = 294;
},
{
anchors = (
{
name = bottom;
position = "{230, 0}";
},
{
name = center;
position = "{250, 400}";
},
{
name = top;
position = "{250, 800}";
}
);
layerId = "1DFA7D5B-2E97-4B89-827F-FB43F8066DC1";
paths = (
{
closed = 1;
nodes = (
"285 668 OFFCURVE",
"307 648 OFFCURVE",
"308 613 CURVE SMOOTH",
"312 471 OFFCURVE",
"312 330 OFFCURVE",
"308 188 CURVE SMOOTH",
"307 152 OFFCURVE",
"285 132 OFFCURVE",
"243 132 CURVE SMOOTH",
"153 132 LINE",
"152 0 LINE",
"243 0 LINE SMOOTH",
"393 0 OFFCURVE",
"455 59 OFFCURVE",
"458 206 CURVE SMOOTH",
"461 345 OFFCURVE",
"461 456 OFFCURVE",
"458 595 CURVE SMOOTH",
"455 741 OFFCURVE",
"393 800 OFFCURVE",
"243 800 CURVE SMOOTH",
"157 800 LINE",
"157 668 LINE",
"243 668 LINE SMOOTH"
);
},
{
closed = 1;
nodes = (
"190 0 LINE",
"190 800 LINE",
"40 800 LINE",
"40 0 LINE"
);
}
);
width = 500;
}
);
leftKerningGroup = H;
rightKerningGroup = O;
unicode = 0044;
},
{
glyphname = Eth;
lastChange = "2019-06-15 17:17:35 +0000";
layers = (
{
components = (
{
name = D;
transform = "{1, 0, 0, 1, 29, 0}";
}
);
layerId = "3B122060-26E0-4730-9241-82784E6CB359";
paths = (
{
closed = 1;
nodes = (
"50 453 LINE",
"170 453 LINE",
"170 473 LINE",
"50 473 LINE"
);
}
);
width = 323;
},
{
components = (
{
name = D;
transform = "{1, 0, 0, 1, 49, 0}";
}
);
layerId = "1DFA7D5B-2E97-4B89-827F-FB43F8066DC1";
paths = (
{
closed = 1;
nodes = (
"50 401 LINE",
"308 401 LINE",
"308 473 LINE",
"50 473 LINE"
);
}
);
width = 549;
}
);
leftKerningGroup = H;
rightKerningGroup = O;
rightMetricsKey = D;
unicode = 00D0;
},
{
glyphname = E;
lastChange = "2019-06-15 19:10:29 +0000";
layers = (
{
anchors = (
{
name = bottom;
position = "{135, 0}";
},
{
name = ogonek;
position = "{209, 1}";
},
{
name = top;
position = "{135, 800}";
},
{
name = topleft;
position = "{40, 800}";
}
);
layerId = "3B122060-26E0-4730-9241-82784E6CB359";
paths = (
{
closed = 1;
nodes = (
"80 0 LINE",
"80 800 LINE",
"60 800 LINE",
"60 0 LINE"
);
},
{
closed = 1;
nodes = (
"219 0 LINE",
"219 20 LINE",
"75 20 LINE",
"75 0 LINE"
);
},
{
closed = 1;
nodes = (
"209 390 LINE",
"209 410 LINE",
"75 410 LINE",
"75 390 LINE"
);
},
{
closed = 1;
nodes = (
"219 780 LINE",
"219 800 LINE",
"75 800 LINE",
"75 780 LINE"
);
}
);
width = 259;
},
{
anchors = (
{
name = bottom;
position = "{218, 0}";
},
{
name = ogonek;
position = "{387, 10}";
},
{
name = top;
position = "{218, 800}";
},
{
name = topleft;
position = "{20, 800}";
}
);
layerId = "1DFA7D5B-2E97-4B89-827F-FB43F8066DC1";
paths = (
{
closed = 1;
nodes = (
"190 0 LINE",
"190 800 LINE",
"40 800 LINE",
"40 0 LINE"
);
},
{
closed = 1;
nodes = (
"386 0 LINE",
"386 132 LINE",
"119 132 LINE",
"119 0 LINE"
);
},
{
closed = 1;
nodes = (
"376 341 LINE",
"376 473 LINE",
"119 473 LINE",
"119 341 LINE"
);
},
{
closed = 1;
nodes = (
"386 668 LINE",
"386 800 LINE",
"119 800 LINE",
"119 668 LINE"
);
}
);
width = 406;
}
);
leftKerningGroup = H;
rightKerningGroup = E;
unicode = 0045;
},
{
glyphname = F;
lastChange = "2019-06-15 19:10:33 +0000";
layers = (
{
layerId = "3B122060-26E0-4730-9241-82784E6CB359";
paths = (
{
closed = 1;
nodes = (
"80 0 LINE",
"80 800 LINE",
"60 800 LINE",
"60 0 LINE"
);
},
{
closed = 1;
nodes = (
"209 390 LINE",
"209 410 LINE",
"75 410 LINE",
"75 390 LINE"
);
},
{
closed = 1;
nodes = (
"219 780 LINE",
"219 800 LINE",
"75 800 LINE",
"75 780 LINE"
);
}
);
width = 259;
},
{
layerId = "1DFA7D5B-2E97-4B89-827F-FB43F8066DC1";
paths = (
{
closed = 1;
nodes = (
"190 0 LINE",
"190 800 LINE",
"40 800 LINE",
"40 0 LINE"
);
},
{
closed = 1;
nodes = (
"376 341 LINE",
"376 473 LINE",
"119 473 LINE",
"119 341 LINE"
);
},
{
closed = 1;
nodes = (
"386 668 LINE",
"386 800 LINE",
"119 800 LINE",
"119 668 LINE"
);
}
);
width = 406;
}
);
leftKerningGroup = H;
rightKerningGroup = F;
unicode = 0046;
},
{
glyphname = G;
lastChange = "2019-06-15 19:10:37 +0000";
layers = (
{
anchors = (
{
name = bottom;
position = "{145, 0}";
},
{
name = top;
position = "{145, 800}";
}
);
background = {
paths = (
{
closed = 1;
nodes = (
"219 -10 OFFCURVE",
"260 33 OFFCURVE",
"260 90 CURVE SMOOTH",
"260 298 LINE",
"240 298 LINE",
"240 90 LINE SMOOTH",
"240 44 OFFCURVE",
"208 10 OFFCURVE",
"165 10 CURVE SMOOTH",
"122 10 OFFCURVE",
"90 44 OFFCURVE",
"90 90 CURVE SMOOTH",
"90 710 LINE SMOOTH",
"90 756 OFFCURVE",
"122 790 OFFCURVE",
"165 790 CURVE SMOOTH",
"208 790 OFFCURVE",
"240 756 OFFCURVE",
"240 710 CURVE SMOOTH",
"240 570 LINE",
"260 570 LINE",
"260 710 LINE SMOOTH",
"260 767 OFFCURVE",
"219 810 OFFCURVE",
"165 810 CURVE SMOOTH",
"111 810 OFFCURVE",
"70 767 OFFCURVE",
"70 710 CURVE SMOOTH",
"70 90 LINE SMOOTH",
"70 33 OFFCURVE",
"111 -10 OFFCURVE",
"165 -10 CURVE SMOOTH"
);
},
{
closed = 1;
nodes = (
"152 298 LINE",
"260 298 LINE",
"260 318 LINE",
"152 318 LINE"
);
}
);
};
layerId = "3B122060-26E0-4730-9241-82784E6CB359";
paths = (
{
closed = 1;
nodes = (
"211 -5 OFFCURVE",
"237 22 OFFCURVE",
"238 88 CURVE SMOOTH",
"239 199 OFFCURVE",
"239 261 OFFCURVE",
"238 307 CURVE",
"145 307 LINE",
"145 287 LINE",
"218 287 LINE",
"219 216 OFFCURVE",
"219 159 OFFCURVE",
"218 88 CURVE SMOOTH",
"217 36 OFFCURVE",
"197 15 OFFCURVE",
"149 15 CURVE SMOOTH",
"101 15 OFFCURVE",
"82 36 OFFCURVE",
"82 88 CURVE SMOOTH",
"80 311 OFFCURVE",
"80 489 OFFCURVE",
"82 712 CURVE SMOOTH",
"83 764 OFFCURVE",
"102 785 OFFCURVE",
"148 785 CURVE SMOOTH",
"193 785 OFFCURVE",
"212 764 OFFCURVE",
"214 712 CURVE SMOOTH",
"216 649 OFFCURVE",
"216 598 OFFCURVE",
"214 535 CURVE",
"234 535 LINE",
"236 598 OFFCURVE",
"236 649 OFFCURVE",
"234 712 CURVE SMOOTH",
"232 778 OFFCURVE",
"207 805 OFFCURVE",
"148 805 CURVE SMOOTH",
"88 805 OFFCURVE",
"63 778 OFFCURVE",
"62 712 CURVE SMOOTH",
"59 489 OFFCURVE",
"59 311 OFFCURVE",
"62 88 CURVE SMOOTH",
"63 22 OFFCURVE",
"88 -5 OFFCURVE",
"149 -5 CURVE SMOOTH"
);
}
);
width = 279;
},
{
anchors = (
{
name = bottom;
position = "{250, 0}";
},
{
name = top;
position = "{250, 800}";
}
);
background = {
paths = (
{
closed = 1;
nodes = (
"260 -10 OFFCURVE",
"323 54 OFFCURVE",
"323 140 CURVE SMOOTH",
"323 300 LINE",
"223 300 LINE",
"223 140 LINE SMOOTH",
"223 111 OFFCURVE",
"203 90 OFFCURVE",
"177 90 CURVE SMOOTH",
"152 90 OFFCURVE",
"133 111 OFFCURVE",
"133 140 CURVE SMOOTH",
"133 660 LINE SMOOTH",
"133 689 OFFCURVE",
"152 710 OFFCURVE",
"177 710 CURVE SMOOTH",
"203 710 OFFCURVE",
"223 689 OFFCURVE",
"223 660 CURVE SMOOTH",
"223 500 LINE",
"323 500 LINE",
"323 660 LINE SMOOTH",
"323 746 OFFCURVE",
"260 810 OFFCURVE",
"177 810 CURVE SMOOTH",
"95 810 OFFCURVE",
"33 746 OFFCURVE",
"33 660 CURVE SMOOTH",
"33 140 LINE SMOOTH",
"33 54 OFFCURVE",
"95 -10 OFFCURVE",
"177 -10 CURVE SMOOTH"
);
},
{
closed = 1;
nodes = (
"176 300 LINE",
"323 300 LINE",
"323 400 LINE",
"176 400 LINE"
);
}
);
};
layerId = "1DFA7D5B-2E97-4B89-827F-FB43F8066DC1";
paths = (
{
closed = 1;
nodes = (
"397 -10 OFFCURVE",
"457 47 OFFCURVE",
"464 191 CURVE SMOOTH",
"467 252 OFFCURVE",
"468 330 OFFCURVE",
"465 391 CURVE",
"264 391 LINE",
"264 261 LINE",
"319 261 LINE",
"321 238 OFFCURVE",
"321 186 OFFCURVE",
"319 163 CURVE SMOOTH",
"316 130 OFFCURVE",
"292 112 OFFCURVE",
"254 112 CURVE SMOOTH",
"215 112 OFFCURVE",
"195 130 OFFCURVE",
"193 163 CURVE SMOOTH",
"185 303 OFFCURVE",
"185 498 OFFCURVE",
"193 638 CURVE SMOOTH",
"195 670 OFFCURVE",
"215 688 OFFCURVE",
"254 688 CURVE SMOOTH",
"289 688 OFFCURVE",
"310 670 OFFCURVE",
"312 638 CURVE SMOOTH",
"314 601 OFFCURVE",
"314 537 OFFCURVE",
"312 500 CURVE",
"462 500 LINE",
"464 531 OFFCURVE",
"464 579 OFFCURVE",
"462 610 CURVE SMOOTH",
"453 753 OFFCURVE",
"394 810 OFFCURVE",
"254 810 CURVE SMOOTH",
"106 810 OFFCURVE",
"49 753 OFFCURVE",
"43 601 CURVE SMOOTH",
"39 493 OFFCURVE",
"39 303 OFFCURVE",
"43 191 CURVE SMOOTH",
"48 47 OFFCURVE",
"103 -10 OFFCURVE",
"254 -10 CURVE SMOOTH"
);
}
);
width = 487;
}
);
leftKerningGroup = O;
rightKerningGroup = O;
unicode = 0047;
},
{
glyphname = H;
lastChange = "2019-06-15 17:00:45 +0000";
layers = (
{
anchors = (
{
name = bottom;
position = "{150, 0}";
},
{
name = center;
position = "{150, 400}";
},
{
name = top;
position = "{150, 800}";
},
{
name = topleft;
position = "{40, 800}";
}
);
layerId = "3B122060-26E0-4730-9241-82784E6CB359";
paths = (
{
closed = 1;
nodes = (
"240 0 LINE",
"240 800 LINE",
"220 800 LINE",
"220 0 LINE"
);
},
{
closed = 1;
nodes = (
"80 0 LINE",
"80 800 LINE",
"60 800 LINE",
"60 0 LINE"
);
},
{
closed = 1;
nodes = (
"229 390 LINE",
"229 410 LINE",
"75 410 LINE",
"75 390 LINE"
);
}
);
width = 300;
},
{
anchors = (
{
name = bottom;
position = "{243, 0}";
},
{
name = center;
position = "{243, 400}";
},
{
name = top;
position = "{243, 800}";
},
{
name = topleft;
position = "{20, 800}";
}
);
layerId = "1DFA7D5B-2E97-4B89-827F-FB43F8066DC1";
paths = (
{
closed = 1;
nodes = (
"445 0 LINE",
"445 800 LINE",
"295 800 LINE",
"295 0 LINE"
);
},
{
closed = 1;
nodes = (
"190 0 LINE",
"190 800 LINE",
"40 800 LINE",
"40 0 LINE"
);
},
{
closed = 1;
nodes = (
"355 341 LINE",
"355 473 LINE",
"119 473 LINE",
"119 341 LINE"
);
}
);
width = 485;
}
);
leftKerningGroup = H;
rightKerningGroup = H;
unicode = 0048;
},
{
glyphname = Hbar;
lastChange = "2019-06-21 17:38:39 +0000";
layers = (
{
components = (
{
name = H;
transform = "{1, 0, 0, 1, -2, 0}";
}
);
layerId = "3B122060-26E0-4730-9241-82784E6CB359";
leftMetricsKey = "=15";
rightMetricsKey = "=15";
paths = (
{
closed = 1;
nodes = (
"15 580 LINE",
"281 580 LINE",
"281 600 LINE",
"15 600 LINE"
);
}
);
width = 296;
},
{
components = (
{
name = H;
transform = "{1, 0, 0, 1, 48, 0}";
}
);
layerId = "1DFA7D5B-2E97-4B89-827F-FB43F8066DC1";
leftMetricsKey = "=30";
rightMetricsKey = "=30";
paths = (
{
closed = 1;
nodes = (
"30 568 LINE",
"551 568 LINE",
"551 640 LINE",
"30 640 LINE"
);
}
);
width = 581;
}
);
leftKerningGroup = H;
leftMetricsKey = "H-45";
rightKerningGroup = H;
rightMetricsKey = H;
unicode = 0126;
},
{
glyphname = I;
lastChange = "2019-06-15 17:00:49 +0000";
layers = (
{
anchors = (
{
name = bottom;
position = "{70, 0}";
},
{
name = ogonek;
position = "{70, 1}";
},
{
name = top;
position = "{70, 800}";
},
{
name = topleft;
position = "{40, 800}";
}
);
layerId = "3B122060-26E0-4730-9241-82784E6CB359";
paths = (
{
closed = 1;
nodes = (
"80 0 LINE",
"80 800 LINE",
"60 800 LINE",
"60 0 LINE"
);
}
);
width = 140;
},
{
anchors = (
{
name = bottom;
position = "{115, 0}";
},
{
name = ogonek;
position = "{189, 10}";
},
{
name = top;
position = "{115, 800}";
},
{
name = topleft;
position = "{20, 800}";
}
);
layerId = "1DFA7D5B-2E97-4B89-827F-FB43F8066DC1";
paths = (
{
closed = 1;
nodes = (
"190 0 LINE",
"190 800 LINE",
"40 800 LINE",
"40 0 LINE"
);
}
);
width = 230;
}
);
leftKerningGroup = H;
rightKerningGroup = H;
unicode = 0049;
},
{
glyphname = J;
lastChange = "2019-06-19 20:03:46 +0000";
layers = (
{
anchors = (
{
name = bottom;
position = "{123, 0}";
},
{
name = top;
position = "{143, 800}";
}
);
layerId = "3B122060-26E0-4730-9241-82784E6CB359";
paths = (
{
closed = 1;
nodes = (
"180 -5 OFFCURVE",
"205 22 OFFCURVE",
"205 88 CURVE SMOOTH",
"205 800 LINE",
"185 800 LINE",
"185 88 LINE SMOOTH",
"185 36 OFFCURVE",
"166 15 OFFCURVE",
"119 15 CURVE SMOOTH",
"70 15 OFFCURVE",
"53 36 OFFCURVE",
"51 88 CURVE SMOOTH",
"49 153 OFFCURVE",
"49 218 OFFCURVE",
"51 283 CURVE",
"31 283 LINE",
"29 213 OFFCURVE",
"29 158 OFFCURVE",
"31 88 CURVE SMOOTH",
"32 22 OFFCURVE",
"57 -5 OFFCURVE",
"119 -5 CURVE SMOOTH"
);
}
);
width = 265;
},
{
anchors = (
{
name = bottom;
position = "{230, -10}";
},
{
name = top;
position = "{258, 800}";
}
);
layerId = "1DFA7D5B-2E97-4B89-827F-FB43F8066DC1";
paths = (
{
closed = 1;
nodes = (
"381 -10 OFFCURVE",
"435 47 OFFCURVE",
"435 191 CURVE SMOOTH",
"435 800 LINE",
"285 800 LINE",
"285 163 LINE SMOOTH",
"285 130 OFFCURVE",
"269 112 OFFCURVE",
"230 112 CURVE SMOOTH",
"191 112 OFFCURVE",
"173 130 OFFCURVE",
"172 163 CURVE SMOOTH",
"171 199 OFFCURVE",
"171 264 OFFCURVE",
"172 300 CURVE",
"31 300 LINE",
"30 268 OFFCURVE",
"30 223 OFFCURVE",
"31 191 CURVE SMOOTH",
"35 47 OFFCURVE",
"83 -10 OFFCURVE",
"230 -10 CURVE SMOOTH"
);
}
);
width = 475;
},
{
anchors = (
{
name = bottom;
position = "{150, -3}";
},
{
name = top;
position = "{172, 800}";
}
);
associatedMasterId = "3B122060-26E0-4730-9241-82784E6CB359";
layerId = "C5A0A30E-BF3C-411D-8910-4F7E8E6DA717";
name = "thin {300, 257}";
paths = (
{
closed = 1;
nodes = (
"230 -6 OFFCURVE",
"263 28 OFFCURVE",
"263 114 CURVE SMOOTH",
"263 800 LINE",
"210 800 LINE",
"210 107 LINE SMOOTH",
"210 60 OFFCURVE",
"192 39 OFFCURVE",
"147 39 CURVE SMOOTH",
"100 39 OFFCURVE",
"86 60 OFFCURVE",
"84 107 CURVE SMOOTH",
"83 165 OFFCURVE",
"83 230 OFFCURVE",
"84 287 CURVE",
"31 287 LINE",
"29 227 OFFCURVE",
"29 174 OFFCURVE",
"31 114 CURVE SMOOTH",
"33 28 OFFCURVE",
"64 -6 OFFCURVE",
"147 -6 CURVE SMOOTH"
);
}
);
width = 318;
}
);
leftKerningGroup = J;
rightKerningGroup = O;
unicode = 004A;
},
{
glyphname = K;
lastChange = "2019-06-15 19:10:56 +0000";
layers = (
{
anchors = (
{
name = bottom;
position = "{149, 0}";
},
{
name = top;
position = "{139, 800}";
}
);
background = {
paths = (
{
closed = 1;
nodes = (
"95 391 LINE",
"97 400 LINE",
"200 800 LINE",
"180 800 LINE",
"61 339 LINE",
"58 332 LINE",
"67 292 LINE"
);
},
{
closed = 1;
nodes = (
"209 0 LINE",
"96 450 LINE",
"87 410 LINE",
"189 0 LINE"
);
},
{
closed = 1;
nodes = (
"70 0 LINE",
"70 800 LINE",
"50 800 LINE",
"50 0 LINE"
);
},
{
closed = 1;
nodes = (
"169 390 LINE",
"169 410 LINE",
"65 410 LINE",
"65 390 LINE"
);
}
);
};
layerId = "3B122060-26E0-4730-9241-82784E6CB359";
paths = (
{
closed = 1;
nodes = (
"115 410 LINE",
"119 419 LINE",
"232 800 LINE",
"210 800 LINE",
"163 641 LINE",
"91 395 LINE",
"79 395 LINE",
"77 290 LINE"
);
},
{
closed = 1;
nodes = (
"80 0 LINE",
"80 387 LINE",
"80 398 LINE",
"80 642 LINE",
"80 800 LINE",
"60 800 LINE",
"60 0 LINE"
);
},
{
closed = 1;
nodes = (
"248 0 LINE",
"121 427 LINE",
"102 422 LINE",
"225 0 LINE"
);
}
);
width = 278;
},
{
anchors = (
{
name = bottom;
position = "{265, 0}";
},
{
name = top;
position = "{265, 800}";
}
);
background = {
paths = (
{
closed = 1;
nodes = (
"200 0 LINE",
"200 800 LINE",
"50 800 LINE",
"50 0 LINE"
);
},
{
closed = 1;
nodes = (
"480 0 LINE",
"337 419 LINE",
"222 323 LINE",
"323 0 LINE"
);
},
{
closed = 1;
nodes = (
"319 317 LINE",
"468 800 LINE",
"311 800 LINE",
"220 470 LINE",
"200 470 LINE",
"200 317 LINE"
);
}
);
};
layerId = "1DFA7D5B-2E97-4B89-827F-FB43F8066DC1";
paths = (
{
closed = 1;
nodes = (
"305 427 LINE",
"331 425 LINE",
"482 800 LINE",
"318 800 LINE",
"246 606 LINE",
"198 427 LINE",
"153 427 LINE",
"173 141 LINE"
);
},
{
closed = 1;
nodes = (
"193 0 LINE",
"193 272 LINE",
"171 427 LINE",
"198 606 LINE",
"200 800 LINE",
"40 800 LINE",
"40 0 LINE"
);
},
{
closed = 1;
nodes = (
"488 0 LINE",
"341 499 LINE",
"234 357 LINE",
"336 0 LINE"
);
}
);
width = 508;
}
);
leftKerningGroup = H;
rightKerningGroup = K;
unicode = 004B;
},
{
glyphname = L;
lastChange = "2019-06-19 20:02:29 +0000";
layers = (
{
anchors = (
{
name = bottom;
position = "{141, 0}";
},
{
name = center;
position = "{125, 400}";
},
{
name = top;
position = "{125, 800}";
},
{
name = topright;
position = "{209, 800}";
}
);
layerId = "3B122060-26E0-4730-9241-82784E6CB359";
paths = (
{
closed = 1;
nodes = (
"80 0 LINE",
"80 800 LINE",
"60 800 LINE",
"60 0 LINE"
);
},
{
closed = 1;
nodes = (
"219 0 LINE",
"219 20 LINE",
"75 20 LINE",
"75 0 LINE"
);
}
);
width = 249;
},
{
anchors = (
{
name = bottom;
position = "{210, 0}";
},
{
name = center;
position = "{219, 400}";
},
{
name = top;
position = "{219, 800}";
},
{
name = topright;
position = "{417, 800}";
}
);
layerId = "1DFA7D5B-2E97-4B89-827F-FB43F8066DC1";
paths = (
{
closed = 1;
nodes = (
"190 0 LINE",
"190 800 LINE",
"40 800 LINE",
"40 0 LINE"
);
},
{
closed = 1;
nodes = (
"387 0 LINE",
"387 132 LINE",
"119 132 LINE",
"119 0 LINE"
);
}
);
width = 407;
},
{
anchors = (
{
name = bottom;
position = "{158, 0}";
},
{
name = center;
position = "{149, 400}";
},
{
name = top;
position = "{149, 800}";
},
{
name = topright;
position = "{261, 800}";
}
);
associatedMasterId = "3B122060-26E0-4730-9241-82784E6CB359";
layerId = "05AD985B-4ABF-4CB7-A4DB-6282B0FA8F45";
name = "thin {300, 257}";
paths = (
{
closed = 1;
nodes = (
"108 0 LINE",
"108 800 LINE",
"55 800 LINE",
"55 0 LINE"
);
},
{
closed = 1;
nodes = (
"261 0 LINE",
"261 45 LINE",
"86 45 LINE",
"86 0 LINE"
);
}
);
width = 289;
}
);
leftKerningGroup = H;
rightKerningGroup = L;
unicode = 004C;
},
{
glyphname = Lslash;
lastChange = "2019-06-15 16:19:00 +0000";
layers = (
{
components = (
{
name = L;
transform = "{1, 0, 0, 1, 5, 0}";
}
);
layerId = "3B122060-26E0-4730-9241-82784E6CB359";
paths = (
{
closed = 1;
nodes = (
"22 426 LINE",
"127 465 LINE",
"127 486 LINE",
"22 447 LINE"
);
}
);
width = 214;
},
{
components = (
{
name = L;
transform = "{1, 0, 0, 1, 30, 0}";
}
);
layerId = "1DFA7D5B-2E97-4B89-827F-FB43F8066DC1";
paths = (
{
closed = 1;
nodes = (
"22 356 LINE",
"300 439 LINE",
"300 511 LINE",
"22 428 LINE"
);
}
);
width = 427;
}
);
leftKerningGroup = H;
rightKerningGroup = L;
unicode = 0141;
},
{
glyphname = M;
lastChange = "2019-06-19 20:19:30 +0000";
layers = (
{
anchors = (
{
name = bottom;
position = "{204, 0}";
},
{
name = top;
position = "{204, 800}";
}
);
layerId = "3B122060-26E0-4730-9241-82784E6CB359";
paths = (
{
closed = 1;
nodes = (
"80 0 LINE",
"80 226 LINE",
"80 780 LINE",
"98 780 LINE",
"157 226 LINE",
"179 5 LINE",
"228 5 LINE",
"250 226 LINE",
"309 780 LINE",
"327 780 LINE",
"327 226 LINE",
"327 0 LINE",
"347 0 LINE",
"347 800 LINE",
"291 800 LINE",
"253 459 LINE",
"210 25 LINE",
"197 25 LINE",
"154 459 LINE",
"116 800 LINE",
"60 800 LINE",
"60 0 LINE"
);
}
);
width = 407;
},
{
anchors = (
{
name = bottom;
position = "{373, 0}";
},
{
name = top;
position = "{373, 800}";
}
);
layerId = "1DFA7D5B-2E97-4B89-827F-FB43F8066DC1";
paths = (
{
closed = 1;
nodes = (
"190 0 LINE",
"190 246 LINE",
"162 668 LINE",
"188 668 LINE",
"231 236 LINE",
"292 0 LINE",
"453 0 LINE",
"515 236 LINE",
"557 668 LINE",
"584 668 LINE",
"555 246 LINE",
"555 0 LINE",
"705 0 LINE",
"705 800 LINE",
"465 800 LINE",
"398 497 LINE",
"386 132 LINE",
"360 132 LINE",
"347 497 LINE",
"281 800 LINE",
"40 800 LINE",
"40 0 LINE"
);
}
);
width = 745;
},
{
anchors = (
{
name = bottom;
position = "{254, 0}";
},
{
name = top;
position = "{254, 800}";
}
);
associatedMasterId = "3B122060-26E0-4730-9241-82784E6CB359";
layerId = "8196EB4D-46CC-4527-BC0D-B6C867D35C9E";
name = "thin {300, 257}";
paths = (
{
closed = 1;
nodes = (
"106 0 LINE",
"106 231 LINE",
"101 752 LINE",
"113 752 LINE",
"176 229 LINE",
"207 4 LINE",
"292 4 LINE",
"324 229 LINE",
"387 752 LINE",
"399 752 LINE",
"394 231 LINE",
"394 0 LINE",
"447 0 LINE",
"447 800 LINE",
"343 800 LINE",
"302 469 LINE",
"255 52 LINE",
"244 52 LINE",
"197 469 LINE",
"157 800 LINE",
"53 800 LINE",
"53 0 LINE"
);
}
);
width = 500;
}
);
leftKerningGroup = H;
rightKerningGroup = H;
unicode = 004D;
},
{
glyphname = N;
lastChange = "2019-06-19 20:19:38 +0000";
layers = (
{
anchors = (
{
name = bottom;
position = "{161, 0}";
},
{
name = top;
position = "{168, 800}";
}
);
layerId = "3B122060-26E0-4730-9241-82784E6CB359";
paths = (
{
closed = 1;
nodes = (
"80 0 LINE",
"80 295 LINE",
"80 780 LINE",
"98 780 LINE",
"166 300 LINE",
"209 0 LINE",
"265 0 LINE",
"265 800 LINE",
"245 800 LINE",
"245 550 LINE",
"245 20 LINE",
"227 20 LINE",
"151 548 LINE",
"115 800 LINE",
"60 800 LINE",
"60 0 LINE"
);
}
);
width = 325;
},
{
anchors = (
{
name = bottom;
position = "{272, 0}";
},
{
name = top;
position = "{272, 800}";
}
);
background = {
paths = (
{
closed = 1;
nodes = (
"186 0 LINE",
"181 307 LINE",
"156 668 LINE",
"184 668 LINE",
"236 291 LINE",
"330 0 LINE",
"569 0 LINE",
"569 800 LINE",
"409 800 LINE",
"414 457 LINE",
"458 132 LINE",
"432 132 LINE",
"347 535 LINE",
"267 800 LINE",
"25 800 LINE",
"25 0 LINE"
);
}
);
};
layerId = "1DFA7D5B-2E97-4B89-827F-FB43F8066DC1";
paths = (
{
closed = 1;
nodes = (
"185 0 LINE",
"172 307 LINE",
"146 669 LINE",
"174 669 LINE",
"215 262 LINE",
"275 0 LINE",
"503 0 LINE",
"503 800 LINE",
"358 800 LINE",
"370 457 LINE",
"398 132 LINE",
"372 132 LINE",
"317 545 LINE",
"257 800 LINE",
"40 800 LINE",
"40 0 LINE"
);
}
);
width = 543;
},
{
anchors = (
{
name = bottom;
position = "{191, 0}";
},
{
name = top;
position = "{196, 800}";
}
);
associatedMasterId = "3B122060-26E0-4730-9241-82784E6CB359";
layerId = "E3CE6CFE-4017-45CB-A7C9-405A0A7EAC2D";
name = "thin {300, 257}";
paths = (
{
closed = 1;
nodes = (
"108 0 LINE",
"105 298 LINE",
"102 752 LINE",
"116 752 LINE",
"183 291 LINE",
"233 0 LINE",
"331 0 LINE",
"331 800 LINE",
"278 800 LINE",
"281 527 LINE",
"285 48 LINE",
"272 48 LINE",
"194 547 LINE",
"156 800 LINE",
"55 800 LINE",
"55 0 LINE"
);
}
);
width = 386;
}
);
leftKerningGroup = H;
rightKerningGroup = H;
unicode = 004E;
},
{
glyphname = Eng;
lastChange = "2019-06-15 17:18:20 +0000";
layers = (
{
components = (
{
name = N;
}
);
layerId = "3B122060-26E0-4730-9241-82784E6CB359";
paths = (
{
closed = 1;
nodes = (
"244 -200 OFFCURVE",
"265 -174 OFFCURVE",
"265 -110 CURVE SMOOTH",
"265 11 LINE",
"245 11 LINE",
"245 -110 LINE SMOOTH",
"245 -165 OFFCURVE",
"230 -180 OFFCURVE",
"182 -180 CURVE SMOOTH",
"161 -180 OFFCURVE",
"145 -179 OFFCURVE",
"131 -176 CURVE",
"131 -195 LINE",
"144 -198 OFFCURVE",
"169 -200 OFFCURVE",
"184 -200 CURVE SMOOTH"
);
}
);
width = 325;
},
{
components = (
{
name = N;
}
);
layerId = "1DFA7D5B-2E97-4B89-827F-FB43F8066DC1";
paths = (
{
closed = 1;
nodes = (
"431 -211 OFFCURVE",
"503 -160 OFFCURVE",
"503 -33 CURVE SMOOTH",
"503 92 LINE",
"372 92 LINE",
"372 -47 LINE SMOOTH",
"372 -83 OFFCURVE",
"331 -97 OFFCURVE",
"278 -97 CURVE SMOOTH",
"259 -97 OFFCURVE",
"223 -96 OFFCURVE",
"205 -95 CURVE",
"205 -204 LINE",
"229 -208 OFFCURVE",
"255 -211 OFFCURVE",
"278 -211 CURVE SMOOTH"
);
}
);
width = 543;
}
);
leftKerningGroup = H;
leftMetricsKey = N;
rightKerningGroup = H;
rightMetricsKey = N;
unicode = 014A;
},
{
glyphname = O;
lastChange = "2019-06-15 17:01:22 +0000";
layers = (
{
anchors = (
{
name = bottom;
position = "{151, 0}";
},
{
name = center;
position = "{151, 400}";
},
{
name = ogonekalt;
position = "{214, 0}";
},
{
name = top;
position = "{151, 800}";
},
{
name = topleft;
position = "{42, 800}";
},
{
name = topright;
position = "{260, 800}";
}
);
background = {
paths = (
{
closed = 1;
nodes = (
"205 -10 OFFCURVE",
"250 35 OFFCURVE",
"250 90 CURVE SMOOTH",
"250 710 LINE SMOOTH",
"250 765 OFFCURVE",
"205 810 OFFCURVE",
"150 810 CURVE SMOOTH",
"95 810 OFFCURVE",
"50 765 OFFCURVE",
"50 710 CURVE SMOOTH",
"50 90 LINE SMOOTH",
"50 35 OFFCURVE",
"95 -10 OFFCURVE",
"150 -10 CURVE SMOOTH"
);
},
{
closed = 1;
nodes = (
"106 10 OFFCURVE",
"70 46 OFFCURVE",
"70 90 CURVE SMOOTH",
"70 710 LINE SMOOTH",
"70 754 OFFCURVE",
"106 790 OFFCURVE",
"150 790 CURVE SMOOTH",
"194 790 OFFCURVE",
"230 754 OFFCURVE",
"230 710 CURVE SMOOTH",
"230 90 LINE SMOOTH",
"230 46 OFFCURVE",
"194 10 OFFCURVE",
"150 10 CURVE SMOOTH"
);
}
);
};
layerId = "3B122060-26E0-4730-9241-82784E6CB359";
paths = (
{
closed = 1;
nodes = (
"214 -5 OFFCURVE",
"239 21 OFFCURVE",
"239 85 CURVE SMOOTH",
"241 310 OFFCURVE",
"241 489 OFFCURVE",
"239 714 CURVE SMOOTH",
"239 779 OFFCURVE",
"214 805 OFFCURVE",
"151 805 CURVE SMOOTH",
"88 805 OFFCURVE",
"64 779 OFFCURVE",
"63 714 CURVE SMOOTH",
"59 489 OFFCURVE",
"59 310 OFFCURVE",
"63 85 CURVE SMOOTH",
"64 21 OFFCURVE",
"88 -5 OFFCURVE",
"151 -5 CURVE SMOOTH"
);
},
{
closed = 1;
nodes = (
"101 15 OFFCURVE",
"84 32 OFFCURVE",
"83 85 CURVE SMOOTH",
"79 314 OFFCURVE",
"78 494 OFFCURVE",
"83 714 CURVE SMOOTH",
"84 768 OFFCURVE",
"101 785 OFFCURVE",
"151 785 CURVE SMOOTH",
"201 785 OFFCURVE",
"218 768 OFFCURVE",
"219 714 CURVE SMOOTH",
"222 494 OFFCURVE",
"224 314 OFFCURVE",
"219 85 CURVE SMOOTH",
"218 32 OFFCURVE",
"201 15 OFFCURVE",
"151 15 CURVE SMOOTH"
);
}
);
width = 300;
},
{
anchors = (
{
name = bottom;
position = "{254, 0}";
},
{
name = center;
position = "{254, 400}";
},
{
name = ogonekalt;
position = "{382, 3}";
},
{
name = top;
position = "{254, 800}";
},
{
name = topleft;
position = "{20, 800}";
},
{
name = topright;
position = "{487, 800}";
}
);
background = {
paths = (
{
closed = 1;
nodes = (
"250 -5 OFFCURVE",
"317 54 OFFCURVE",
"317 127 CURVE SMOOTH",
"317 675 LINE SMOOTH",
"317 746 OFFCURVE",
"250 805 OFFCURVE",
"160 805 CURVE SMOOTH",
"71 805 OFFCURVE",
"4 746 OFFCURVE",
"4 675 CURVE SMOOTH",
"4 127 LINE SMOOTH",
"4 54 OFFCURVE",
"71 -5 OFFCURVE",
"160 -5 CURVE SMOOTH"
);
},
{
closed = 1;
nodes = (
"134 102 OFFCURVE",
"114 118 OFFCURVE",
"114 140 CURVE SMOOTH",
"114 661 LINE SMOOTH",
"114 682 OFFCURVE",
"134 698 OFFCURVE",
"160 698 CURVE SMOOTH",
"187 698 OFFCURVE",
"207 682 OFFCURVE",
"207 661 CURVE SMOOTH",
"207 140 LINE SMOOTH",
"207 118 OFFCURVE",
"187 102 OFFCURVE",
"160 102 CURVE SMOOTH"
);
}
);
};
layerId = "1DFA7D5B-2E97-4B89-827F-FB43F8066DC1";
paths = (
{
closed = 1;
nodes = (
"400 -10 OFFCURVE",
"458 47 OFFCURVE",
"463 191 CURVE SMOOTH",
"468 322 OFFCURVE",
"468 477 OFFCURVE",
"463 610 CURVE SMOOTH",
"458 753 OFFCURVE",
"400 810 OFFCURVE",
"253 810 CURVE SMOOTH",
"106 810 OFFCURVE",
"45 753 OFFCURVE",
"42 610 CURVE SMOOTH",
"39 479 OFFCURVE",
"39 322 OFFCURVE",
"42 191 CURVE SMOOTH",
"45 47 OFFCURVE",
"106 -10 OFFCURVE",
"253 -10 CURVE SMOOTH"
);
},
{
closed = 1;
nodes = (
"215 112 OFFCURVE",
"193 130 OFFCURVE",
"192 163 CURVE SMOOTH",
"186 299 OFFCURVE",
"186 502 OFFCURVE",
"192 638 CURVE SMOOTH",
"193 670 OFFCURVE",
"215 688 OFFCURVE",
"253 688 CURVE SMOOTH",
"291 688 OFFCURVE",
"312 670 OFFCURVE",
"313 638 CURVE SMOOTH",
"319 502 OFFCURVE",
"319 299 OFFCURVE",
"313 163 CURVE SMOOTH",
"312 130 OFFCURVE",
"292 112 OFFCURVE",
"253 112 CURVE SMOOTH"
);
}
);
width = 507;
}
);
leftKerningGroup = O;
rightKerningGroup = O;
unicode = 004F;
},
{
glyphname = Oslash;
lastChange = "2019-06-19 20:10:39 +0000";
layers = (
{
components = (
{
name = O;
}
);
layerId = "3B122060-26E0-4730-9241-82784E6CB359";
paths = (
{
closed = 1;
nodes = (
"101 17 LINE",
"219 776 LINE",
"200 780 LINE",
"82 21 LINE"
);
}
);
width = 300;
},
{
components = (
{
name = O;
}
);
layerId = "1DFA7D5B-2E97-4B89-827F-FB43F8066DC1";
paths = (
{
closed = 1;
nodes = (
"163 88 LINE",
"388 663 LINE",
"321 690 LINE",
"96 114 LINE"
);
}
);
width = 507;
},
{
associatedMasterId = "3B122060-26E0-4730-9241-82784E6CB359";
components = (
{
alignment = -1;
name = O;
}
);
layerId = "67AF4541-CF8A-4BC1-AAF6-57F1BD6804D5";
name = "thin {300, 257}";
paths = (
{
closed = 1;
nodes = (
"130 35 LINE",
"271 748 LINE",
"226 758 LINE",
"86 44 LINE"
);
}
);
width = 352;
}
);
leftKerningGroup = O;
leftMetricsKey = O;
rightKerningGroup = O;
rightMetricsKey = O;
unicode = 00D8;
},
{
glyphname = P;
lastChange = "2019-06-19 20:11:26 +0000";
layers = (
{
layerId = "3B122060-26E0-4730-9241-82784E6CB359";
paths = (
{
closed = 1;
nodes = (
"141 345 LINE SMOOTH",
"200 345 OFFCURVE",
"225 372 OFFCURVE",
"228 438 CURVE SMOOTH",
"232 522 OFFCURVE",
"232 599 OFFCURVE",
"228 707 CURVE SMOOTH",
"225 773 OFFCURVE",
"200 800 OFFCURVE",
"142 800 CURVE SMOOTH",
"71 800 LINE",
"71 780 LINE",
"142 780 LINE SMOOTH",
"188 780 OFFCURVE",
"206 759 OFFCURVE",
"208 707 CURVE SMOOTH",
"211 611 OFFCURVE",
"211 534 OFFCURVE",
"208 438 CURVE SMOOTH",
"206 386 OFFCURVE",
"188 365 OFFCURVE",
"141 365 CURVE SMOOTH",
"75 365 LINE",
"75 345 LINE"
);
},
{
closed = 1;
nodes = (
"80 0 LINE",
"80 800 LINE",
"60 800 LINE",
"60 0 LINE"
);
}
);
width = 261;
},
{
layerId = "1DFA7D5B-2E97-4B89-827F-FB43F8066DC1";
paths = (
{
closed = 1;
nodes = (
"233 254 LINE SMOOTH",
"382 254 OFFCURVE",
"443 310 OFFCURVE",
"448 449 CURVE SMOOTH",
"450 505 OFFCURVE",
"450 549 OFFCURVE",
"448 605 CURVE SMOOTH",
"443 744 OFFCURVE",
"382 800 OFFCURVE",
"233 800 CURVE SMOOTH",
"147 800 LINE",
"147 668 LINE",
"233 668 LINE SMOOTH",
"275 668 OFFCURVE",
"296 648 OFFCURVE",
"298 613 CURVE SMOOTH",
"301 564 OFFCURVE",
"301 490 OFFCURVE",
"298 441 CURVE SMOOTH",
"296 406 OFFCURVE",
"275 386 OFFCURVE",
"233 386 CURVE SMOOTH",
"147 386 LINE",
"147 254 LINE"
);
},
{
closed = 1;
nodes = (
"190 0 LINE",
"190 800 LINE",
"40 800 LINE",
"40 0 LINE"
);
}
);
width = 469;
}
);
leftKerningGroup = H;
rightKerningGroup = P;
unicode = 0050;
},
{
glyphname = Thorn;
lastChange = "2019-06-15 19:11:13 +0000";
layers = (
{
layerId = "3B122060-26E0-4730-9241-82784E6CB359";
paths = (
{
closed = 1;
nodes = (
"141 185 LINE SMOOTH",
"200 185 OFFCURVE",
"225 212 OFFCURVE",
"228 278 CURVE SMOOTH",
"232 362 OFFCURVE",
"231 439 OFFCURVE",
"228 547 CURVE SMOOTH",
"226 613 OFFCURVE",
"200 640 OFFCURVE",
"142 640 CURVE SMOOTH",
"71 640 LINE",
"71 620 LINE",
"142 620 LINE SMOOTH",
"188 620 OFFCURVE",
"206 599 OFFCURVE",
"208 547 CURVE SMOOTH",
"212 451 OFFCURVE",
"212 374 OFFCURVE",
"208 278 CURVE SMOOTH",
"206 226 OFFCURVE",
"188 205 OFFCURVE",
"141 205 CURVE SMOOTH",
"75 205 LINE",
"75 185 LINE"
);
},
{
closed = 1;
nodes = (
"80 0 LINE",
"80 800 LINE",
"60 800 LINE",
"60 0 LINE"
);
}
);
width = 261;
},
{
layerId = "1DFA7D5B-2E97-4B89-827F-FB43F8066DC1";
paths = (
{
closed = 1;
nodes = (
"233 134 LINE SMOOTH",
"382 134 OFFCURVE",
"443 190 OFFCURVE",
"448 329 CURVE SMOOTH",
"450 385 OFFCURVE",
"450 429 OFFCURVE",
"448 485 CURVE SMOOTH",
"443 624 OFFCURVE",
"382 680 OFFCURVE",
"233 680 CURVE SMOOTH",
"147 680 LINE",
"147 548 LINE",
"233 548 LINE SMOOTH",
"275 548 OFFCURVE",
"296 528 OFFCURVE",
"298 493 CURVE SMOOTH",
"301 444 OFFCURVE",
"301 370 OFFCURVE",
"298 321 CURVE SMOOTH",
"296 286 OFFCURVE",
"275 266 OFFCURVE",
"233 266 CURVE SMOOTH",
"147 266 LINE",
"147 134 LINE"
);
},
{
closed = 1;
nodes = (
"190 0 LINE",
"190 800 LINE",
"40 800 LINE",
"40 0 LINE"
);
}
);
width = 469;
}
);
leftKerningGroup = H;
rightKerningGroup = P;
unicode = 00DE;
},
{
glyphname = Q;
lastChange = "2019-06-15 17:01:36 +0000";
layers = (
{
background = {
paths = (
{
closed = 1;
nodes = (
"204 -5 OFFCURVE",
"229 21 OFFCURVE",
"229 85 CURVE SMOOTH",
"231 310 OFFCURVE",
"231 489 OFFCURVE",
"229 714 CURVE SMOOTH",
"229 779 OFFCURVE",
"204 805 OFFCURVE",
"141 805 CURVE SMOOTH",
"78 805 OFFCURVE",
"53 779 OFFCURVE",
"53 714 CURVE SMOOTH",
"51 489 OFFCURVE",
"51 310 OFFCURVE",
"53 85 CURVE SMOOTH",
"53 21 OFFCURVE",
"78 -5 OFFCURVE",
"141 -5 CURVE SMOOTH"
);
},
{
closed = 1;
nodes = (
"94 15 OFFCURVE",
"74 35 OFFCURVE",
"73 85 CURVE SMOOTH",
"70 310 OFFCURVE",
"70 489 OFFCURVE",
"73 714 CURVE SMOOTH",
"74 765 OFFCURVE",
"94 785 OFFCURVE",
"141 785 CURVE SMOOTH",
"188 785 OFFCURVE",
"208 765 OFFCURVE",
"209 714 CURVE SMOOTH",
"212 489 OFFCURVE",
"212 310 OFFCURVE",
"209 85 CURVE SMOOTH",
"208 35 OFFCURVE",
"188 15 OFFCURVE",
"141 15 CURVE SMOOTH"
);
}
);
};
layerId = "3B122060-26E0-4730-9241-82784E6CB359";
paths = (
{
closed = 1;
nodes = (
"224 -59 LINE",
"186 -62 OFFCURVE",
"171 -42 OFFCURVE",
"171 11 CURVE",
"151 11 LINE",
"151 -55 OFFCURVE",
"172 -80 OFFCURVE",
"224 -77 CURVE"
);
},
{
closed = 1;
nodes = (
"214 -5 OFFCURVE",
"239 21 OFFCURVE",
"239 85 CURVE SMOOTH",
"241 310 OFFCURVE",
"241 489 OFFCURVE",
"239 714 CURVE SMOOTH",
"239 779 OFFCURVE",
"214 805 OFFCURVE",
"151 805 CURVE SMOOTH",
"88 805 OFFCURVE",
"64 779 OFFCURVE",
"63 714 CURVE SMOOTH",
"59 489 OFFCURVE",
"59 310 OFFCURVE",
"63 85 CURVE SMOOTH",
"64 21 OFFCURVE",
"88 -5 OFFCURVE",
"151 -5 CURVE SMOOTH"
);
},
{
closed = 1;
nodes = (
"101 15 OFFCURVE",
"84 32 OFFCURVE",
"83 85 CURVE SMOOTH",
"79 314 OFFCURVE",
"78 494 OFFCURVE",
"83 714 CURVE SMOOTH",
"84 768 OFFCURVE",
"101 785 OFFCURVE",
"151 785 CURVE SMOOTH",
"201 785 OFFCURVE",
"218 768 OFFCURVE",
"219 714 CURVE SMOOTH",
"222 494 OFFCURVE",
"224 314 OFFCURVE",
"219 85 CURVE SMOOTH",
"218 32 OFFCURVE",
"201 15 OFFCURVE",
"151 15 CURVE SMOOTH"
);
}
);
width = 300;
},
{
background = {
paths = (
{
closed = 1;
nodes = (
"390 -10 OFFCURVE",
"450 47 OFFCURVE",
"453 191 CURVE SMOOTH",
"456 340 OFFCURVE",
"456 459 OFFCURVE",
"453 610 CURVE SMOOTH",
"450 753 OFFCURVE",
"390 810 OFFCURVE",
"243 810 CURVE SMOOTH",
"96 810 OFFCURVE",
"35 753 OFFCURVE",
"32 610 CURVE SMOOTH",
"29 460 OFFCURVE",
"29 341 OFFCURVE",
"32 191 CURVE SMOOTH",
"35 47 OFFCURVE",
"96 -10 OFFCURVE",
"243 -10 CURVE SMOOTH"
);
},
{
closed = 1;
nodes = (
"205 112 OFFCURVE",
"183 130 OFFCURVE",
"182 163 CURVE SMOOTH",
"176 299 OFFCURVE",
"176 502 OFFCURVE",
"182 638 CURVE SMOOTH",
"183 670 OFFCURVE",
"205 688 OFFCURVE",
"243 688 CURVE SMOOTH",
"282 688 OFFCURVE",
"302 670 OFFCURVE",
"303 638 CURVE SMOOTH",
"306 502 OFFCURVE",
"306 299 OFFCURVE",
"303 163 CURVE SMOOTH",
"302 130 OFFCURVE",
"282 112 OFFCURVE",
"243 112 CURVE SMOOTH"
);
}
);
};
layerId = "1DFA7D5B-2E97-4B89-827F-FB43F8066DC1";
paths = (
{
closed = 1;
nodes = (
"452 -4 LINE",
"398 -11 OFFCURVE",
"376 18 OFFCURVE",
"391 77 CURVE",
"241 77 LINE",
"245 -78 OFFCURVE",
"305 -135 OFFCURVE",
"452 -124 CURVE"
);
},
{
closed = 1;
nodes = (
"400 -10 OFFCURVE",
"458 47 OFFCURVE",
"463 191 CURVE SMOOTH",
"468 322 OFFCURVE",
"468 477 OFFCURVE",
"463 610 CURVE SMOOTH",
"458 753 OFFCURVE",
"400 810 OFFCURVE",
"253 810 CURVE SMOOTH",
"106 810 OFFCURVE",
"45 753 OFFCURVE",
"42 610 CURVE SMOOTH",
"39 479 OFFCURVE",
"39 322 OFFCURVE",
"42 191 CURVE SMOOTH",
"45 47 OFFCURVE",
"106 -10 OFFCURVE",
"253 -10 CURVE SMOOTH"
);
},
{
closed = 1;
nodes = (
"215 112 OFFCURVE",
"193 130 OFFCURVE",
"192 163 CURVE SMOOTH",
"186 299 OFFCURVE",
"186 502 OFFCURVE",
"192 638 CURVE SMOOTH",
"193 670 OFFCURVE",
"215 688 OFFCURVE",
"253 688 CURVE SMOOTH",
"292 688 OFFCURVE",
"312 670 OFFCURVE",
"313 638 CURVE SMOOTH",
"319 502 OFFCURVE",
"319 299 OFFCURVE",
"313 163 CURVE SMOOTH",
"312 130 OFFCURVE",
"292 112 OFFCURVE",
"253 112 CURVE SMOOTH"
);
}
);
width = 507;
}
);
leftKerningGroup = O;
rightKerningGroup = O;
unicode = 0051;
},
{
glyphname = R;
lastChange = "2019-06-15 19:11:19 +0000";
layers = (
{
anchors = (
{
name = bottom;
position = "{147, 0}";
},
{
name = top;
position = "{132, 800}";
}
);
background = {
paths = (
{
closed = 1;
nodes = (
"139 378 LINE SMOOTH",
"199 378 OFFCURVE",
"224 400 OFFCURVE",
"226 462 CURVE SMOOTH",
"229 533 OFFCURVE",
"229 603 OFFCURVE",
"226 707 CURVE SMOOTH",
"224 773 OFFCURVE",
"199 800 OFFCURVE",
"140 800 CURVE SMOOTH",
"71 800 LINE",
"71 780 LINE",
"140 780 LINE SMOOTH",
"185 780 OFFCURVE",
"204 759 OFFCURVE",
"206 707 CURVE SMOOTH",
"209 619 OFFCURVE",
"209 548 OFFCURVE",
"206 460 CURVE SMOOTH",
"204 408 OFFCURVE",
"185 387 OFFCURVE",
"139 387 CURVE SMOOTH",
"75 387 LINE",
"75 378 LINE"
);
},
{
closed = 1;
nodes = (
"229 0 LINE",
"230 69 OFFCURVE",
"229 153 OFFCURVE",
"228 294 CURVE SMOOTH",
"227 355 OFFCURVE",
"202 377 OFFCURVE",
"142 377 CURVE SMOOTH",
"71 377 LINE",
"71 367 LINE",
"142 367 LINE SMOOTH",
"188 367 OFFCURVE",
"207 346 OFFCURVE",
"208 294 CURVE SMOOTH",
"210 200 OFFCURVE",
"210 116 OFFCURVE",
"209 0 CURVE"
);
},
{
closed = 1;
nodes = (
"80 0 LINE",
"80 800 LINE",
"60 800 LINE",
"60 0 LINE"
);
},
{
closed = 1;
nodes = (
"185 370 LINE",
"185 387 LINE",
"75 387 LINE",
"75 370 LINE"
);
}
);
};
layerId = "3B122060-26E0-4730-9241-82784E6CB359";
paths = (
{
closed = 1;
nodes = (
"141 325 LINE SMOOTH",
"200 325 OFFCURVE",
"225 352 OFFCURVE",
"228 418 CURVE SMOOTH",
"232 502 OFFCURVE",
"232 599 OFFCURVE",
"228 707 CURVE SMOOTH",
"225 773 OFFCURVE",
"200 800 OFFCURVE",
"142 800 CURVE SMOOTH",
"71 800 LINE",
"71 780 LINE",
"142 780 LINE SMOOTH",
"188 780 OFFCURVE",
"206 759 OFFCURVE",
"208 707 CURVE SMOOTH",
"211 611 OFFCURVE",
"211 514 OFFCURVE",
"208 418 CURVE SMOOTH",
"206 366 OFFCURVE",
"188 345 OFFCURVE",
"141 345 CURVE SMOOTH",
"75 345 LINE",
"75 325 LINE"
);
},
{
closed = 1;
nodes = (
"80 0 LINE",
"80 800 LINE",
"60 800 LINE",
"60 0 LINE"
);
},
{
closed = 1;
nodes = (
"224 0 LINE",
"246 0 LINE",
"171 338 LINE",
"149 338 LINE"
);
}
);
width = 276;
},
{
anchors = (
{
name = bottom;
position = "{250, 0}";
},
{
name = top;
position = "{236, 800}";
}
);
background = {
paths = (
{
closed = 1;
nodes = (
"233 368 LINE SMOOTH",
"383 370 OFFCURVE",
"444 412 OFFCURVE",
"448 522 CURVE SMOOTH",
"449 551 OFFCURVE",
"449 575 OFFCURVE",
"448 605 CURVE SMOOTH",
"443 744 OFFCURVE",
"382 800 OFFCURVE",
"233 800 CURVE SMOOTH",
"157 800 LINE",
"157 668 LINE",
"233 668 LINE SMOOTH",
"275 668 OFFCURVE",
"298 648 OFFCURVE",
"298 613 CURVE SMOOTH",
"298 581 OFFCURVE",
"298 537 OFFCURVE",
"298 505 CURVE SMOOTH",
"298 463 OFFCURVE",
"275 440 OFFCURVE",
"233 440 CURVE SMOOTH",
"153 440 LINE",
"153 367 LINE"
);
},
{
closed = 1;
nodes = (
"451 0 LINE",
"452 69 OFFCURVE",
"450 145 OFFCURVE",
"447 214 CURVE SMOOTH",
"442 327 OFFCURVE",
"383 367 OFFCURVE",
"237 367 CURVE SMOOTH",
"153 367 LINE",
"153 307 LINE",
"231 307 LINE SMOOTH",
"272 307 OFFCURVE",
"295 281 OFFCURVE",
"297 235 CURVE SMOOTH",
"300 161 OFFCURVE",
"302 74 OFFCURVE",
"301 0 CURVE"
);
},
{
closed = 1;
nodes = (
"190 0 LINE",
"190 800 LINE",
"40 800 LINE",
"40 0 LINE"
);
},
{
closed = 1;
nodes = (
"339 347 LINE",
"339 384 LINE",
"153 384 LINE",
"153 347 LINE"
);
}
);
};
layerId = "1DFA7D5B-2E97-4B89-827F-FB43F8066DC1";
paths = (
{
closed = 1;
nodes = (
"233 270 LINE SMOOTH",
"382 270 OFFCURVE",
"443 326 OFFCURVE",
"448 465 CURVE SMOOTH",
"450 521 OFFCURVE",
"450 549 OFFCURVE",
"448 605 CURVE SMOOTH",
"443 744 OFFCURVE",
"382 800 OFFCURVE",
"233 800 CURVE SMOOTH",
"147 800 LINE",
"147 668 LINE",
"233 668 LINE SMOOTH",
"275 668 OFFCURVE",
"296 648 OFFCURVE",
"298 613 CURVE SMOOTH",
"301 564 OFFCURVE",
"301 506 OFFCURVE",
"298 457 CURVE SMOOTH",
"296 422 OFFCURVE",
"275 402 OFFCURVE",
"233 402 CURVE SMOOTH",
"147 402 LINE",
"147 270 LINE"
);
},
{
closed = 1;
nodes = (
"190 0 LINE",
"190 800 LINE",
"40 800 LINE",
"40 0 LINE"
);
},
{
closed = 1;
nodes = (
"300 0 LINE",
"459 0 LINE",
"349 347 LINE",
"198 363 LINE"
);
}
);
width = 479;
}
);
leftKerningGroup = H;
rightKerningGroup = R;
unicode = 0052;
},
{
glyphname = Rdblgrave;
lastChange = "2019-07-16 16:03:01 +0000";
layers = (
{
anchors = (
{
name = bottom;
position = "{147, 0}";
},
{
name = top;
position = "{132, 878}";
}
);
layerId = "3B122060-26E0-4730-9241-82784E6CB359";
paths = (
{
closed = 1;
nodes = (
"141 325 LINE SMOOTH",
"200 325 OFFCURVE",
"225 352 OFFCURVE",
"228 418 CURVE SMOOTH",
"232 502 OFFCURVE",
"232 599 OFFCURVE",
"228 707 CURVE SMOOTH",
"225 773 OFFCURVE",
"200 800 OFFCURVE",
"142 800 CURVE SMOOTH",
"71 800 LINE",
"71 780 LINE",
"142 780 LINE SMOOTH",
"188 780 OFFCURVE",
"206 759 OFFCURVE",
"208 707 CURVE SMOOTH",
"211 611 OFFCURVE",
"211 514 OFFCURVE",
"208 418 CURVE SMOOTH",
"206 366 OFFCURVE",
"188 345 OFFCURVE",
"141 345 CURVE SMOOTH",
"75 345 LINE",
"75 325 LINE"
);
},
{
closed = 1;
nodes = (
"80 0 LINE",
"80 800 LINE",
"60 800 LINE",
"60 0 LINE"
);
},
{
closed = 1;
nodes = (
"224 0 LINE",
"246 0 LINE",
"171 338 LINE",
"149 338 LINE"
);
},
{
closed = 1;
nodes = (
"116 829 LINE",
"116 830 LINE",
"46 878 LINE",
"22 878 LINE",
"22 877 LINE",
"92 829 LINE"
);
},
{
closed = 1;
nodes = (
"176 829 LINE",
"176 830 LINE",
"106 878 LINE",
"82 878 LINE",
"82 877 LINE",
"152 829 LINE"
);
}
);
width = 276;
},
{
components = (
{
name = R;
},
{
name = dblgravecomb.case;
transform = "{1, 0, 0, 1, -12, 200}";
}
);
layerId = "1DFA7D5B-2E97-4B89-827F-FB43F8066DC1";
width = 479;
}
);
leftKerningGroup = H;
rightKerningGroup = R;
unicode = 0210;
},
{
glyphname = S;
lastChange = "2019-06-15 17:01:46 +0000";
layers = (
{
anchors = (
{
name = bottom;
position = "{149, 0}";
},
{
name = top;
position = "{149, 800}";
}
);
layerId = "3B122060-26E0-4730-9241-82784E6CB359";
paths = (
{
closed = 1;
nodes = (
"209 -5 OFFCURVE",
"235 22 OFFCURVE",
"237 88 CURVE SMOOTH",
"239 159 OFFCURVE",
"239 183 OFFCURVE",
"237 266 CURVE SMOOTH",
"235 347 OFFCURVE",
"229 388 OFFCURVE",
"169 402 CURVE SMOOTH",
"132 411 LINE SMOOTH",
"88 422 OFFCURVE",
"83 451 OFFCURVE",
"82 529 CURVE SMOOTH",
"81 590 OFFCURVE",
"80 651 OFFCURVE",
"82 712 CURVE SMOOTH",
"84 764 OFFCURVE",
"101 785 OFFCURVE",
"149 785 CURVE SMOOTH",
"195 785 OFFCURVE",
"212 764 OFFCURVE",
"214 712 CURVE SMOOTH",
"216 653 OFFCURVE",
"216 594 OFFCURVE",
"214 535 CURVE",
"234 535 LINE",
"235 608 OFFCURVE",
"235 671 OFFCURVE",
"234 712 CURVE SMOOTH",
"232 778 OFFCURVE",
"208 805 OFFCURVE",
"150 805 CURVE SMOOTH",
"87 805 OFFCURVE",
"62 779 OFFCURVE",
"62 713 CURVE SMOOTH",
"62 652 OFFCURVE",
"60 580 OFFCURVE",
"61 529 CURVE SMOOTH",
"63 441 OFFCURVE",
"70 404 OFFCURVE",
"132 389 CURVE SMOOTH",
"168 380 LINE SMOOTH",
"210 369 OFFCURVE",
"216 328 OFFCURVE",
"217 266 CURVE SMOOTH",
"218 187 OFFCURVE",
"219 157 OFFCURVE",
"217 88 CURVE SMOOTH",
"215 36 OFFCURVE",
"198 15 OFFCURVE",
"150 15 CURVE SMOOTH",
"101 15 OFFCURVE",
"83 36 OFFCURVE",
"81 88 CURVE SMOOTH",
"79 153 OFFCURVE",
"79 218 OFFCURVE",
"81 283 CURVE",
"61 283 LINE",
"59 204 OFFCURVE",
"59 166 OFFCURVE",
"61 88 CURVE SMOOTH",
"63 22 OFFCURVE",
"89 -5 OFFCURVE",
"151 -5 CURVE SMOOTH"
);
}
);
width = 298;
},
{
anchors = (
{
name = bottom;
position = "{252, 0}";
},
{
name = top;
position = "{252, 800}";
}
);
background = {
paths = (
{
closed = 1;
nodes = (
"265 309 OFFCURVE",
"283 301 OFFCURVE",
"283 269 CURVE SMOOTH",
"283 191 LINE SMOOTH",
"283 158 OFFCURVE",
"265 140 OFFCURVE",
"232 140 CURVE SMOOTH",
"200 140 OFFCURVE",
"180 158 OFFCURVE",
"180 191 CURVE SMOOTH",
"180 300 LINE",
"30 300 LINE",
"29 268 OFFCURVE",
"29 228 OFFCURVE",
"30 196 CURVE SMOOTH",
"34 67 OFFCURVE",
"103 -5 OFFCURVE",
"232 -5 CURVE SMOOTH",
"361 -5 OFFCURVE",
"433 67 OFFCURVE",
"433 196 CURVE SMOOTH",
"434 219 OFFCURVE",
"434 242 OFFCURVE",
"434 265 CURVE SMOOTH",
"430 394 OFFCURVE",
"361 434 OFFCURVE",
"236 465 CURVE SMOOTH",
"232 466 LINE SMOOTH",
"201 474 OFFCURVE",
"181 484 OFFCURVE",
"181 517 CURVE SMOOTH",
"181 610 LINE SMOOTH",
"181 642 OFFCURVE",
"199 660 OFFCURVE",
"232 660 CURVE SMOOTH",
"264 660 OFFCURVE",
"280 642 OFFCURVE",
"280 610 CURVE SMOOTH",
"279 500 LINE",
"429 500 LINE",
"430 533 OFFCURVE",
"431 572 OFFCURVE",
"430 605 CURVE SMOOTH",
"426 734 OFFCURVE",
"361 805 OFFCURVE",
"232 805 CURVE SMOOTH",
"103 805 OFFCURVE",
"34 734 OFFCURVE",
"31 605 CURVE SMOOTH",
"31 580 OFFCURVE",
"30 546 OFFCURVE",
"30 521 CURVE SMOOTH",
"34 392 OFFCURVE",
"110 361 OFFCURVE",
"232 320 CURVE SMOOTH",
"235 319 LINE SMOOTH"
);
}
);
};
layerId = "1DFA7D5B-2E97-4B89-827F-FB43F8066DC1";
paths = (
{
closed = 1;
nodes = (
"401 -10 OFFCURVE",
"457 47 OFFCURVE",
"463 191 CURVE SMOOTH",
"464 214 OFFCURVE",
"465 241 OFFCURVE",
"464 264 CURVE SMOOTH",
"460 367 OFFCURVE",
"425 432 OFFCURVE",
"313 459 CURVE SMOOTH",
"242 476 LINE SMOOTH",
"208 484 OFFCURVE",
"194 508 OFFCURVE",
"191 535 CURVE SMOOTH",
"187 569 OFFCURVE",
"187 604 OFFCURVE",
"191 638 CURVE SMOOTH",
"195 670 OFFCURVE",
"213 688 OFFCURVE",
"253 688 CURVE SMOOTH",
"290 688 OFFCURVE",
"314 670 OFFCURVE",
"315 638 CURVE SMOOTH",
"317 592 OFFCURVE",
"316 546 OFFCURVE",
"314 500 CURVE",
"458 500 LINE",
"460 535 OFFCURVE",
"461 581 OFFCURVE",
"460 610 CURVE SMOOTH",
"454 753 OFFCURVE",
"395 810 OFFCURVE",
"253 810 CURVE SMOOTH",
"102 810 OFFCURVE",
"47 753 OFFCURVE",
"41 610 CURVE SMOOTH",
"40 585 OFFCURVE",
"40 564 OFFCURVE",
"41 535 CURVE SMOOTH",
"44 435 OFFCURVE",
"79 373 OFFCURVE",
"183 346 CURVE SMOOTH",
"265 325 LINE SMOOTH",
"297 317 OFFCURVE",
"310 292 OFFCURVE",
"313 264 CURVE SMOOTH",
"317 230 OFFCURVE",
"317 197 OFFCURVE",
"313 163 CURVE SMOOTH",
"309 130 OFFCURVE",
"292 112 OFFCURVE",
"253 112 CURVE SMOOTH",
"213 112 OFFCURVE",
"193 130 OFFCURVE",
"190 163 CURVE SMOOTH",
"186 202 OFFCURVE",
"187 251 OFFCURVE",
"190 300 CURVE",
"49 300 LINE",
"44 268 OFFCURVE",
"44 223 OFFCURVE",
"45 191 CURVE SMOOTH",
"51 47 OFFCURVE",
"106 -10 OFFCURVE",
"253 -10 CURVE SMOOTH"
);
}
);
width = 504;
}
);
leftKerningGroup = O;
rightKerningGroup = O;
unicode = 0053;
},
{
glyphname = Germandbls;
lastChange = "2019-06-15 17:01:50 +0000";
layers = (
{
layerId = "3B122060-26E0-4730-9241-82784E6CB359";
paths = (
{
closed = 1;
nodes = (
"80 0 LINE",
"80 709 LINE SMOOTH",
"80 763 OFFCURVE",
"98 779 OFFCURVE",
"148 780 CURVE SMOOTH",
"228 781 LINE",
"228 791 LINE",
"137 409 LINE",
"137 390 LINE",
"167 390 LINE SMOOTH",
"214 390 OFFCURVE",
"232 362 OFFCURVE",
"234 291 CURVE SMOOTH",
"236 224 OFFCURVE",
"236 171 OFFCURVE",
"234 103 CURVE SMOOTH",
"232 44 OFFCURVE",
"204 20 OFFCURVE",
"158 20 CURVE SMOOTH",
"99 20 LINE",
"99 0 LINE",
"158 0 LINE SMOOTH",
"219 0 OFFCURVE",
"252 37 OFFCURVE",
"254 103 CURVE SMOOTH",
"256 181 OFFCURVE",
"256 221 OFFCURVE",
"254 291 CURVE SMOOTH",
"252 376 OFFCURVE",
"229 410 OFFCURVE",
"167 410 CURVE SMOOTH",
"157 410 LINE",
"157 400 LINE",
"249 786 LINE",
"249 801 LINE",
"148 800 LINE SMOOTH",
"85 799 OFFCURVE",
"60 774 OFFCURVE",
"60 709 CURVE SMOOTH",
"60 0 LINE"
);
}
);
width = 315;
},
{
layerId = "1DFA7D5B-2E97-4B89-827F-FB43F8066DC1";
paths = (
{
closed = 1;
nodes = (
"190 0 LINE",
"190 628 LINE SMOOTH",
"190 660 OFFCURVE",
"213 678 OFFCURVE",
"251 678 CURVE SMOOTH",
"356 678 LINE",
"332 697 LINE",
"229 452 LINE",
"231 335 LINE",
"295 335 LINE SMOOTH",
"328 335 OFFCURVE",
"340 302 OFFCURVE",
"343 274 CURVE SMOOTH",
"347 240 OFFCURVE",
"347 207 OFFCURVE",
"343 173 CURVE SMOOTH",
"339 140 OFFCURVE",
"322 122 OFFCURVE",
"283 122 CURVE SMOOTH",
"231 122 LINE",
"231 0 LINE",
"283 0 LINE SMOOTH",
"431 0 OFFCURVE",
"487 57 OFFCURVE",
"493 201 CURVE SMOOTH",
"494 224 OFFCURVE",
"495 251 OFFCURVE",
"494 274 CURVE SMOOTH",
"490 377 OFFCURVE",
"455 442 OFFCURVE",
"343 469 CURVE",
"318 469 LINE",
"352 411 LINE",
"480 687 LINE",
"480 800 LINE",
"251 800 LINE SMOOTH",
"104 800 OFFCURVE",
"40 743 OFFCURVE",
"40 600 CURVE SMOOTH",
"40 0 LINE"
);
}
);
width = 534;
}
);
leftKerningGroup = H;
rightKerningGroup = B;
unicode = 1E9E;
},
{
glyphname = Schwa;
lastChange = "2019-06-15 17:01:55 +0000";
layers = (
{
layerId = "3B122060-26E0-4730-9241-82784E6CB359";
paths = (
{
closed = 1;
nodes = (
"212 -6 OFFCURVE",
"236 20 OFFCURVE",
"237 87 CURVE SMOOTH",
"241 317 OFFCURVE",
"241 480 OFFCURVE",
"237 711 CURVE SMOOTH",
"236 777 OFFCURVE",
"212 804 OFFCURVE",
"153 804 CURVE SMOOTH",
"89 804 OFFCURVE",
"63 777 OFFCURVE",
"61 711 CURVE SMOOTH",
"59 641 OFFCURVE",
"60 586 OFFCURVE",
"62 516 CURVE",
"82 516 LINE",
"81 581 OFFCURVE",
"80 646 OFFCURVE",
"81 711 CURVE SMOOTH",
"82 765 OFFCURVE",
"100 784 OFFCURVE",
"153 784 CURVE SMOOTH",
"200 784 OFFCURVE",
"216 765 OFFCURVE",
"217 711 CURVE SMOOTH",
"221 480 OFFCURVE",
"221 317 OFFCURVE",
"217 87 CURVE SMOOTH",
"216 32 OFFCURVE",
"200 14 OFFCURVE",
"154 14 CURVE SMOOTH",
"103 14 OFFCURVE",
"86 32 OFFCURVE",
"85 87 CURVE SMOOTH",
"84 216 OFFCURVE",
"84 289 OFFCURVE",
"85 408 CURVE",
"65 408 LINE",
"64 307 OFFCURVE",
"64 198 OFFCURVE",
"65 87 CURVE SMOOTH",
"66 21 OFFCURVE",
"93 -6 OFFCURVE",
"154 -6 CURVE SMOOTH"
);
},
{
closed = 1;
nodes = (
"225 388 LINE",
"225 408 LINE",
"76 408 LINE",
"76 388 LINE"
);
}
);
width = 300;
},
{
layerId = "1DFA7D5B-2E97-4B89-827F-FB43F8066DC1";
paths = (
{
closed = 1;
nodes = (
"400 -10 OFFCURVE",
"462 67 OFFCURVE",
"464 189 CURVE SMOOTH",
"466 302 OFFCURVE",
"466 498 OFFCURVE",
"464 609 CURVE SMOOTH",
"461 753 OFFCURVE",
"404 810 OFFCURVE",
"253 810 CURVE SMOOTH",
"106 810 OFFCURVE",
"45 753 OFFCURVE",
"41 609 CURVE SMOOTH",
"40 577 OFFCURVE",
"40 532 OFFCURVE",
"41 500 CURVE",
"191 500 LINE",
"190 536 OFFCURVE",
"190 601 OFFCURVE",
"191 637 CURVE SMOOTH",
"192 670 OFFCURVE",
"214 688 OFFCURVE",
"253 688 CURVE SMOOTH",
"291 688 OFFCURVE",
"313 670 OFFCURVE",
"314 637 CURVE SMOOTH",
"319 498 OFFCURVE",
"319 302 OFFCURVE",
"314 162 CURVE SMOOTH",
"313 130 OFFCURVE",
"291 112 OFFCURVE",
"253 112 CURVE SMOOTH",
"217 112 OFFCURVE",
"196 130 OFFCURVE",
"195 162 CURVE SMOOTH",
"192 249 OFFCURVE",
"191 337 OFFCURVE",
"194 444 CURVE",
"45 444 LINE",
"44 341 OFFCURVE",
"44 273 OFFCURVE",
"45 190 CURVE SMOOTH",
"47 47 OFFCURVE",
"109 -10 OFFCURVE",
"253 -10 CURVE SMOOTH"
);
},
{
closed = 1;
nodes = (
"386 341 LINE",
"386 444 LINE",
"82 444 LINE",
"82 341 LINE"
);
}
);
width = 505;
}
);
leftKerningGroup = O;
rightKerningGroup = O;
unicode = 018F;
},
{
glyphname = T;
lastChange = "2019-06-15 19:11:29 +0000";
layers = (
{
anchors = (
{
name = bottom;
position = "{127, 0}";
},
{
name = center;
position = "{127, 400}";
},
{
name = top;
position = "{127, 800}";
}
);
layerId = "3B122060-26E0-4730-9241-82784E6CB359";
paths = (
{
closed = 1;
nodes = (
"137 0 LINE",
"137 800 LINE",
"117 800 LINE",
"117 0 LINE"
);
},
{
closed = 1;
nodes = (
"224 780 LINE",
"224 800 LINE",
"30 800 LINE",
"30 780 LINE"
);
}
);
width = 254;
},
{
anchors = (
{
name = bottom;
position = "{224, 0}";
},
{
name = center;
position = "{224, 400}";
},
{
name = top;
position = "{224, 800}";
}
);
layerId = "1DFA7D5B-2E97-4B89-827F-FB43F8066DC1";
paths = (
{
closed = 1;
nodes = (
"299 0 LINE",
"299 800 LINE",
"149 800 LINE",
"149 0 LINE"
);
},
{
closed = 1;
nodes = (
"427 668 LINE",
"427 800 LINE",
"20 800 LINE",
"20 668 LINE"
);
}
);
width = 447;
}
);
leftKerningGroup = V;
rightKerningGroup = V;
unicode = 0054;
},
{
glyphname = Tbar;
lastChange = "2019-06-15 19:11:29 +0000";
layers = (
{
components = (
{
name = T;
}
);
layerId = "3B122060-26E0-4730-9241-82784E6CB359";
paths = (
{
closed = 1;
nodes = (
"191 344 LINE",
"191 364 LINE",
"71 364 LINE",
"71 344 LINE"
);
}
);
width = 254;
},
{
components = (
{
name = T;
}
);
layerId = "1DFA7D5B-2E97-4B89-827F-FB43F8066DC1";
paths = (
{
closed = 1;
nodes = (
"374 305 LINE",
"374 377 LINE",
"94 377 LINE",
"94 305 LINE"
);
}
);
width = 447;
}
);
leftKerningGroup = V;
leftMetricsKey = T;
rightKerningGroup = V;
rightMetricsKey = T;
unicode = 0166;
},
{
glyphname = U;
lastChange = "2019-06-19 20:12:57 +0000";
layers = (
{
anchors = (
{
name = bottom;
position = "{147, 0}";
},
{
name = ogonekalt;
position = "{208, 0}";
},
{
name = top;
position = "{147, 800}";
},
{
name = topright;
position = "{254, 800}";
}
);
layerId = "3B122060-26E0-4730-9241-82784E6CB359";
paths = (
{
closed = 1;
nodes = (
"207 -5 OFFCURVE",
"232 21 OFFCURVE",
"233 85 CURVE SMOOTH",
"235 324 OFFCURVE",
"235 561 OFFCURVE",
"233 800 CURVE",
"213 800 LINE",
"215 561 OFFCURVE",
"215 324 OFFCURVE",
"213 85 CURVE SMOOTH",
"213 35 OFFCURVE",
"194 15 OFFCURVE",
"147 15 CURVE SMOOTH",
"100 15 OFFCURVE",
"80 35 OFFCURVE",
"80 85 CURVE SMOOTH",
"78 324 OFFCURVE",
"79 561 OFFCURVE",
"81 800 CURVE",
"61 800 LINE",
"59 561 OFFCURVE",
"59 324 OFFCURVE",
"61 85 CURVE SMOOTH",
"62 21 OFFCURVE",
"87 -5 OFFCURVE",
"147 -5 CURVE SMOOTH"
);
}
);
width = 294;
},
{
anchors = (
{
name = bottom;
position = "{253, 0}";
},
{
name = ogonekalt;
position = "{375, 1}";
},
{
name = top;
position = "{253, 800}";
},
{
name = topright;
position = "{484, 800}";
}
);
layerId = "1DFA7D5B-2E97-4B89-827F-FB43F8066DC1";
paths = (
{
closed = 1;
nodes = (
"402 -10 OFFCURVE",
"461 47 OFFCURVE",
"463 191 CURVE SMOOTH",
"466 392 OFFCURVE",
"466 599 OFFCURVE",
"463 800 CURVE",
"313 800 LINE",
"317 599 OFFCURVE",
"315 364 OFFCURVE",
"313 163 CURVE SMOOTH",
"313 130 OFFCURVE",
"292 112 OFFCURVE",
"253 112 CURVE SMOOTH",
"214 112 OFFCURVE",
"192 130 OFFCURVE",
"192 163 CURVE SMOOTH",
"190 364 OFFCURVE",
"188 599 OFFCURVE",
"192 800 CURVE",
"42 800 LINE",
"39 599 OFFCURVE",
"39 392 OFFCURVE",
"42 191 CURVE SMOOTH",
"44 47 OFFCURVE",
"103 -10 OFFCURVE",
"253 -10 CURVE SMOOTH"
);
}
);
width = 505;
}
);
leftKerningGroup = H;
rightKerningGroup = H;
unicode = 0055;
},
{
glyphname = V;
lastChange = "2019-06-19 20:21:25 +0000";
layers = (
{
layerId = "3B122060-26E0-4730-9241-82784E6CB359";
paths = (
{
closed = 1;
nodes = (
"104 0 LINE",
"150 0 LINE",
"224 800 LINE",
"202 800 LINE",
"160 330 LINE",
"133 20 LINE",
"121 20 LINE",
"94 330 LINE",
"52 800 LINE",
"30 800 LINE"
);
}
);
width = 254;
},
{
layerId = "1DFA7D5B-2E97-4B89-827F-FB43F8066DC1";
paths = (
{
closed = 1;
nodes = (
"136 0 LINE",
"378 0 LINE",
"494 800 LINE",
"339 800 LINE",
"280 399 LINE",
"271 132 LINE",
"243 132 LINE",
"234 399 LINE",
"175 800 LINE",
"20 800 LINE"
);
}
);
width = 514;
},
{
associatedMasterId = "3B122060-26E0-4730-9241-82784E6CB359";
layerId = "1685AC11-CCD5-467B-A827-BAAD4C3A9A21";
name = "thin {300, 257}";
paths = (
{
closed = 1;
nodes = (
"109 0 LINE",
"212 0 LINE",
"297 800 LINE",
"241 800 LINE",
"195 347 LINE",
"167 48 LINE",
"155 48 LINE",
"124 347 LINE",
"80 800 LINE",
"25 800 LINE"
);
}
);
width = 322;
}
);
leftKerningGroup = V;
rightKerningGroup = V;
unicode = 0056;
},
{
glyphname = W;
lastChange = "2019-06-19 20:35:39 +0000";
layers = (
{
anchors = (
{
name = bottom;
position = "{191, 0}";
},
{
name = top;
position = "{191, 800}";
}
);
layerId = "3B122060-26E0-4730-9241-82784E6CB359";
paths = (
{
closed = 1;
nodes = (
"128 0 LINE",
"148 284 LINE",
"184 775 LINE",
"196 775 LINE",
"231 284 LINE",
"251 0 LINE",
"297 0 LINE",
"341 800 LINE",
"321 800 LINE",
"308 535 LINE",
"280 20 LINE",
"268 20 LINE",
"231 535 LINE",
"213 795 LINE",
"166 795 LINE",
"147 535 LINE",
"111 20 LINE",
"99 20 LINE",
"73 535 LINE",
"60 800 LINE",
"40 800 LINE",
"82 0 LINE"
);
}
);
width = 381;
},
{
anchors = (
{
name = bottom;
position = "{403, 0}";
},
{
name = top;
position = "{403, 800}";
}
);
background = {
paths = (
{
closed = 1;
nodes = (
"356 0 LINE",
"392 281 LINE",
"401 646 LINE",
"426 646 LINE",
"435 281 LINE",
"471 0 LINE",
"732 0 LINE",
"790 800 LINE",
"627 800 LINE",
"614 572 LINE",
"611 132 LINE",
"581 132 LINE",
"571 572 LINE",
"541 795 LINE",
"286 795 LINE",
"256 572 LINE",
"250 132 LINE",
"220 132 LINE",
"213 572 LINE",
"200 800 LINE",
"37 800 LINE",
"95 0 LINE"
);
}
);
};
layerId = "1DFA7D5B-2E97-4B89-827F-FB43F8066DC1";
paths = (
{
closed = 1;
nodes = (
"341 0 LINE",
"378 223 LINE",
"390 668 LINE",
"416 668 LINE",
"428 223 LINE",
"465 0 LINE",
"710 0 LINE",
"786 800 LINE",
"635 800 LINE",
"609 434 LINE",
"594 132 LINE",
"567 132 LINE",
"569 434 LINE",
"499 795 LINE",
"307 795 LINE",
"237 434 LINE",
"239 132 LINE",
"212 132 LINE",
"197 434 LINE",
"171 800 LINE",
"20 800 LINE",
"96 0 LINE"
);
}
);
width = 806;
},
{
anchors = (
{
name = bottom;
position = "{249, 0}";
},
{
name = top;
position = "{249, 800}";
}
);
associatedMasterId = "3B122060-26E0-4730-9241-82784E6CB359";
layerId = "9CB21A66-2ACA-4E40-9FBB-B11F48D564E9";
name = "thin {300, 257}";
paths = (
{
closed = 1;
nodes = (
"171 0 LINE",
"202 269 LINE",
"246 748 LINE",
"254 748 LINE",
"298 269 LINE",
"329 0 LINE",
"420 0 LINE",
"471 800 LINE",
"418 800 LINE",
"402 510 LINE",
"379 48 LINE",
"365 48 LINE",
"324 510 LINE",
"295 795 LINE",
"205 795 LINE",
"176 510 LINE",
"135 48 LINE",
"121 48 LINE",
"98 510 LINE",
"82 800 LINE",
"29 800 LINE",
"80 0 LINE"
);
}
);
width = 500;
}
);
leftKerningGroup = W;
rightKerningGroup = W;
unicode = 0057;
},
{
glyphname = X;
lastChange = "2019-06-15 19:11:36 +0000";
layers = (
{
background = {
paths = (
{
closed = 1;
nodes = (
"42 0 LINE",
"73 193 LINE",
"105 400 LINE",
"117 400 LINE",
"151 198 LINE",
"182 0 LINE",
"204 0 LINE",
"133 424 LINE",
"133 399 LINE",
"199 800 LINE",
"177 800 LINE",
"152 636 LINE",
"117 423 LINE",
"105 423 LINE",
"72 633 LINE",
"47 800 LINE",
"25 800 LINE",
"89 399 LINE",
"89 424 LINE",
"20 0 LINE"
);
}
);
};
layerId = "3B122060-26E0-4730-9241-82784E6CB359";
paths = (
{
closed = 1;
nodes = (
"49 0 LINE",
"86 198 LINE",
"123 392 LINE",
"129 392 LINE",
"166 198 LINE",
"203 0 LINE",
"222 0 LINE",
"145 403 LINE",
"217 800 LINE",
"198 800 LINE",
"164 610 LINE",
"129 412 LINE",
"123 412 LINE",
"88 610 LINE",
"54 800 LINE",
"35 800 LINE",
"107 403 LINE",
"30 0 LINE"
);
}
);
width = 252;
},
{
background = {
paths = (
{
closed = 1;
nodes = (
"153 0 LINE",
"200 197 LINE",
"214 351 LINE",
"241 351 LINE",
"257 197 LINE",
"305 0 LINE",
"456 0 LINE",
"337 448 LINE",
"334 363 LINE",
"452 800 LINE",
"296 800 LINE",
"258 614 LINE",
"244 463 LINE",
"216 463 LINE",
"201 614 LINE",
"163 800 LINE",
"7 800 LINE",
"125 393 LINE",
"120 466 LINE",
"0 0 LINE"
);
}
);
};
guideLines = (
{
position = "{158, 405}";
},
{
angle = 90;
position = "{158, 405}";
}
);
layerId = "1DFA7D5B-2E97-4B89-827F-FB43F8066DC1";
paths = (
{
closed = 1;
nodes = (
"167 0 LINE",
"222 197 LINE",
"235 344 LINE",
"255 344 LINE",
"268 197 LINE",
"321 0 LINE",
"468 0 LINE",
"349 411 LINE",
"465 800 LINE",
"318 800 LINE",
"268 613 LINE",
"255 476 LINE",
"235 476 LINE",
"222 613 LINE",
"170 800 LINE",
"23 800 LINE",
"145 416 LINE",
"20 0 LINE"
);
}
);
width = 488;
}
);
leftKerningGroup = X;
rightKerningGroup = X;
unicode = 0058;
},
{
glyphname = Y;
lastChange = "2019-06-19 20:36:38 +0000";
layers = (
{
anchors = (
{
name = bottom;
position = "{127, 0}";
},
{
name = top;
position = "{127, 800}";
},
{
name = topleft;
position = "{30, 800}";
}
);
layerId = "3B122060-26E0-4730-9241-82784E6CB359";
paths = (
{
closed = 1;
nodes = (
"135 206 LINE",
"224 800 LINE",
"202 800 LINE",
"166 556 LINE",
"133 331 LINE",
"121 331 LINE",
"88 556 LINE",
"52 800 LINE",
"30 800 LINE",
"119 206 LINE"
);
},
{
closed = 1;
nodes = (
"137 0 LINE",
"137 322 LINE",
"117 322 LINE",
"117 0 LINE"
);
}
);
width = 254;
},
{
anchors = (
{
name = bottom;
position = "{246, 0}";
},
{
name = top;
position = "{240, 800}";
},
{
name = topleft;
position = "{20, 800}";
}
);
layerId = "1DFA7D5B-2E97-4B89-827F-FB43F8066DC1";
paths = (
{
closed = 1;
nodes = (
"320 191 LINE",
"470 800 LINE",
"317 800 LINE",
"274 606 LINE",
"259 371 LINE",
"231 371 LINE",
"216 606 LINE",
"173 800 LINE",
"20 800 LINE",
"170 191 LINE"
);
},
{
closed = 1;
nodes = (
"320 0 LINE",
"320 292 LINE",
"170 292 LINE",
"170 0 LINE"
);
}
);
width = 490;
},
{
anchors = (
{
name = bottom;
position = "{161, 0}";
},
{
name = top;
position = "{159, 800}";
},
{
name = topleft;
position = "{32, 800}";
}
);
associatedMasterId = "3B122060-26E0-4730-9241-82784E6CB359";
layerId = "7B67555E-40E1-4850-827E-BDB90D284124";
name = "thin {300, 257}";
paths = (
{
closed = 1;
nodes = (
"185 202 LINE",
"293 800 LINE",
"238 800 LINE",
"202 569 LINE",
"165 341 LINE",
"156 341 LINE",
"119 569 LINE",
"83 800 LINE",
"29 800 LINE",
"136 202 LINE"
);
},
{
closed = 1;
nodes = (
"187 0 LINE",
"187 315 LINE",
"134 315 LINE",
"134 0 LINE"
);
}
);
width = 322;
}
);
leftKerningGroup = V;
rightKerningGroup = V;
unicode = 0059;
},
{
glyphname = Z;
lastChange = "2019-06-15 19:11:46 +0000";
layers = (
{
anchors = (
{
name = bottom;
position = "{130, 0}";
},
{
name = center;
position = "{130, 400}";
},
{
name = top;
position = "{130, 800}";
}
);
layerId = "3B122060-26E0-4730-9241-82784E6CB359";
paths = (
{
closed = 1;
nodes = (
"209 0 LINE",
"209 20 LINE",
"50 20 LINE",
"50 10 LINE",
"229 785 LINE",
"229 800 LINE",
"41 800 LINE",
"41 780 LINE",
"208 780 LINE",
"208 790 LINE",
"30 15 LINE",
"30 0 LINE"
);
}
);
width = 259;
},
{
anchors = (
{
name = bottom;
position = "{209, 0}";
},
{
name = center;
position = "{209, 400}";
},
{
name = top;
position = "{209, 800}";
}
);
layerId = "1DFA7D5B-2E97-4B89-827F-FB43F8066DC1";
paths = (
{
closed = 1;
nodes = (
"388 0 LINE",
"388 132 LINE",
"130 132 LINE",
"158 103 LINE",
"403 672 LINE",
"403 800 LINE",
"32 800 LINE",
"32 668 LINE",
"287 668 LINE",
"255 697 LINE",
"20 125 LINE",
"20 0 LINE"
);
}
);
width = 423;
}
);
leftKerningGroup = Z;
rightKerningGroup = Z;
unicode = 005A;
},
{
glyphname = R.ss01;
lastChange = "2019-06-15 17:48:03 +0000";
layers = (
{
anchors = (
{
name = bottom;
position = "{147, 0}";
},
{
name = top;
position = "{140, 800}";
}
);
layerId = "3B122060-26E0-4730-9241-82784E6CB359";
paths = (
{
closed = 1;
nodes = (
"139 378 LINE SMOOTH",
"199 378 OFFCURVE",
"224 400 OFFCURVE",
"226 462 CURVE SMOOTH",
"229 533 OFFCURVE",
"229 603 OFFCURVE",
"226 707 CURVE SMOOTH",
"224 773 OFFCURVE",
"199 800 OFFCURVE",
"140 800 CURVE SMOOTH",
"71 800 LINE",
"71 780 LINE",
"140 780 LINE SMOOTH",
"185 780 OFFCURVE",
"204 759 OFFCURVE",
"206 707 CURVE SMOOTH",
"209 619 OFFCURVE",
"209 548 OFFCURVE",
"206 460 CURVE SMOOTH",
"204 408 OFFCURVE",
"185 387 OFFCURVE",
"139 387 CURVE SMOOTH",
"75 387 LINE",
"75 378 LINE"
);
},
{
closed = 1;
nodes = (
"229 0 LINE",
"230 69 OFFCURVE",
"229 153 OFFCURVE",
"228 294 CURVE SMOOTH",
"227 355 OFFCURVE",
"202 377 OFFCURVE",
"142 377 CURVE SMOOTH",
"71 377 LINE",
"71 367 LINE",
"142 367 LINE SMOOTH",
"188 367 OFFCURVE",
"207 346 OFFCURVE",
"208 294 CURVE SMOOTH",
"210 200 OFFCURVE",
"210 116 OFFCURVE",
"209 0 CURVE"
);
},
{
closed = 1;
nodes = (
"80 0 LINE",
"80 800 LINE",
"60 800 LINE",
"60 0 LINE"
);
},
{
closed = 1;
nodes = (
"185 370 LINE",
"185 387 LINE",
"75 387 LINE",
"75 370 LINE"
);
}
);
width = 289;
},
{
anchors = (
{
name = bottom;
position = "{236, 0}";
},
{
name = top;
position = "{236, 800}";
}
);
background = {
paths = (
{
closed = 1;
nodes = (
"265 655 OFFCURVE",
"288 635 OFFCURVE",
"288 600 CURVE SMOOTH",
"288 505 LINE SMOOTH",
"288 463 OFFCURVE",
"265 440 OFFCURVE",
"223 440 CURVE SMOOTH",
"133 440 LINE",
"133 363 LINE",
"223 364 LINE SMOOTH",
"373 366 OFFCURVE",
"434 411 OFFCURVE",
"438 533 CURVE SMOOTH",
"439 562 OFFCURVE",
"439 575 OFFCURVE",
"438 605 CURVE SMOOTH",
"433 744 OFFCURVE",
"371 800 OFFCURVE",
"223 800 CURVE SMOOTH",
"137 800 LINE",
"137 655 LINE",
"223 655 LINE SMOOTH"
);
},
{
closed = 1;
nodes = (
"180 0 LINE",
"180 800 LINE",
"30 800 LINE",
"30 0 LINE"
);
},
{
closed = 1;
nodes = (
"462 9 LINE",
"449 27 OFFCURVE",
"438 65 OFFCURVE",
"437 88 CURVE SMOOTH",
"434 215 LINE SMOOTH",
"431 343 OFFCURVE",
"372 394 OFFCURVE",
"227 394 CURVE SMOOTH",
"133 394 LINE",
"133 310 LINE",
"221 310 LINE SMOOTH",
"262 310 OFFCURVE",
"283 284 OFFCURVE",
"284 238 CURVE SMOOTH",
"287 88 LINE SMOOTH",
"288 53 OFFCURVE",
"301 22 OFFCURVE",
"323 0 CURVE",
"462 0 LINE"
);
},
{
closed = 1;
nodes = (
"307 367 LINE",
"339 367 LINE",
"339 391 LINE",
"307 391 LINE"
);
}
);
};
layerId = "1DFA7D5B-2E97-4B89-827F-FB43F8066DC1";
paths = (
{
closed = 1;
nodes = (
"233 368 LINE SMOOTH",
"383 370 OFFCURVE",
"444 412 OFFCURVE",
"448 522 CURVE SMOOTH",
"449 551 OFFCURVE",
"449 575 OFFCURVE",
"448 605 CURVE SMOOTH",
"443 744 OFFCURVE",
"382 800 OFFCURVE",
"233 800 CURVE SMOOTH",
"157 800 LINE",
"157 668 LINE",
"233 668 LINE SMOOTH",
"275 668 OFFCURVE",
"298 648 OFFCURVE",
"298 613 CURVE SMOOTH",
"298 581 OFFCURVE",
"298 537 OFFCURVE",
"298 505 CURVE SMOOTH",
"298 463 OFFCURVE",
"275 440 OFFCURVE",
"233 440 CURVE SMOOTH",
"153 440 LINE",
"153 367 LINE"
);
},
{
closed = 1;
nodes = (
"451 0 LINE",
"452 69 OFFCURVE",
"450 145 OFFCURVE",
"447 214 CURVE SMOOTH",
"442 327 OFFCURVE",
"383 367 OFFCURVE",
"237 367 CURVE SMOOTH",
"153 367 LINE",
"153 307 LINE",
"231 307 LINE SMOOTH",
"272 307 OFFCURVE",
"295 281 OFFCURVE",
"297 235 CURVE SMOOTH",
"300 161 OFFCURVE",
"302 74 OFFCURVE",
"301 0 CURVE"
);
},
{
closed = 1;
nodes = (
"190 0 LINE",
"190 800 LINE",
"40 800 LINE",
"40 0 LINE"
);
},
{
closed = 1;
nodes = (
"339 347 LINE",
"339 384 LINE",
"153 384 LINE",
"153 347 LINE"
);
}
);
width = 491;
}
);
leftKerningGroup = H;
rightKerningGroup = R;
},
{
glyphname = a;
lastChange = "2019-06-19 20:37:49 +0000";
layers = (
{
anchors = (
{
name = bottom;
position = "{132, 0}";
},
{
name = ogonek;
position = "{203, 0}";
},
{
name = top;
position = "{132, 600}";
}
);
background = {
paths = (
{
closed = 0;
nodes = (
"28 179 LINE SMOOTH",
"28 259 OFFCURVE",
"48 293 OFFCURVE",
"96 311 CURVE SMOOTH"
);
},
{
closed = 0;
nodes = (
"98 289 LINE SMOOTH",
"54 272 OFFCURVE",
"51 221 OFFCURVE",
"49 179 CURVE SMOOTH"
);
},
{
closed = 0;
nodes = (
"30 85 LINE SMOOTH",
"31 21 OFFCURVE",
"55 -5 OFFCURVE",
"118 -5 CURVE SMOOTH"
);
},
{
closed = 0;
nodes = (
"118 15 LINE SMOOTH",
"70 15 OFFCURVE",
"51 30 OFFCURVE",
"50 85 CURVE SMOOTH"
);
}
);
};
layerId = "3B122060-26E0-4730-9241-82784E6CB359";
paths = (
{
closed = 1;
nodes = (
"213 0 LINE",
"215 43 OFFCURVE",
"214 467 OFFCURVE",
"213 514 CURVE SMOOTH",
"211 578 OFFCURVE",
"192 605 OFFCURVE",
"132 605 CURVE SMOOTH",
"74 605 OFFCURVE",
"47 579 OFFCURVE",
"45 514 CURVE SMOOTH",
"44 485 OFFCURVE",
"45 446 OFFCURVE",
"46 410 CURVE",
"65 410 LINE",
"64 446 OFFCURVE",
"64 485 OFFCURVE",
"65 514 CURVE SMOOTH",
"67 570 OFFCURVE",
"90 585 OFFCURVE",
"130 585 CURVE SMOOTH",
"176 585 OFFCURVE",
"192 565 OFFCURVE",
"193 514 CURVE SMOOTH",
"195 390 OFFCURVE",
"196 182 OFFCURVE",
"193 0 CURVE"
);
},
{
closed = 1;
nodes = (
"158 -5 OFFCURVE",
"177 17 OFFCURVE",
"187 47 CURVE",
"200 47 LINE",
"200 86 LINE",
"194 86 LINE",
"181 38 OFFCURVE",
"158 15 OFFCURVE",
"119 15 CURVE SMOOTH",
"86 15 OFFCURVE",
"64 42 OFFCURVE",
"61 90 CURVE SMOOTH",
"60 111 OFFCURVE",
"60 134 OFFCURVE",
"60 145 CURVE SMOOTH",
"62 198 OFFCURVE",
"70 245 OFFCURVE",
"111 280 CURVE SMOOTH",
"155 317 OFFCURVE",
"179 330 OFFCURVE",
"205 343 CURVE",
"205 367 LINE",
"173 349 OFFCURVE",
"138 326 OFFCURVE",
"111 305 CURVE SMOOTH",
"55 261 OFFCURVE",
"42 209 OFFCURVE",
"40 145 CURVE SMOOTH",
"39 126 OFFCURVE",
"40 110 OFFCURVE",
"41 90 CURVE SMOOTH",
"44 32 OFFCURVE",
"68 -5 OFFCURVE",
"119 -5 CURVE SMOOTH"
);
}
);
width = 274;
},
{
anchors = (
{
name = bottom;
position = "{225, 0}";
},
{
name = ogonek;
position = "{346, 10}";
},
{
name = top;
position = "{235, 600}";
}
);
background = {
paths = (
{
closed = 1;
nodes = (
"419 0 LINE",
"420 131 OFFCURVE",
"422 333 OFFCURVE",
"417 412 CURVE SMOOTH",
"409 555 OFFCURVE",
"362 610 OFFCURVE",
"211 610 CURVE SMOOTH",
"157 610 OFFCURVE",
"62 603 OFFCURVE",
"46 600 CURVE",
"46 487 LINE",
"84 487 OFFCURVE",
"175 487 OFFCURVE",
"213 487 CURVE SMOOTH",
"252 487 OFFCURVE",
"267 469 OFFCURVE",
"268 437 CURVE SMOOTH",
"273 281 OFFCURVE",
"270 146 OFFCURVE",
"269 0 CURVE"
);
},
{
closed = 1;
nodes = (
"197 -8 OFFCURVE",
"219 11 OFFCURVE",
"250 65 CURVE",
"280 65 LINE",
"280 142 LINE",
"270 142 LINE",
"258 116 OFFCURVE",
"232 99 OFFCURVE",
"205 99 CURVE SMOOTH",
"174 99 OFFCURVE",
"159 116 OFFCURVE",
"159 148 CURVE SMOOTH",
"159 164 OFFCURVE",
"159 221 OFFCURVE",
"159 232 CURVE SMOOTH",
"159 259 OFFCURVE",
"162 282 OFFCURVE",
"200 292 CURVE SMOOTH",
"231 300 OFFCURVE",
"283 301 OFFCURVE",
"295 301 CURVE",
"291 396 LINE",
"246 394 OFFCURVE",
"204 390 OFFCURVE",
"161 382 CURVE SMOOTH",
"46 360 OFFCURVE",
"9 310 OFFCURVE",
"9 210 CURVE SMOOTH",
"9 196 OFFCURVE",
"9 173 OFFCURVE",
"9 159 CURVE SMOOTH",
"9 48 OFFCURVE",
"63 -8 OFFCURVE",
"147 -8 CURVE SMOOTH"
);
}
);
};
layerId = "1DFA7D5B-2E97-4B89-827F-FB43F8066DC1";
paths = (
{
closed = 1;
nodes = (
"429 0 LINE",
"430 131 OFFCURVE",
"433 333 OFFCURVE",
"430 412 CURVE SMOOTH",
"425 552 OFFCURVE",
"385 610 OFFCURVE",
"236 610 CURVE SMOOTH",
"93 610 OFFCURVE",
"45 557 OFFCURVE",
"40 436 CURVE SMOOTH",
"39 414 OFFCURVE",
"40 376 OFFCURVE",
"41 369 CURVE",
"187 369 LINE",
"186 387 OFFCURVE",
"186 439 OFFCURVE",
"187 453 CURVE SMOOTH",
"189 485 OFFCURVE",
"199 498 OFFCURVE",
"232 498 CURVE SMOOTH",
"271 498 OFFCURVE",
"280 480 OFFCURVE",
"281 448 CURVE SMOOTH",
"286 294 OFFCURVE",
"280 146 OFFCURVE",
"279 0 CURVE"
);
},
{
closed = 1;
nodes = (
"210 -8 OFFCURVE",
"236 14 OFFCURVE",
"260 65 CURVE",
"290 65 LINE",
"290 142 LINE",
"281 142 LINE",
"269 116 OFFCURVE",
"247 99 OFFCURVE",
"220 99 CURVE SMOOTH",
"189 99 OFFCURVE",
"172 116 OFFCURVE",
"169 148 CURVE SMOOTH",
"168 158 OFFCURVE",
"168 167 OFFCURVE",
"169 180 CURVE SMOOTH",
"171 212 OFFCURVE",
"180 239 OFFCURVE",
"215 255 CURVE SMOOTH",
"239 266 OFFCURVE",
"272 274 OFFCURVE",
"305 281 CURVE",
"301 376 LINE",
"256 365 OFFCURVE",
"219 356 OFFCURVE",
"176 341 CURVE SMOOTH",
"68 302 OFFCURVE",
"28 262 OFFCURVE",
"21 180 CURVE SMOOTH",
"20 168 OFFCURVE",
"20 148 OFFCURVE",
"21 136 CURVE SMOOTH",
"30 30 OFFCURVE",
"68 -8 OFFCURVE",
"157 -8 CURVE SMOOTH"
);
}
);
width = 471;
},
{
anchors = (
{
name = bottom;
position = "{155, 0}";
},
{
name = ogonek;
position = "{239, 3}";
},
{
name = top;
position = "{158, 600}";
}
);
associatedMasterId = "3B122060-26E0-4730-9241-82784E6CB359";
background = {
paths = (
{
closed = 0;
nodes = (
"28 179 LINE SMOOTH",
"28 259 OFFCURVE",
"48 293 OFFCURVE",
"96 311 CURVE SMOOTH"
);
},
{
closed = 0;
nodes = (
"98 289 LINE SMOOTH",
"54 272 OFFCURVE",
"51 221 OFFCURVE",
"49 179 CURVE SMOOTH"
);
},
{
closed = 0;
nodes = (
"30 85 LINE SMOOTH",
"31 21 OFFCURVE",
"55 -5 OFFCURVE",
"118 -5 CURVE SMOOTH"
);
},
{
closed = 0;
nodes = (
"118 15 LINE SMOOTH",
"70 15 OFFCURVE",
"51 30 OFFCURVE",
"50 85 CURVE SMOOTH"
);
}
);
};
layerId = "CAF95C7A-B58C-44B8-B44D-A732883B496B";
name = "thin {300, 257}";
paths = (
{
closed = 1;
nodes = (
"267 0 LINE",
"269 65 OFFCURVE",
"269 434 OFFCURVE",
"267 489 CURVE SMOOTH",
"265 572 OFFCURVE",
"240 606 OFFCURVE",
"158 606 CURVE SMOOTH",
"79 606 OFFCURVE",
"47 574 OFFCURVE",
"44 495 CURVE SMOOTH",
"43 467 OFFCURVE",
"44 429 OFFCURVE",
"45 400 CURVE",
"96 400 LINE",
"95 431 OFFCURVE",
"95 474 OFFCURVE",
"96 499 CURVE SMOOTH",
"98 549 OFFCURVE",
"117 563 OFFCURVE",
"156 563 CURVE SMOOTH",
"200 563 OFFCURVE",
"214 544 OFFCURVE",
"215 498 CURVE SMOOTH",
"218 366 OFFCURVE",
"217 173 OFFCURVE",
"215 0 CURVE"
);
},
{
closed = 1;
nodes = (
"171 -6 OFFCURVE",
"192 16 OFFCURVE",
"205 52 CURVE",
"223 52 LINE",
"223 100 LINE",
"216 100 LINE",
"203 58 OFFCURVE",
"180 36 OFFCURVE",
"144 36 CURVE SMOOTH",
"112 36 OFFCURVE",
"91 61 OFFCURVE",
"88 105 CURVE SMOOTH",
"87 123 OFFCURVE",
"87 142 OFFCURVE",
"87 154 CURVE SMOOTH",
"89 202 OFFCURVE",
"98 237 OFFCURVE",
"137 267 CURVE SMOOTH",
"176 297 OFFCURVE",
"202 309 OFFCURVE",
"230 321 CURVE",
"229 369 LINE",
"194 353 OFFCURVE",
"158 334 OFFCURVE",
"127 314 CURVE SMOOTH",
"58 271 OFFCURVE",
"39 222 OFFCURVE",
"35 154 CURVE SMOOTH",
"34 137 OFFCURVE",
"35 120 OFFCURVE",
"36 102 CURVE SMOOTH",
"41 32 OFFCURVE",
"68 -6 OFFCURVE",
"129 -6 CURVE SMOOTH"
);
}
);
width = 323;
}
);
leftKerningGroup = a;
rightKerningGroup = n;
unicode = 0061;
},
{
glyphname = ae;
lastChange = "2019-06-19 20:38:55 +0000";
layers = (
{
anchors = (
{
name = top;
position = "{212, 600}";
}
);
background = {
paths = (
{
closed = 1;
nodes = (
"158 -5 OFFCURVE",
"177 17 OFFCURVE",
"187 47 CURVE",
"200 47 LINE",
"200 86 LINE",
"195 86 LINE",
"182 38 OFFCURVE",
"158 15 OFFCURVE",
"119 15 CURVE SMOOTH",
"86 15 OFFCURVE",
"64 42 OFFCURVE",
"61 90 CURVE SMOOTH",
"60 111 OFFCURVE",
"60 134 OFFCURVE",
"60 145 CURVE SMOOTH",
"62 198 OFFCURVE",
"70 245 OFFCURVE",
"111 280 CURVE SMOOTH",
"155 317 OFFCURVE",
"179 330 OFFCURVE",
"205 343 CURVE",
"205 367 LINE",
"173 349 OFFCURVE",
"138 326 OFFCURVE",
"111 305 CURVE SMOOTH",
"55 261 OFFCURVE",
"42 209 OFFCURVE",
"40 145 CURVE SMOOTH",
"39 126 OFFCURVE",
"40 110 OFFCURVE",
"41 90 CURVE SMOOTH",
"44 32 OFFCURVE",
"68 -5 OFFCURVE",
"119 -5 CURVE SMOOTH"
);
}
);
};
layerId = "3B122060-26E0-4730-9241-82784E6CB359";
paths = (
{
closed = 1;
nodes = (
"158 -5 OFFCURVE",
"184 17 OFFCURVE",
"194 47 CURVE",
"207 47 LINE",
"200 86 LINE",
"196 113 LINE",
"196 42 OFFCURVE",
"158 15 OFFCURVE",
"119 15 CURVE SMOOTH",
"86 15 OFFCURVE",
"64 42 OFFCURVE",
"61 90 CURVE SMOOTH",
"60 111 OFFCURVE",
"60 134 OFFCURVE",
"60 145 CURVE SMOOTH",
"61 183 OFFCURVE",
"80 218 OFFCURVE",
"111 245 CURVE SMOOTH",
"155 282 OFFCURVE",
"179 294 OFFCURVE",
"205 307 CURVE",
"205 331 LINE",
"173 313 OFFCURVE",
"138 291 OFFCURVE",
"111 270 CURVE SMOOTH",
"67 235 OFFCURVE",
"41 191 OFFCURVE",
"40 145 CURVE SMOOTH",
"39 126 OFFCURVE",
"40 110 OFFCURVE",
"41 90 CURVE SMOOTH",
"44 32 OFFCURVE",
"68 -5 OFFCURVE",
"119 -5 CURVE SMOOTH"
);
},
{
closed = 1;
nodes = (
"65 410 LINE",
"64 446 OFFCURVE",
"64 485 OFFCURVE",
"65 514 CURVE SMOOTH",
"67 570 OFFCURVE",
"90 585 OFFCURVE",
"130 585 CURVE SMOOTH",
"176 585 OFFCURVE",
"195 565 OFFCURVE",
"195 514 CURVE SMOOTH",
"194 352 LINE",
"214 353 LINE",
"215 514 LINE SMOOTH",
"215 578 OFFCURVE",
"192 605 OFFCURVE",
"132 605 CURVE SMOOTH",
"74 605 OFFCURVE",
"47 579 OFFCURVE",
"45 514 CURVE SMOOTH",
"44 485 OFFCURVE",
"45 446 OFFCURVE",
"46 410 CURVE"
);
},
{
closed = 1;
nodes = (
"371 305 LINE",
"375 415 OFFCURVE",
"373 478 OFFCURVE",
"372 514 CURVE SMOOTH",
"369 579 OFFCURVE",
"345 605 OFFCURVE",
"286 605 CURVE SMOOTH",
"223 605 OFFCURVE",
"195 579 OFFCURVE",
"195 514 CURVE SMOOTH",
"194 371 OFFCURVE",
"194 228 OFFCURVE",
"195 85 CURVE SMOOTH",
"195 21 OFFCURVE",
"221 -5 OFFCURVE",
"286 -5 CURVE SMOOTH",
"350 -5 OFFCURVE",
"369 21 OFFCURVE",
"372 85 CURVE SMOOTH",
"373 114 OFFCURVE",
"373 148 OFFCURVE",
"371 191 CURVE",
"351 191 LINE",
"353 148 OFFCURVE",
"353 115 OFFCURVE",
"352 85 CURVE SMOOTH",
"350 30 OFFCURVE",
"332 15 OFFCURVE",
"284 15 CURVE SMOOTH",
"236 15 OFFCURVE",
"215 30 OFFCURVE",
"215 85 CURVE SMOOTH",
"214 256 OFFCURVE",
"214 345 OFFCURVE",
"215 514 CURVE SMOOTH",
"215 565 OFFCURVE",
"237 585 OFFCURVE",
"286 585 CURVE SMOOTH",
"331 585 OFFCURVE",
"349 565 OFFCURVE",
"352 514 CURVE SMOOTH",
"354 473 OFFCURVE",
"354 403 OFFCURVE",
"351 305 CURVE"
);
},
{
closed = 1;
nodes = (
"205 305 LINE",
"362 305 LINE",
"362 325 LINE",
"205 325 LINE"
);
}
);
width = 423;
},
{
anchors = (
{
name = top;
position = "{359, 600}";
}
);
background = {
paths = (
{
closed = 1;
nodes = (
"210 -8 OFFCURVE",
"239 14 OFFCURVE",
"263 65 CURVE",
"293 65 LINE",
"293 142 LINE",
"284 142 LINE",
"272 116 OFFCURVE",
"247 99 OFFCURVE",
"220 99 CURVE SMOOTH",
"189 99 OFFCURVE",
"172 116 OFFCURVE",
"169 148 CURVE SMOOTH",
"168 158 OFFCURVE",
"168 167 OFFCURVE",
"169 180 CURVE SMOOTH",
"171 212 OFFCURVE",
"180 239 OFFCURVE",
"215 255 CURVE SMOOTH",
"239 266 OFFCURVE",
"272 274 OFFCURVE",
"305 281 CURVE",
"301 376 LINE",
"256 365 OFFCURVE",
"219 356 OFFCURVE",
"176 341 CURVE SMOOTH",
"68 302 OFFCURVE",
"28 262 OFFCURVE",
"21 180 CURVE SMOOTH",
"20 168 OFFCURVE",
"20 148 OFFCURVE",
"21 136 CURVE SMOOTH",
"30 30 OFFCURVE",
"68 -8 OFFCURVE",
"157 -8 CURVE SMOOTH"
);
}
);
};
layerId = "1DFA7D5B-2E97-4B89-827F-FB43F8066DC1";
paths = (
{
closed = 1;
nodes = (
"211 -8 OFFCURVE",
"268 13 OFFCURVE",
"293 65 CURVE",
"323 65 LINE",
"293 142 LINE",
"281 222 LINE",
"281 110 OFFCURVE",
"247 99 OFFCURVE",
"220 99 CURVE SMOOTH",
"189 99 OFFCURVE",
"172 116 OFFCURVE",
"169 148 CURVE SMOOTH",
"168 158 OFFCURVE",
"168 168 OFFCURVE",
"169 180 CURVE SMOOTH",
"172 215 OFFCURVE",
"180 239 OFFCURVE",
"215 255 CURVE SMOOTH",
"243 268 OFFCURVE",
"284 276 OFFCURVE",
"305 281 CURVE",
"301 376 LINE",
"256 365 OFFCURVE",
"219 356 OFFCURVE",
"176 341 CURVE SMOOTH",
"72 304 OFFCURVE",
"28 262 OFFCURVE",
"21 180 CURVE SMOOTH",
"20 168 OFFCURVE",
"20 148 OFFCURVE",
"21 136 CURVE SMOOTH",
"28 30 OFFCURVE",
"73 -8 OFFCURVE",
"152 -8 CURVE SMOOTH"
);
},
{
closed = 1;
nodes = (
"187 369 LINE",
"186 387 OFFCURVE",
"186 439 OFFCURVE",
"187 453 CURVE SMOOTH",
"189 485 OFFCURVE",
"199 498 OFFCURVE",
"232 498 CURVE SMOOTH",
"271 498 OFFCURVE",
"280 480 OFFCURVE",
"280 448 CURVE SMOOTH",
"280 324 LINE",
"428 324 LINE",
"428 412 LINE SMOOTH",
"428 552 OFFCURVE",
"385 610 OFFCURVE",
"236 610 CURVE SMOOTH",
"93 610 OFFCURVE",
"45 557 OFFCURVE",
"40 436 CURVE SMOOTH",
"39 414 OFFCURVE",
"40 376 OFFCURVE",
"41 369 CURVE"
);
},
{
closed = 1;
nodes = (
"676 275 LINE",
"679 331 OFFCURVE",
"678 414 OFFCURVE",
"677 436 CURVE SMOOTH",
"671 560 OFFCURVE",
"615 610 OFFCURVE",
"481 610 CURVE SMOOTH",
"347 610 OFFCURVE",
"284 559 OFFCURVE",
"281 430 CURVE SMOOTH",
"280 380 OFFCURVE",
"280 213 OFFCURVE",
"281 168 CURVE SMOOTH",
"284 41 OFFCURVE",
"346 -10 OFFCURVE",
"483 -10 CURVE SMOOTH",
"615 -10 OFFCURVE",
"671 41 OFFCURVE",
"677 168 CURVE SMOOTH",
"678 190 OFFCURVE",
"677 226 OFFCURVE",
"676 233 CURVE",
"530 233 LINE",
"531 198 OFFCURVE",
"531 168 OFFCURVE",
"530 152 CURVE SMOOTH",
"528 116 OFFCURVE",
"515 102 OFFCURVE",
"483 102 CURVE SMOOTH",
"447 102 OFFCURVE",
"428 116 OFFCURVE",
"428 152 CURVE SMOOTH",
"428 245 OFFCURVE",
"428 358 OFFCURVE",
"428 453 CURVE SMOOTH",
"428 485 OFFCURVE",
"446 498 OFFCURVE",
"481 498 CURVE SMOOTH",
"514 498 OFFCURVE",
"528 485 OFFCURVE",
"530 453 CURVE SMOOTH",
"531 439 OFFCURVE",
"531 293 OFFCURVE",
"530 275 CURVE"
);
},
{
closed = 1;
nodes = (
"357 275 LINE",
"654 275 LINE",
"661 378 LINE",
"357 378 LINE"
);
}
);
width = 708;
},
{
anchors = (
{
name = top;
position = "{249, 600}";
}
);
associatedMasterId = "3B122060-26E0-4730-9241-82784E6CB359";
background = {
paths = (
{
closed = 1;
nodes = (
"158 -5 OFFCURVE",
"177 17 OFFCURVE",
"187 47 CURVE",
"200 47 LINE",
"200 86 LINE",
"195 86 LINE",
"182 38 OFFCURVE",
"158 15 OFFCURVE",
"119 15 CURVE SMOOTH",
"86 15 OFFCURVE",
"64 42 OFFCURVE",
"61 90 CURVE SMOOTH",
"60 111 OFFCURVE",
"60 134 OFFCURVE",
"60 145 CURVE SMOOTH",
"62 198 OFFCURVE",
"70 245 OFFCURVE",
"111 280 CURVE SMOOTH",
"155 317 OFFCURVE",
"179 330 OFFCURVE",
"205 343 CURVE",
"205 367 LINE",
"173 349 OFFCURVE",
"138 326 OFFCURVE",
"111 305 CURVE SMOOTH",
"55 261 OFFCURVE",
"42 209 OFFCURVE",
"40 145 CURVE SMOOTH",
"39 126 OFFCURVE",
"40 110 OFFCURVE",
"41 90 CURVE SMOOTH",
"44 32 OFFCURVE",
"68 -5 OFFCURVE",
"119 -5 CURVE SMOOTH"
);
}
);
};
layerId = "17F5104E-0747-44CB-8636-96B3B436D951";
name = "thin {300, 257}";
paths = (
{
closed = 1;
nodes = (
"171 -6 OFFCURVE",
"205 16 OFFCURVE",
"219 52 CURVE",
"236 52 LINE",
"223 100 LINE",
"217 140 LINE",
"217 59 OFFCURVE",
"180 36 OFFCURVE",
"144 36 CURVE SMOOTH",
"112 36 OFFCURVE",
"91 61 OFFCURVE",
"88 105 CURVE SMOOTH",
"87 123 OFFCURVE",
"87 143 OFFCURVE",
"87 154 CURVE SMOOTH",
"89 191 OFFCURVE",
"105 213 OFFCURVE",
"137 238 CURVE SMOOTH",
"177 269 OFFCURVE",
"205 283 OFFCURVE",
"230 294 CURVE",
"229 345 LINE",
"194 329 OFFCURVE",
"158 307 OFFCURVE",
"127 288 CURVE SMOOTH",
"68 252 OFFCURVE",
"38 209 OFFCURVE",
"35 154 CURVE SMOOTH",
"34 137 OFFCURVE",
"35 120 OFFCURVE",
"36 102 CURVE SMOOTH",
"40 32 OFFCURVE",
"69 -6 OFFCURVE",
"127 -6 CURVE SMOOTH"
);
},
{
closed = 1;
nodes = (
"96 400 LINE",
"95 431 OFFCURVE",
"95 474 OFFCURVE",
"96 499 CURVE SMOOTH",
"98 549 OFFCURVE",
"117 563 OFFCURVE",
"156 563 CURVE SMOOTH",
"200 563 OFFCURVE",
"216 544 OFFCURVE",
"216 498 CURVE SMOOTH",
"216 345 LINE",
"268 346 LINE",
"268 489 LINE SMOOTH",
"268 572 OFFCURVE",
"240 606 OFFCURVE",
"158 606 CURVE SMOOTH",
"79 606 OFFCURVE",
"47 574 OFFCURVE",
"44 495 CURVE SMOOTH",
"43 467 OFFCURVE",
"44 429 OFFCURVE",
"45 400 CURVE"
);
},
{
closed = 1;
nodes = (
"447 298 LINE",
"451 394 OFFCURVE",
"449 462 OFFCURVE",
"448 495 CURVE SMOOTH",
"445 574 OFFCURVE",
"413 606 OFFCURVE",
"335 606 CURVE SMOOTH",
"254 606 OFFCURVE",
"217 574 OFFCURVE",
"217 493 CURVE SMOOTH",
"216 373 OFFCURVE",
"216 224 OFFCURVE",
"217 106 CURVE SMOOTH",
"217 26 OFFCURVE",
"252 -6 OFFCURVE",
"335 -6 CURVE SMOOTH",
"416 -6 OFFCURVE",
"445 26 OFFCURVE",
"448 106 CURVE SMOOTH",
"449 133 OFFCURVE",
"449 168 OFFCURVE",
"447 202 CURVE",
"396 202 LINE",
"398 161 OFFCURVE",
"398 128 OFFCURVE",
"397 102 CURVE SMOOTH",
"395 52 OFFCURVE",
"378 37 OFFCURVE",
"334 37 CURVE SMOOTH",
"289 37 OFFCURVE",
"268 52 OFFCURVE",
"268 102 CURVE SMOOTH",
"268 253 OFFCURVE",
"268 348 OFFCURVE",
"268 499 CURVE SMOOTH",
"268 545 OFFCURVE",
"289 563 OFFCURVE",
"335 563 CURVE SMOOTH",
"377 563 OFFCURVE",
"394 545 OFFCURVE",
"397 499 CURVE SMOOTH",
"398 465 OFFCURVE",
"398 376 OFFCURVE",
"396 298 CURVE"
);
},
{
closed = 1;
nodes = (
"243 298 LINE",
"435 298 LINE",
"437 341 LINE",
"243 341 LINE"
);
}
);
width = 494;
}
);
leftKerningGroup = a;
leftMetricsKey = a;
rightKerningGroup = e;
rightMetricsKey = e;
unicode = 00E6;
},
{
glyphname = b;
lastChange = "2019-06-15 19:12:11 +0000";
layers = (
{
background = {
paths = (
{
closed = 0;
nodes = (
"59 85 LINE SMOOTH",
"60 21 OFFCURVE",
"79 -5 OFFCURVE",
"142 -5 CURVE SMOOTH",
"205 -5 OFFCURVE",
"224 21 OFFCURVE",
"225 85 CURVE SMOOTH"
);
},
{
closed = 0;
nodes = (
"205 85 LINE SMOOTH",
"204 30 OFFCURVE",
"190 15 OFFCURVE",
"142 15 CURVE SMOOTH",
"94 15 OFFCURVE",
"80 30 OFFCURVE",
"79 85 CURVE SMOOTH"
);
}
);
};
layerId = "3B122060-26E0-4730-9241-82784E6CB359";
paths = (
{
closed = 1;
nodes = (
"213 -5 OFFCURVE",
"234 21 OFFCURVE",
"235 86 CURVE SMOOTH",
"237 229 OFFCURVE",
"237 352 OFFCURVE",
"235 514 CURVE SMOOTH",
"234 579 OFFCURVE",
"213 605 OFFCURVE",
"161 605 CURVE SMOOTH",
"124 605 OFFCURVE",
"103 590 OFFCURVE",
"88 553 CURVE",
"75 553 LINE",
"75 514 LINE",
"80 514 LINE",
"94 565 OFFCURVE",
"117 585 OFFCURVE",
"161 585 CURVE SMOOTH",
"199 585 OFFCURVE",
"214 565 OFFCURVE",
"215 514 CURVE SMOOTH",
"218 349 OFFCURVE",
"218 227 OFFCURVE",
"215 86 CURVE SMOOTH",
"214 35 OFFCURVE",
"199 15 OFFCURVE",
"161 15 CURVE SMOOTH",
"117 15 OFFCURVE",
"94 35 OFFCURVE",
"80 86 CURVE",
"75 86 LINE",
"75 47 LINE",
"88 47 LINE",
"103 10 OFFCURVE",
"124 -5 OFFCURVE",
"161 -5 CURVE SMOOTH"
);
},
{
closed = 1;
nodes = (
"80 0 LINE",
"80 800 LINE",
"60 800 LINE",
"60 0 LINE"
);
}
);
width = 286;
},
{
layerId = "1DFA7D5B-2E97-4B89-827F-FB43F8066DC1";
paths = (
{
closed = 1;
nodes = (
"403 -10 OFFCURVE",
"455 38 OFFCURVE",
"461 159 CURVE SMOOTH",
"464 222 OFFCURVE",
"464 378 OFFCURVE",
"461 441 CURVE SMOOTH",
"455 562 OFFCURVE",
"413 610 OFFCURVE",
"330 610 CURVE SMOOTH",
"267 610 OFFCURVE",
"244 583 OFFCURVE",
"216 535 CURVE",
"180 535 LINE",
"180 458 LINE",
"190 458 LINE",
"202 484 OFFCURVE",
"238 501 OFFCURVE",
"265 501 CURVE SMOOTH",
"296 501 OFFCURVE",
"309 486 OFFCURVE",
"311 454 CURVE SMOOTH",
"316 367 OFFCURVE",
"316 224 OFFCURVE",
"311 146 CURVE SMOOTH",
"309 114 OFFCURVE",
"296 99 OFFCURVE",
"265 99 CURVE SMOOTH",
"238 99 OFFCURVE",
"202 116 OFFCURVE",
"190 142 CURVE",
"180 142 LINE",
"180 65 LINE",
"206 65 LINE",
"234 17 OFFCURVE",
"257 -10 OFFCURVE",
"320 -10 CURVE SMOOTH"
);
},
{
closed = 1;
nodes = (
"190 0 LINE",
"190 800 LINE",
"40 800 LINE",
"40 0 LINE"
);
}
);
width = 493;
}
);
leftKerningGroup = h;
rightKerningGroup = o;
unicode = 0062;
},
{
glyphname = c;
lastChange = "2019-06-15 17:02:57 +0000";
layers = (
{
anchors = (
{
name = bottom;
position = "{150, 0}";
},
{
name = top;
position = "{150, 600}";
}
);
layerId = "3B122060-26E0-4730-9241-82784E6CB359";
paths = (
{
closed = 1;
nodes = (
"237 410 LINE",
"239 453 OFFCURVE",
"238 486 OFFCURVE",
"238 514 CURVE SMOOTH",
"238 579 OFFCURVE",
"213 605 OFFCURVE",
"150 605 CURVE SMOOTH",
"87 605 OFFCURVE",
"63 579 OFFCURVE",
"62 514 CURVE SMOOTH",
"59 371 OFFCURVE",
"59 228 OFFCURVE",
"62 85 CURVE SMOOTH",
"63 21 OFFCURVE",
"87 -5 OFFCURVE",
"150 -5 CURVE SMOOTH",
"213 -5 OFFCURVE",
"236 21 OFFCURVE",
"238 85 CURVE SMOOTH",
"239 114 OFFCURVE",
"239 148 OFFCURVE",
"237 191 CURVE",
"217 191 LINE",
"219 149 OFFCURVE",
"218 116 OFFCURVE",
"218 85 CURVE SMOOTH",
"218 30 OFFCURVE",
"198 15 OFFCURVE",
"150 15 CURVE SMOOTH",
"102 15 OFFCURVE",
"83 30 OFFCURVE",
"82 85 CURVE SMOOTH",
"79 254 OFFCURVE",
"79 345 OFFCURVE",
"82 514 CURVE SMOOTH",
"83 570 OFFCURVE",
"102 585 OFFCURVE",
"150 585 CURVE SMOOTH",
"198 585 OFFCURVE",
"218 570 OFFCURVE",
"218 514 CURVE SMOOTH",
"218 484 OFFCURVE",
"219 452 OFFCURVE",
"217 410 CURVE"
);
}
);
width = 289;
},
{
anchors = (
{
name = bottom;
position = "{234, 0}";
},
{
name = top;
position = "{242, 600}";
}
);
layerId = "1DFA7D5B-2E97-4B89-827F-FB43F8066DC1";
paths = (
{
closed = 1;
nodes = (
"437 369 LINE",
"438 376 OFFCURVE",
"439 414 OFFCURVE",
"438 436 CURVE SMOOTH",
"432 560 OFFCURVE",
"376 610 OFFCURVE",
"242 610 CURVE SMOOTH",
"108 610 OFFCURVE",
"51 559 OFFCURVE",
"42 430 CURVE SMOOTH",
"39 380 OFFCURVE",
"39 213 OFFCURVE",
"42 168 CURVE SMOOTH",
"49 41 OFFCURVE",
"107 -10 OFFCURVE",
"244 -10 CURVE SMOOTH",
"376 -10 OFFCURVE",
"432 41 OFFCURVE",
"438 168 CURVE SMOOTH",
"439 190 OFFCURVE",
"438 226 OFFCURVE",
"437 233 CURVE",
"291 233 LINE",
"292 198 OFFCURVE",
"292 168 OFFCURVE",
"291 152 CURVE SMOOTH",
"289 116 OFFCURVE",
"276 102 OFFCURVE",
"244 102 CURVE SMOOTH",
"208 102 OFFCURVE",
"193 116 OFFCURVE",
"192 152 CURVE SMOOTH",
"189 245 OFFCURVE",
"189 358 OFFCURVE",
"192 453 CURVE SMOOTH",
"193 485 OFFCURVE",
"207 498 OFFCURVE",
"242 498 CURVE SMOOTH",
"275 498 OFFCURVE",
"289 485 OFFCURVE",
"291 453 CURVE SMOOTH",
"292 439 OFFCURVE",
"292 387 OFFCURVE",
"291 369 CURVE"
);
}
);
width = 468;
}
);
leftKerningGroup = o;
rightKerningGroup = c;
unicode = 0063;
},
{
glyphname = d;
lastChange = "2019-06-15 17:03:03 +0000";
layers = (
{
anchors = (
{
name = bottom;
position = "{138, 0}";
},
{
name = center;
position = "{138, 300}";
},
{
name = top;
position = "{123, 600}";
},
{
name = topright;
position = "{246, 600}";
}
);
layerId = "3B122060-26E0-4730-9241-82784E6CB359";
paths = (
{
closed = 1;
nodes = (
"162 -5 OFFCURVE",
"183 13 OFFCURVE",
"198 47 CURVE",
"211 47 LINE",
"211 86 LINE",
"206 86 LINE",
"192 35 OFFCURVE",
"169 15 OFFCURVE",
"125 15 CURVE SMOOTH",
"87 15 OFFCURVE",
"72 35 OFFCURVE",
"71 86 CURVE SMOOTH",
"69 227 OFFCURVE",
"69 349 OFFCURVE",
"71 514 CURVE SMOOTH",
"72 565 OFFCURVE",
"88 585 OFFCURVE",
"126 585 CURVE SMOOTH",
"169 585 OFFCURVE",
"192 565 OFFCURVE",
"206 514 CURVE",
"214 514 LINE",
"214 553 LINE",
"199 553 LINE",
"184 590 OFFCURVE",
"163 605 OFFCURVE",
"126 605 CURVE SMOOTH",
"74 605 OFFCURVE",
"52 579 OFFCURVE",
"51 514 CURVE SMOOTH",
"49 352 OFFCURVE",
"49 229 OFFCURVE",
"51 86 CURVE SMOOTH",
"52 21 OFFCURVE",
"73 -5 OFFCURVE",
"125 -5 CURVE SMOOTH"
);
},
{
closed = 1;
nodes = (
"226 0 LINE",
"226 800 LINE",
"206 800 LINE",
"206 0 LINE"
);
}
);
width = 286;
},
{
anchors = (
{
name = bottom;
position = "{242, 0}";
},
{
name = center;
position = "{242, 300}";
},
{
name = top;
position = "{163, 600}";
},
{
name = topright;
position = "{473, 600}";
}
);
layerId = "1DFA7D5B-2E97-4B89-827F-FB43F8066DC1";
paths = (
{
closed = 1;
nodes = (
"229 -10 OFFCURVE",
"254 17 OFFCURVE",
"282 65 CURVE",
"313 65 LINE",
"313 142 LINE",
"303 142 LINE",
"291 116 OFFCURVE",
"255 99 OFFCURVE",
"228 99 CURVE SMOOTH",
"197 99 OFFCURVE",
"184 114 OFFCURVE",
"182 146 CURVE SMOOTH",
"177 224 OFFCURVE",
"177 367 OFFCURVE",
"182 454 CURVE SMOOTH",
"184 486 OFFCURVE",
"197 501 OFFCURVE",
"228 501 CURVE SMOOTH",
"255 501 OFFCURVE",
"291 484 OFFCURVE",
"303 458 CURVE",
"313 458 LINE",
"313 535 LINE",
"282 535 LINE",
"254 583 OFFCURVE",
"231 610 OFFCURVE",
"168 610 CURVE SMOOTH",
"85 610 OFFCURVE",
"38 562 OFFCURVE",
"32 441 CURVE SMOOTH",
"29 378 OFFCURVE",
"29 222 OFFCURVE",
"32 159 CURVE SMOOTH",
"38 38 OFFCURVE",
"83 -10 OFFCURVE",
"166 -10 CURVE SMOOTH"
);
},
{
closed = 1;
nodes = (
"453 0 LINE",
"453 800 LINE",
"303 800 LINE",
"303 0 LINE"
);
}
);
width = 493;
}
);
leftKerningGroup = o;
rightKerningGroup = l;
unicode = 0064;
},
{
glyphname = eth;
lastChange = "2019-06-15 17:03:10 +0000";
layers = (
{
layerId = "3B122060-26E0-4730-9241-82784E6CB359";
paths = (
{
closed = 1;
nodes = (
"203 -6 OFFCURVE",
"227 21 OFFCURVE",
"228 87 CURVE SMOOTH",
"230 182 OFFCURVE",
"231 292 OFFCURVE",
"231 416 CURVE SMOOTH",
"231 651 OFFCURVE",
"172 726 OFFCURVE",
"80 804 CURVE",
"70 786 LINE",
"153 715 OFFCURVE",
"211 638 OFFCURVE",
"211 429 CURVE SMOOTH",
"211 307 OFFCURVE",
"210 186 OFFCURVE",
"208 87 CURVE SMOOTH",
"207 35 OFFCURVE",
"189 14 OFFCURVE",
"144 14 CURVE SMOOTH",
"94 14 OFFCURVE",
"73 35 OFFCURVE",
"72 87 CURVE SMOOTH",
"70 189 OFFCURVE",
"70 301 OFFCURVE",
"72 463 CURVE SMOOTH",
"73 515 OFFCURVE",
"90 536 OFFCURVE",
"132 536 CURVE SMOOTH",
"176 536 OFFCURVE",
"210 510 OFFCURVE",
"211 463 CURVE",
"224 460 LINE",
"224 479 OFFCURVE",
"211 494 OFFCURVE",
"204 508 CURVE",
"204 534 OFFCURVE",
"168 556 OFFCURVE",
"132 556 CURVE SMOOTH",
"77 556 OFFCURVE",
"53 529 OFFCURVE",
"52 463 CURVE SMOOTH",
"49 301 OFFCURVE",
"49 189 OFFCURVE",
"52 87 CURVE SMOOTH",
"54 21 OFFCURVE",
"80 -6 OFFCURVE",
"144 -6 CURVE SMOOTH"
);
},
{
closed = 1;
nodes = (
"216 500 LINE",
"216 523 LINE",
"199 523 LINE",
"205 498 LINE"
);
},
{
closed = 1;
nodes = (
"168 650 LINE",
"160 668 LINE",
"76 627 LINE",
"85 609 LINE"
);
},
{
closed = 1;
nodes = (
"252 691 LINE",
"243 709 LINE",
"160 668 LINE",
"168 650 LINE"
);
}
);
width = 292;
},
{
layerId = "1DFA7D5B-2E97-4B89-827F-FB43F8066DC1";
paths = (
{
closed = 1;
nodes = (
"404 -10 OFFCURVE",
"458 47 OFFCURVE",
"465 191 CURVE SMOOTH",
"467 230 OFFCURVE",
"467 308 OFFCURVE",
"465 348 CURVE SMOOTH",
"455 552 OFFCURVE",
"390 705 OFFCURVE",
"212 810 CURVE",
"131 683 LINE",
"252 617 OFFCURVE",
"313 499 OFFCURVE",
"315 376 CURVE SMOOTH",
"316 314 OFFCURVE",
"318 226 OFFCURVE",
"315 163 CURVE SMOOTH",
"313 130 OFFCURVE",
"292 112 OFFCURVE",
"254 112 CURVE SMOOTH",
"215 112 OFFCURVE",
"193 130 OFFCURVE",
"192 163 CURVE SMOOTH",
"190 226 OFFCURVE",
"190 314 OFFCURVE",
"191 359 CURVE SMOOTH",
"192 392 OFFCURVE",
"215 410 OFFCURVE",
"252 410 CURVE SMOOTH",
"293 410 OFFCURVE",
"312 392 OFFCURVE",
"316 360 CURVE",
"325 420 LINE",
"327 431 OFFCURVE",
"306 452 OFFCURVE",
"295 452 CURVE",
"286 497 OFFCURVE",
"247 531 OFFCURVE",
"182 531 CURVE SMOOTH",
"104 531 OFFCURVE",
"43 464 OFFCURVE",
"41 362 CURVE SMOOTH",
"40 308 OFFCURVE",
"40 231 OFFCURVE",
"42 191 CURVE SMOOTH",
"49 47 OFFCURVE",
"108 -10 OFFCURVE",
"255 -10 CURVE SMOOTH"
);
},
{
closed = 1;
nodes = (
"330 443 LINE",
"330 476 LINE",
"283 476 LINE",
"283 443 LINE"
);
},
{
closed = 1;
nodes = (
"288 614 LINE",
"258 659 LINE",
"162 611 LINE",
"186 563 LINE"
);
},
{
closed = 1;
nodes = (
"428 695 LINE",
"404 743 LINE",
"307 695 LINE",
"336 649 LINE"
);
}
);
width = 496;
}
);
leftKerningGroup = d;
rightKerningGroup = d;
unicode = 00F0;
},
{
glyphname = dcroat;
lastChange = "2019-06-15 16:19:00 +0000";
layers = (
{
components = (
{
name = d;
}
);
layerId = "3B122060-26E0-4730-9241-82784E6CB359";
paths = (
{
closed = 1;
nodes = (
"134 683 LINE",
"254 683 LINE",
"254 703 LINE",
"134 703 LINE"
);
}
);
width = 259;
},
{
components = (
{
name = d;
}
);
layerId = "1DFA7D5B-2E97-4B89-827F-FB43F8066DC1";
paths = (
{
closed = 1;
nodes = (
"224 667 LINE",
"502 667 LINE",
"502 739 LINE",
"224 739 LINE"
);
}
);
width = 507;
}
);
leftKerningGroup = o;
rightKerningGroup = l;
unicode = 0111;
},
{
glyphname = e;
lastChange = "2019-06-19 23:41:50 +0000";
layers = (
{
anchors = (
{
name = bottom;
position = "{150, 0}";
},
{
name = ogonekalt;
position = "{212, 0}";
},
{
name = top;
position = "{150, 600}";
}
);
layerId = "3B122060-26E0-4730-9241-82784E6CB359";
paths = (
{
closed = 1;
nodes = (
"237 292 LINE",
"241 402 OFFCURVE",
"239 478 OFFCURVE",
"238 514 CURVE SMOOTH",
"235 579 OFFCURVE",
"211 605 OFFCURVE",
"152 605 CURVE SMOOTH",
"89 605 OFFCURVE",
"63 579 OFFCURVE",
"62 514 CURVE SMOOTH",
"59 371 OFFCURVE",
"59 228 OFFCURVE",
"62 85 CURVE SMOOTH",
"63 21 OFFCURVE",
"87 -5 OFFCURVE",
"152 -5 CURVE SMOOTH",
"216 -5 OFFCURVE",
"235 21 OFFCURVE",
"238 85 CURVE SMOOTH",
"239 114 OFFCURVE",
"239 148 OFFCURVE",
"237 191 CURVE",
"217 191 LINE",
"219 148 OFFCURVE",
"219 115 OFFCURVE",
"218 85 CURVE SMOOTH",
"216 30 OFFCURVE",
"198 15 OFFCURVE",
"150 15 CURVE SMOOTH",
"102 15 OFFCURVE",
"83 30 OFFCURVE",
"82 85 CURVE SMOOTH",
"79 256 OFFCURVE",
"79 345 OFFCURVE",
"82 514 CURVE SMOOTH",
"83 565 OFFCURVE",
"103 585 OFFCURVE",
"152 585 CURVE SMOOTH",
"197 585 OFFCURVE",
"215 565 OFFCURVE",
"218 514 CURVE SMOOTH",
"220 473 OFFCURVE",
"220 390 OFFCURVE",
"217 292 CURVE"
);
},
{
closed = 1;
nodes = (
"71 292 LINE",
"228 292 LINE",
"228 312 LINE",
"71 312 LINE"
);
}
);
width = 289;
},
{
anchors = (
{
name = bottom;
position = "{240, 0}";
},
{
name = ogonekalt;
position = "{388, 10}";
},
{
name = top;
position = "{240, 600}";
}
);
layerId = "1DFA7D5B-2E97-4B89-827F-FB43F8066DC1";
paths = (
{
closed = 1;
nodes = (
"437 275 LINE",
"440 331 OFFCURVE",
"439 414 OFFCURVE",
"438 436 CURVE SMOOTH",
"432 560 OFFCURVE",
"376 610 OFFCURVE",
"242 610 CURVE SMOOTH",
"108 610 OFFCURVE",
"51 559 OFFCURVE",
"42 430 CURVE SMOOTH",
"39 380 OFFCURVE",
"39 213 OFFCURVE",
"42 168 CURVE SMOOTH",
"49 41 OFFCURVE",
"107 -10 OFFCURVE",
"244 -10 CURVE SMOOTH",
"376 -10 OFFCURVE",
"432 41 OFFCURVE",
"438 168 CURVE SMOOTH",
"439 190 OFFCURVE",
"438 226 OFFCURVE",
"437 233 CURVE",
"291 233 LINE",
"292 198 OFFCURVE",
"292 168 OFFCURVE",
"291 152 CURVE SMOOTH",
"289 116 OFFCURVE",
"276 102 OFFCURVE",
"244 102 CURVE SMOOTH",
"208 102 OFFCURVE",
"193 116 OFFCURVE",
"192 152 CURVE SMOOTH",
"189 245 OFFCURVE",
"189 358 OFFCURVE",
"192 453 CURVE SMOOTH",
"193 485 OFFCURVE",
"207 498 OFFCURVE",
"242 498 CURVE SMOOTH",
"275 498 OFFCURVE",
"289 485 OFFCURVE",
"291 453 CURVE SMOOTH",
"292 439 OFFCURVE",
"292 293 OFFCURVE",
"291 275 CURVE"
);
},
{
closed = 1;
nodes = (
"118 275 LINE",
"415 275 LINE",
"422 378 LINE",
"118 378 LINE"
);
}
);
width = 469;
},
{
anchors = (
{
name = bottom;
position = "{173, 0}";
},
{
name = ogonekalt;
position = "{256, 3}";
},
{
name = top;
position = "{173, 600}";
}
);
associatedMasterId = "3B122060-26E0-4730-9241-82784E6CB359";
layerId = "DCCA0E13-0B4C-4F85-BAB4-EF76870D1D96";
name = "thin {300, 257}";
paths = (
{
closed = 1;
nodes = (
"287 288 LINE",
"291 384 OFFCURVE",
"289 462 OFFCURVE",
"288 495 CURVE SMOOTH",
"284 574 OFFCURVE",
"252 606 OFFCURVE",
"175 606 CURVE SMOOTH",
"94 606 OFFCURVE",
"60 574 OFFCURVE",
"57 493 CURVE SMOOTH",
"54 373 OFFCURVE",
"54 224 OFFCURVE",
"57 106 CURVE SMOOTH",
"60 26 OFFCURVE",
"92 -6 OFFCURVE",
"175 -6 CURVE SMOOTH",
"256 -6 OFFCURVE",
"284 26 OFFCURVE",
"288 106 CURVE SMOOTH",
"289 133 OFFCURVE",
"289 168 OFFCURVE",
"287 202 CURVE",
"236 202 LINE",
"237 161 OFFCURVE",
"237 128 OFFCURVE",
"236 102 CURVE SMOOTH",
"234 52 OFFCURVE",
"218 37 OFFCURVE",
"174 37 CURVE SMOOTH",
"129 37 OFFCURVE",
"111 52 OFFCURVE",
"110 102 CURVE SMOOTH",
"107 253 OFFCURVE",
"107 348 OFFCURVE",
"110 499 CURVE SMOOTH",
"111 545 OFFCURVE",
"129 563 OFFCURVE",
"175 563 CURVE SMOOTH",
"217 563 OFFCURVE",
"234 545 OFFCURVE",
"236 499 CURVE SMOOTH",
"238 465 OFFCURVE",
"238 366 OFFCURVE",
"236 288 CURVE"
);
},
{
closed = 1;
nodes = (
"83 288 LINE",
"275 288 LINE",
"277 331 LINE",
"83 331 LINE"
);
}
);
width = 334;
}
);
leftKerningGroup = o;
rightKerningGroup = e;
unicode = 0065;
},
{
glyphname = f;
lastChange = "2019-06-15 16:19:00 +0000";
layers = (
{
layerId = "3B122060-26E0-4730-9241-82784E6CB359";
paths = (
{
closed = 1;
nodes = (
"83 806 OFFCURVE",
"63 780 OFFCURVE",
"62 716 CURVE SMOOTH",
"60 569 OFFCURVE",
"61 412 OFFCURVE",
"62 251 CURVE SMOOTH",
"63 -5 LINE",
"83 -5 LINE",
"82 251 LINE SMOOTH",
"81 412 OFFCURVE",
"79 569 OFFCURVE",
"82 716 CURVE SMOOTH",
"83 771 OFFCURVE",
"97 786 OFFCURVE",
"145 786 CURVE SMOOTH",
"166 786 OFFCURVE",
"182 784 OFFCURVE",
"196 781 CURVE",
"196 800 LINE",
"183 803 OFFCURVE",
"158 806 OFFCURVE",
"143 806 CURVE SMOOTH"
);
},
{
closed = 1;
nodes = (
"186 580 LINE",
"186 600 LINE",
"30 600 LINE",
"30 580 LINE"
);
}
);
width = 206;
},
{
layerId = "1DFA7D5B-2E97-4B89-827F-FB43F8066DC1";
paths = (
{
closed = 1;
nodes = (
"164 811 OFFCURVE",
"103 760 OFFCURVE",
"97 633 CURVE SMOOTH",
"94 570 OFFCURVE",
"95 401 OFFCURVE",
"95 340 CURVE SMOOTH",
"98 0 LINE",
"248 0 LINE",
"245 317 LINE SMOOTH",
"244 401 OFFCURVE",
"244 570 OFFCURVE",
"247 645 CURVE SMOOTH",
"248 677 OFFCURVE",
"268 695 OFFCURVE",
"302 695 CURVE SMOOTH",
"321 695 OFFCURVE",
"356 695 OFFCURVE",
"375 695 CURVE",
"375 804 LINE",
"351 808 OFFCURVE",
"325 811 OFFCURVE",
"302 811 CURVE SMOOTH"
);
},
{
closed = 1;
nodes = (
"350 487 LINE",
"350 600 LINE",
"30 600 LINE",
"30 487 LINE"
);
}
);
width = 385;
}
);
leftKerningGroup = f;
rightKerningGroup = f;
unicode = 0066;
},
{
glyphname = g;
lastChange = "2019-06-19 23:41:47 +0000";
layers = (
{
anchors = (
{
name = bottom;
position = "{166, -200}";
},
{
name = top;
position = "{158, 600}";
}
);
background = {
paths = (
{
closed = 1;
nodes = (
"203 -200 OFFCURVE",
"235 -174 OFFCURVE",
"236 -110 CURVE SMOOTH",
"238 20 OFFCURVE",
"238 -64 OFFCURVE",
"236 344 CURVE SMOOTH",
"235 600 LINE",
"215 600 LINE",
"216 344 LINE SMOOTH",
"217 182 OFFCURVE",
"219 54 OFFCURVE",
"216 -110 CURVE SMOOTH",
"215 -165 OFFCURVE",
"189 -180 OFFCURVE",
"141 -180 CURVE SMOOTH",
"105 -180 OFFCURVE",
"80 -176 OFFCURVE",
"66 -172 CURVE",
"66 -191 LINE",
"79 -195 OFFCURVE",
"105 -200 OFFCURVE",
"143 -200 CURVE SMOOTH"
);
},
{
closed = 1;
nodes = (
"171 -5 OFFCURVE",
"195 10 OFFCURVE",
"210 47 CURVE",
"223 47 LINE",
"223 86 LINE",
"218 86 LINE",
"204 35 OFFCURVE",
"178 15 OFFCURVE",
"134 15 CURVE SMOOTH",
"96 15 OFFCURVE",
"81 35 OFFCURVE",
"80 86 CURVE SMOOTH",
"78 227 OFFCURVE",
"78 349 OFFCURVE",
"80 514 CURVE SMOOTH",
"81 565 OFFCURVE",
"97 585 OFFCURVE",
"135 585 CURVE SMOOTH",
"178 585 OFFCURVE",
"201 565 OFFCURVE",
"215 514 CURVE",
"223 514 LINE",
"223 553 LINE",
"208 553 LINE",
"193 590 OFFCURVE",
"172 605 OFFCURVE",
"135 605 CURVE SMOOTH",
"83 605 OFFCURVE",
"61 579 OFFCURVE",
"60 514 CURVE SMOOTH",
"58 302 OFFCURVE",
"58 179 OFFCURVE",
"60 86 CURVE SMOOTH",
"61 21 OFFCURVE",
"82 -5 OFFCURVE",
"134 -5 CURVE SMOOTH"
);
}
);
};
layerId = "3B122060-26E0-4730-9241-82784E6CB359";
paths = (
{
closed = 1;
nodes = (
"221 130 OFFCURVE",
"244 156 OFFCURVE",
"246 220 CURVE SMOOTH",
"249 333 OFFCURVE",
"249 381 OFFCURVE",
"246 514 CURVE SMOOTH",
"245 579 OFFCURVE",
"223 605 OFFCURVE",
"158 605 CURVE SMOOTH",
"95 605 OFFCURVE",
"71 579 OFFCURVE",
"70 514 CURVE SMOOTH",
"67 381 OFFCURVE",
"67 333 OFFCURVE",
"70 220 CURVE SMOOTH",
"72 156 OFFCURVE",
"95 130 OFFCURVE",
"158 130 CURVE SMOOTH"
);
},
{
closed = 1;
nodes = (
"110 -121 OFFCURVE",
"70 -116 OFFCURVE",
"70 -61 CURVE SMOOTH",
"70 -57 OFFCURVE",
"70 -52 OFFCURVE",
"70 -46 CURVE SMOOTH",
"70 11 OFFCURVE",
"109 19 OFFCURVE",
"158 15 CURVE SMOOTH",
"207 11 OFFCURVE",
"246 11 OFFCURVE",
"246 -46 CURVE SMOOTH",
"246 -52 OFFCURVE",
"246 -57 OFFCURVE",
"246 -61 CURVE SMOOTH",
"246 -116 OFFCURVE",
"206 -121 OFFCURVE",
"158 -121 CURVE SMOOTH"
);
},
{
closed = 1;
nodes = (
"221 -140 OFFCURVE",
"266 -124 OFFCURVE",
"266 -60 CURVE SMOOTH",
"266 -57 OFFCURVE",
"266 -52 OFFCURVE",
"266 -46 CURVE SMOOTH",
"266 19 OFFCURVE",
"224 30 OFFCURVE",
"158 34 CURVE SMOOTH",
"112 37 OFFCURVE",
"91 47 OFFCURVE",
"91 76 CURVE SMOOTH",
"91 79 OFFCURVE",
"91 81 OFFCURVE",
"91 84 CURVE SMOOTH",
"91 113 OFFCURVE",
"109 132 OFFCURVE",
"148 131 CURVE",
"148 147 LINE",
"104 144 LINE",
"104 132 LINE",
"89 129 OFFCURVE",
"71 110 OFFCURVE",
"71 84 CURVE SMOOTH",
"71 81 OFFCURVE",
"71 79 OFFCURVE",
"71 76 CURVE SMOOTH",
"71 54 OFFCURVE",
"82 40 OFFCURVE",
"106 28 CURVE",
"106 20 LINE",
"82 15 OFFCURVE",
"50 -4 OFFCURVE",
"50 -46 CURVE SMOOTH",
"50 -52 OFFCURVE",
"50 -57 OFFCURVE",
"50 -60 CURVE SMOOTH",
"50 -124 OFFCURVE",
"95 -140 OFFCURVE",
"158 -140 CURVE SMOOTH"
);
},
{
closed = 1;
nodes = (
"110 150 OFFCURVE",
"92 165 OFFCURVE",
"90 220 CURVE SMOOTH",
"87 311 OFFCURVE",
"87 415 OFFCURVE",
"90 514 CURVE SMOOTH",
"92 570 OFFCURVE",
"109 585 OFFCURVE",
"158 585 CURVE SMOOTH",
"207 585 OFFCURVE",
"224 570 OFFCURVE",
"226 514 CURVE SMOOTH",
"229 415 OFFCURVE",
"229 311 OFFCURVE",
"226 220 CURVE SMOOTH",
"224 165 OFFCURVE",
"206 150 OFFCURVE",
"158 150 CURVE SMOOTH"
);
},
{
closed = 1;
nodes = (
"247 468 LINE",
"247 491 LINE SMOOTH",
"247 549 OFFCURVE",
"267 580 OFFCURVE",
"295 580 CURVE SMOOTH",
"302 580 LINE",
"302 600 LINE",
"275 600 OFFCURVE",
"250 580 OFFCURVE",
"250 553 CURVE",
"237 553 LINE",
"237 468 LINE"
);
}
);
width = 312;
},
{
anchors = (
{
name = bottom;
position = "{248, -200}";
},
{
name = top;
position = "{237, 600}";
}
);
background = {
paths = (
{
closed = 1;
nodes = (
"382 -198 OFFCURVE",
"466 -170 OFFCURVE",
"479 -75 CURVE SMOOTH",
"482 -56 OFFCURVE",
"481 -38 OFFCURVE",
"479 -27 CURVE SMOOTH",
"467 54 OFFCURVE",
"384 99 OFFCURVE",
"247 99 CURVE SMOOTH",
"180 99 OFFCURVE",
"162 103 OFFCURVE",
"162 126 CURVE SMOOTH",
"162 127 OFFCURVE",
"162 128 OFFCURVE",
"162 129 CURVE SMOOTH",
"162 147 OFFCURVE",
"179 156 OFFCURVE",
"235 156 CURVE",
"198 199 LINE",
"119 179 LINE",
"119 156 LINE",
"74 151 OFFCURVE",
"46 126 OFFCURVE",
"42 98 CURVE SMOOTH",
"40 84 OFFCURVE",
"40 74 OFFCURVE",
"42 58 CURVE SMOOTH",
"47 25 OFFCURVE",
"74 4 OFFCURVE",
"117 -1 CURVE",
"117 -20 LINE",
"66 -27 OFFCURVE",
"50 -45 OFFCURVE",
"45 -75 CURVE SMOOTH",
"43 -88 OFFCURVE",
"43 -101 OFFCURVE",
"45 -113 CURVE SMOOTH",
"53 -161 OFFCURVE",
"125 -198 OFFCURVE",
"247 -198 CURVE SMOOTH"
);
},
{
closed = 1;
nodes = (
"210 -102 OFFCURVE",
"177 -89 OFFCURVE",
"171 -66 CURVE SMOOTH",
"168 -55 OFFCURVE",
"168 -44 OFFCURVE",
"171 -33 CURVE SMOOTH",
"177 -12 OFFCURVE",
"210 -1 OFFCURVE",
"264 -1 CURVE SMOOTH",
"318 -1 OFFCURVE",
"352 -14 OFFCURVE",
"357 -35 CURVE SMOOTH",
"360 -46 OFFCURVE",
"360 -57 OFFCURVE",
"357 -68 CURVE SMOOTH",
"350 -91 OFFCURVE",
"318 -102 OFFCURVE",
"264 -102 CURVE SMOOTH"
);
},
{
closed = 1;
nodes = (
"375 156 OFFCURVE",
"434 208 OFFCURVE",
"442 337 CURVE SMOOTH",
"444 369 OFFCURVE",
"444 395 OFFCURVE",
"442 429 CURVE SMOOTH",
"435 558 OFFCURVE",
"376 610 OFFCURVE",
"237 610 CURVE SMOOTH",
"100 610 OFFCURVE",
"41 559 OFFCURVE",
"31 430 CURVE SMOOTH",
"29 402 OFFCURVE",
"29 375 OFFCURVE",
"31 337 CURVE SMOOTH",
"39 208 OFFCURVE",
"98 156 OFFCURVE",
"237 156 CURVE SMOOTH"
);
},
{
closed = 1;
nodes = (
"200 268 OFFCURVE",
"178 286 OFFCURVE",
"176 319 CURVE SMOOTH",
"174 356 OFFCURVE",
"174 402 OFFCURVE",
"176 448 CURVE SMOOTH",
"177 480 OFFCURVE",
"199 498 OFFCURVE",
"237 498 CURVE SMOOTH",
"274 498 OFFCURVE",
"295 480 OFFCURVE",
"297 448 CURVE SMOOTH",
"299 402 OFFCURVE",
"299 356 OFFCURVE",
"297 319 CURVE SMOOTH",
"295 286 OFFCURVE",
"274 268 OFFCURVE",
"237 268 CURVE SMOOTH"
);
},
{
closed = 1;
nodes = (
"421 391 LINE",
"422 467 LINE SMOOTH",
"422 480 OFFCURVE",
"429 487 OFFCURVE",
"442 487 CURVE SMOOTH",
"508 487 LINE",
"508 600 LINE",
"451 605 OFFCURVE",
"446 577 OFFCURVE",
"441 521 CURVE",
"389 521 LINE",
"387 391 LINE"
);
}
);
};
layerId = "1DFA7D5B-2E97-4B89-827F-FB43F8066DC1";
paths = (
{
closed = 1;
nodes = (
"375 156 OFFCURVE",
"434 208 OFFCURVE",
"442 337 CURVE SMOOTH",
"444 369 OFFCURVE",
"444 395 OFFCURVE",
"442 429 CURVE SMOOTH",
"435 558 OFFCURVE",
"376 610 OFFCURVE",
"237 610 CURVE SMOOTH",
"100 610 OFFCURVE",
"41 559 OFFCURVE",
"31 430 CURVE SMOOTH",
"29 402 OFFCURVE",
"29 375 OFFCURVE",
"31 337 CURVE SMOOTH",
"39 208 OFFCURVE",
"98 156 OFFCURVE",
"237 156 CURVE SMOOTH"
);
},
{
closed = 1;
nodes = (
"203 -100 OFFCURVE",
"179 -89 OFFCURVE",
"171 -66 CURVE SMOOTH",
"167 -55 OFFCURVE",
"167 -45 OFFCURVE",
"171 -34 CURVE SMOOTH",
"179 -13 OFFCURVE",
"203 1 OFFCURVE",
"257 1 CURVE SMOOTH",
"311 1 OFFCURVE",
"346 -9 OFFCURVE",
"355 -30 CURVE SMOOTH",
"360 -41 OFFCURVE",
"361 -52 OFFCURVE",
"356 -63 CURVE SMOOTH",
"346 -86 OFFCURVE",
"311 -100 OFFCURVE",
"257 -100 CURVE SMOOTH"
);
},
{
closed = 1;
nodes = (
"371 -202 OFFCURVE",
"463 -171 OFFCURVE",
"479 -75 CURVE SMOOTH",
"482 -56 OFFCURVE",
"481 -38 OFFCURVE",
"479 -27 CURVE SMOOTH",
"463 54 OFFCURVE",
"401 97 OFFCURVE",
"263 99 CURVE SMOOTH",
"190 100 OFFCURVE",
"163 106 OFFCURVE",
"162 126 CURVE SMOOTH",
"162 127 OFFCURVE",
"162 128 OFFCURVE",
"162 129 CURVE SMOOTH",
"162 148 OFFCURVE",
"177 156 OFFCURVE",
"237 156 CURVE",
"198 199 LINE",
"119 179 LINE",
"119 156 LINE",
"74 151 OFFCURVE",
"48 125 OFFCURVE",
"44 97 CURVE SMOOTH",
"42 83 OFFCURVE",
"42 80 OFFCURVE",
"44 64 CURVE SMOOTH",
"49 31 OFFCURVE",
"74 11 OFFCURVE",
"117 6 CURVE",
"117 -15 LINE",
"68 -23 OFFCURVE",
"50 -44 OFFCURVE",
"45 -74 CURVE SMOOTH",
"43 -87 OFFCURVE",
"44 -100 OFFCURVE",
"47 -112 CURVE SMOOTH",
"59 -160 OFFCURVE",
"129 -202 OFFCURVE",
"251 -202 CURVE SMOOTH"
);
},
{
closed = 1;
nodes = (
"200 268 OFFCURVE",
"178 286 OFFCURVE",
"176 319 CURVE SMOOTH",
"174 356 OFFCURVE",
"174 402 OFFCURVE",
"176 448 CURVE SMOOTH",
"177 480 OFFCURVE",
"199 498 OFFCURVE",
"237 498 CURVE SMOOTH",
"274 498 OFFCURVE",
"295 480 OFFCURVE",
"297 448 CURVE SMOOTH",
"299 402 OFFCURVE",
"299 356 OFFCURVE",
"297 319 CURVE SMOOTH",
"295 286 OFFCURVE",
"274 268 OFFCURVE",
"237 268 CURVE SMOOTH"
);
},
{
closed = 1;
nodes = (
"443 395 LINE",
"443 437 LINE SMOOTH",
"443 473 OFFCURVE",
"457 487 OFFCURVE",
"493 487 CURVE SMOOTH",
"508 487 LINE",
"508 600 LINE",
"459 599 OFFCURVE",
"437 582 OFFCURVE",
"431 541 CURVE",
"389 541 LINE",
"387 395 LINE"
);
}
);
width = 508;
},
{
anchors = (
{
name = bottom;
position = "{188, -200}";
},
{
name = top;
position = "{180, 600}";
}
);
associatedMasterId = "3B122060-26E0-4730-9241-82784E6CB359";
background = {
paths = (
{
closed = 1;
nodes = (
"203 -200 OFFCURVE",
"235 -174 OFFCURVE",
"236 -110 CURVE SMOOTH",
"238 20 OFFCURVE",
"238 -64 OFFCURVE",
"236 344 CURVE SMOOTH",
"235 600 LINE",
"215 600 LINE",
"216 344 LINE SMOOTH",
"217 182 OFFCURVE",
"219 54 OFFCURVE",
"216 -110 CURVE SMOOTH",
"215 -165 OFFCURVE",
"189 -180 OFFCURVE",
"141 -180 CURVE SMOOTH",
"105 -180 OFFCURVE",
"80 -176 OFFCURVE",
"66 -172 CURVE",
"66 -191 LINE",
"79 -195 OFFCURVE",
"105 -200 OFFCURVE",
"143 -200 CURVE SMOOTH"
);
},
{
closed = 1;
nodes = (
"171 -5 OFFCURVE",
"195 10 OFFCURVE",
"210 47 CURVE",
"223 47 LINE",
"223 86 LINE",
"218 86 LINE",
"204 35 OFFCURVE",
"178 15 OFFCURVE",
"134 15 CURVE SMOOTH",
"96 15 OFFCURVE",
"81 35 OFFCURVE",
"80 86 CURVE SMOOTH",
"78 227 OFFCURVE",
"78 349 OFFCURVE",
"80 514 CURVE SMOOTH",
"81 565 OFFCURVE",
"97 585 OFFCURVE",
"135 585 CURVE SMOOTH",
"178 585 OFFCURVE",
"201 565 OFFCURVE",
"215 514 CURVE",
"223 514 LINE",
"223 553 LINE",
"208 553 LINE",
"193 590 OFFCURVE",
"172 605 OFFCURVE",
"135 605 CURVE SMOOTH",
"83 605 OFFCURVE",
"61 579 OFFCURVE",
"60 514 CURVE SMOOTH",
"58 302 OFFCURVE",
"58 179 OFFCURVE",
"60 86 CURVE SMOOTH",
"61 21 OFFCURVE",
"82 -5 OFFCURVE",
"134 -5 CURVE SMOOTH"
);
}
);
};
layerId = "0532814F-3503-432B-BB2B-8CB4BE2E0A45";
name = "thin {300, 257}";
paths = (
{
closed = 1;
nodes = (
"262 137 OFFCURVE",
"294 169 OFFCURVE",
"298 249 CURVE SMOOTH",
"300 342 OFFCURVE",
"300 385 OFFCURVE",
"298 493 CURVE SMOOTH",
"295 574 OFFCURVE",
"264 606 OFFCURVE",
"180 606 CURVE SMOOTH",
"99 606 OFFCURVE",
"66 574 OFFCURVE",
"63 493 CURVE SMOOTH",
"60 386 OFFCURVE",
"60 344 OFFCURVE",
"63 249 CURVE SMOOTH",
"66 169 OFFCURVE",
"98 137 OFFCURVE",
"180 137 CURVE SMOOTH"
);
},
{
closed = 1;
nodes = (
"136 -113 OFFCURVE",
"104 -107 OFFCURVE",
"102 -62 CURVE SMOOTH",
"102 -57 OFFCURVE",
"102 -50 OFFCURVE",
"102 -43 CURVE SMOOTH",
"104 0 OFFCURVE",
"135 10 OFFCURVE",
"185 7 CURVE SMOOTH",
"236 4 OFFCURVE",
"270 1 OFFCURVE",
"272 -42 CURVE SMOOTH",
"272 -49 OFFCURVE",
"272 -56 OFFCURVE",
"272 -62 CURVE SMOOTH",
"270 -104 OFFCURVE",
"235 -113 OFFCURVE",
"185 -113 CURVE SMOOTH"
);
},
{
closed = 1;
nodes = (
"261 -156 OFFCURVE",
"318 -136 OFFCURVE",
"322 -64 CURVE SMOOTH",
"322 -57 OFFCURVE",
"322 -49 OFFCURVE",
"322 -41 CURVE SMOOTH",
"318 28 OFFCURVE",
"271 47 OFFCURVE",
"187 50 CURVE SMOOTH",
"134 53 OFFCURVE",
"112 62 OFFCURVE",
"111 89 CURVE SMOOTH",
"111 91 OFFCURVE",
"111 93 OFFCURVE",
"111 95 CURVE SMOOTH",
"111 122 OFFCURVE",
"129 138 OFFCURVE",
"173 137 CURVE",
"163 160 LINE",
"110 153 LINE",
"110 138 LINE",
"88 135 OFFCURVE",
"68 114 OFFCURVE",
"67 87 CURVE SMOOTH",
"67 82 OFFCURVE",
"67 79 OFFCURVE",
"67 73 CURVE SMOOTH",
"68 48 OFFCURVE",
"83 33 OFFCURVE",
"111 23 CURVE",
"111 11 LINE",
"81 6 OFFCURVE",
"53 -14 OFFCURVE",
"51 -53 CURVE SMOOTH",
"51 -61 OFFCURVE",
"52 -68 OFFCURVE",
"52 -73 CURVE SMOOTH",
"55 -133 OFFCURVE",
"106 -156 OFFCURVE",
"184 -156 CURVE SMOOTH"
);
},
{
closed = 1;
nodes = (
"135 180 OFFCURVE",
"116 195 OFFCURVE",
"114 245 CURVE SMOOTH",
"111 322 OFFCURVE",
"111 412 OFFCURVE",
"114 498 CURVE SMOOTH",
"116 548 OFFCURVE",
"134 563 OFFCURVE",
"180 563 CURVE SMOOTH",
"226 563 OFFCURVE",
"244 548 OFFCURVE",
"246 498 CURVE SMOOTH",
"249 412 OFFCURVE",
"249 322 OFFCURVE",
"246 245 CURVE SMOOTH",
"244 195 OFFCURVE",
"226 180 OFFCURVE",
"180 180 CURVE SMOOTH"
);
},
{
closed = 1;
nodes = (
"299 416 LINE",
"300 485 LINE SMOOTH",
"301 532 OFFCURVE",
"316 557 OFFCURVE",
"340 557 CURVE SMOOTH",
"356 557 LINE",
"356 600 LINE",
"322 600 OFFCURVE",
"302 583 OFFCURVE",
"300 550 CURVE",
"278 550 LINE",
"277 416 LINE"
);
}
);
width = 376;
}
);
leftKerningGroup = g;
rightKerningGroup = g;
unicode = 0067;
},
{
glyphname = h;
lastChange = "2019-06-15 17:03:29 +0000";
layers = (
{
anchors = (
{
name = bottom;
position = "{149, 0}";
},
{
name = center;
position = "{149, 400}";
},
{
name = top;
position = "{159, 656}";
}
);
layerId = "3B122060-26E0-4730-9241-82784E6CB359";
paths = (
{
closed = 1;
nodes = (
"235 0 LINE",
"238 137 OFFCURVE",
"236 410 OFFCURVE",
"235 514 CURVE SMOOTH",
"234 579 OFFCURVE",
"213 605 OFFCURVE",
"161 605 CURVE SMOOTH",
"124 605 OFFCURVE",
"103 590 OFFCURVE",
"88 553 CURVE",
"75 553 LINE",
"75 514 LINE",
"80 514 LINE",
"94 565 OFFCURVE",
"117 585 OFFCURVE",
"161 585 CURVE SMOOTH",
"199 585 OFFCURVE",
"214 565 OFFCURVE",
"215 514 CURVE SMOOTH",
"218 311 OFFCURVE",
"217 116 OFFCURVE",
"215 0 CURVE"
);
},
{
closed = 1;
nodes = (
"80 0 LINE",
"80 800 LINE",
"60 800 LINE",
"60 0 LINE"
);
}
);
width = 287;
},
{
anchors = (
{
name = bottom;
position = "{247, 0}";
},
{
name = center;
position = "{247, 400}";
},
{
name = top;
position = "{327, 620}";
}
);
background = {
paths = (
{
closed = 0;
nodes = (
"447 459 LINE SMOOTH",
"442 572 OFFCURVE",
"383 617 OFFCURVE",
"237 617 CURVE SMOOTH"
);
}
);
};
layerId = "1DFA7D5B-2E97-4B89-827F-FB43F8066DC1";
paths = (
{
closed = 1;
nodes = (
"463 0 LINE",
"464 131 OFFCURVE",
"464 314 OFFCURVE",
"461 441 CURVE SMOOTH",
"459 562 OFFCURVE",
"413 610 OFFCURVE",
"330 610 CURVE SMOOTH",
"267 610 OFFCURVE",
"244 583 OFFCURVE",
"216 535 CURVE",
"180 535 LINE",
"180 458 LINE",
"190 458 LINE",
"202 484 OFFCURVE",
"238 501 OFFCURVE",
"265 501 CURVE SMOOTH",
"296 501 OFFCURVE",
"310 486 OFFCURVE",
"311 454 CURVE SMOOTH",
"316 303 OFFCURVE",
"314 146 OFFCURVE",
"313 0 CURVE"
);
},
{
closed = 1;
nodes = (
"190 0 LINE",
"190 800 LINE",
"40 800 LINE",
"40 0 LINE"
);
}
);
width = 494;
}
);
leftKerningGroup = h;
rightKerningGroup = n;
unicode = 0068;
},
{
glyphname = hbar;
lastChange = "2019-06-21 17:38:22 +0000";
layers = (
{
components = (
{
name = h;
}
);
layerId = "3B122060-26E0-4730-9241-82784E6CB359";
paths = (
{
closed = 1;
nodes = (
"10 683 LINE",
"130 683 LINE",
"130 703 LINE",
"10 703 LINE"
);
}
);
width = 287;
},
{
components = (
{
name = h;
transform = "{1, 0, 0, 1, 8, 0}";
}
);
layerId = "1DFA7D5B-2E97-4B89-827F-FB43F8066DC1";
paths = (
{
closed = 1;
nodes = (
"0 647 LINE",
"278 647 LINE",
"278 719 LINE",
"0 719 LINE"
);
}
);
width = 502;
}
);
leftKerningGroup = h;
rightKerningGroup = n;
rightMetricsKey = h;
unicode = 0127;
},
{
glyphname = i;
lastChange = "2019-06-17 19:28:38 +0000";
layers = (
{
components = (
{
name = idotless;
transform = "{1, 0, 0, 1, 2, 0}";
}
);
layerId = "3B122060-26E0-4730-9241-82784E6CB359";
paths = (
{
closed = 1;
nodes = (
"110 738 LINE",
"110 800 LINE",
"30 800 LINE",
"30 738 LINE"
);
}
);
width = 140;
},
{
components = (
{
name = idotless;
}
);
layerId = "1DFA7D5B-2E97-4B89-827F-FB43F8066DC1";
paths = (
{
closed = 1;
nodes = (
"190 687 LINE",
"190 800 LINE",
"40 800 LINE",
"40 687 LINE"
);
}
);
width = 230;
}
);
leftKerningGroup = i;
rightKerningGroup = i;
unicode = 0069;
},
{
glyphname = idotless;
lastChange = "2019-06-15 17:03:34 +0000";
layers = (
{
anchors = (
{
name = bottom;
position = "{70, 0}";
},
{
name = ogonek;
position = "{70, 1}";
},
{
name = top;
position = "{70, 600}";
}
);
layerId = "3B122060-26E0-4730-9241-82784E6CB359";
paths = (
{
closed = 1;
nodes = (
"80 0 LINE",
"80 600 LINE",
"60 600 LINE",
"60 0 LINE"
);
}
);
width = 140;
},
{
anchors = (
{
name = bottom;
position = "{115, 0}";
},
{
name = ogonek;
position = "{189, 10}";
},
{
name = top;
position = "{115, 600}";
}
);
layerId = "1DFA7D5B-2E97-4B89-827F-FB43F8066DC1";
paths = (
{
closed = 1;
nodes = (
"190 0 LINE",
"190 600 LINE",
"40 600 LINE",
"40 0 LINE"
);
}
);
width = 230;
}
);
leftKerningGroup = i;
rightKerningGroup = i;
unicode = 0131;
},
{
glyphname = j;
lastChange = "2019-06-16 01:25:59 +0000";
layers = (
{
components = (
{
name = jdotless;
}
);
layerId = "3B122060-26E0-4730-9241-82784E6CB359";
paths = (
{
closed = 1;
nodes = (
"111 738 LINE",
"111 800 LINE",
"31 800 LINE",
"31 738 LINE"
);
}
);
width = 141;
},
{
components = (
{
name = jdotless;
}
);
layerId = "1DFA7D5B-2E97-4B89-827F-FB43F8066DC1";
paths = (
{
closed = 1;
nodes = (
"190 687 LINE",
"190 800 LINE",
"40 800 LINE",
"40 687 LINE"
);
}
);
width = 233;
}
);
leftKerningGroup = j;
leftMetricsKey = jdotless;
rightKerningGroup = j;
unicode = 006A;
},
{
glyphname = jdotless;
lastChange = "2019-06-16 01:25:31 +0000";
layers = (
{
anchors = (
{
name = bottom;
position = "{0, -200}";
},
{
name = top;
position = "{70, 600}";
}
);
layerId = "3B122060-26E0-4730-9241-82784E6CB359";
paths = (
{
closed = 1;
nodes = (
"60 -200 OFFCURVE",
"80 -174 OFFCURVE",
"81 -110 CURVE SMOOTH",
"83 37 OFFCURVE",
"82 182 OFFCURVE",
"81 344 CURVE SMOOTH",
"80 600 LINE",
"60 600 LINE",
"61 344 LINE SMOOTH",
"62 182 OFFCURVE",
"64 37 OFFCURVE",
"61 -110 CURVE SMOOTH",
"60 -165 OFFCURVE",
"46 -180 OFFCURVE",
"-2 -180 CURVE SMOOTH",
"-23 -180 OFFCURVE",
"-39 -179 OFFCURVE",
"-53 -176 CURVE",
"-53 -195 LINE",
"-40 -198 OFFCURVE",
"-15 -200 OFFCURVE",
"0 -200 CURVE SMOOTH"
);
}
);
width = 142;
},
{
anchors = (
{
name = bottom;
position = "{117, -200}";
},
{
name = top;
position = "{117, 600}";
}
);
layerId = "1DFA7D5B-2E97-4B89-827F-FB43F8066DC1";
paths = (
{
closed = 1;
nodes = (
"124 -213 OFFCURVE",
"183 -162 OFFCURVE",
"191 -35 CURVE SMOOTH",
"194 10 OFFCURVE",
"193 208 OFFCURVE",
"193 258 CURVE SMOOTH",
"190 600 LINE",
"40 600 LINE",
"43 281 LINE SMOOTH",
"44 186 OFFCURVE",
"44 46 OFFCURVE",
"41 -47 CURVE SMOOTH",
"40 -79 OFFCURVE",
"20 -97 OFFCURVE",
"-14 -97 CURVE SMOOTH",
"-33 -97 OFFCURVE",
"-69 -96 OFFCURVE",
"-87 -95 CURVE",
"-87 -206 LINE",
"-63 -210 OFFCURVE",
"-37 -213 OFFCURVE",
"-14 -213 CURVE SMOOTH"
);
}
);
width = 233;
}
);
leftKerningGroup = j;
rightKerningGroup = j;
unicode = 0237;
},
{
glyphname = k;
lastChange = "2019-06-15 17:04:42 +0000";
layers = (
{
anchors = (
{
name = bottom;
position = "{134, 0}";
},
{
name = top;
position = "{134, 800}";
}
);
layerId = "3B122060-26E0-4730-9241-82784E6CB359";
paths = (
{
closed = 1;
nodes = (
"114 317 LINE",
"119 330 LINE",
"213 600 LINE",
"191 600 LINE",
"128 410 LINE",
"91 306 LINE",
"79 306 LINE",
"77 221 LINE"
);
},
{
closed = 1;
nodes = (
"80 0 LINE",
"80 298 LINE",
"80 309 LINE",
"80 642 LINE",
"80 800 LINE",
"60 800 LINE",
"60 0 LINE"
);
},
{
closed = 1;
nodes = (
"238 0 LINE",
"121 338 LINE",
"102 333 LINE",
"215 0 LINE"
);
}
);
width = 268;
},
{
anchors = (
{
name = bottom;
position = "{240, 0}";
},
{
name = top;
position = "{240, 800}";
}
);
background = {
paths = (
{
closed = 1;
nodes = (
"278 311 LINE",
"304 349 LINE",
"448 600 LINE",
"285 600 LINE",
"220 470 LINE",
"182 372 LINE",
"143 372 LINE",
"153 131 LINE"
);
},
{
closed = 1;
nodes = (
"173 0 LINE",
"173 272 LINE",
"159 372 LINE",
"180 648 LINE",
"180 800 LINE",
"30 800 LINE",
"30 0 LINE"
);
},
{
closed = 1;
nodes = (
"470 0 LINE",
"303 429 LINE",
"207 287 LINE",
"318 0 LINE"
);
}
);
};
layerId = "1DFA7D5B-2E97-4B89-827F-FB43F8066DC1";
paths = (
{
closed = 1;
nodes = (
"275 311 LINE",
"299 349 LINE",
"436 600 LINE",
"281 600 LINE",
"229 499 LINE",
"184 372 LINE",
"147 372 LINE",
"156 131 LINE"
);
},
{
closed = 1;
nodes = (
"183 0 LINE",
"183 272 LINE",
"162 372 LINE",
"180 648 LINE",
"180 800 LINE",
"40 800 LINE",
"40 0 LINE"
);
},
{
closed = 1;
nodes = (
"456 0 LINE",
"305 399 LINE",
"197 287 LINE",
"303 0 LINE"
);
}
);
width = 486;
}
);
leftKerningGroup = h;
rightKerningGroup = k;
unicode = 006B;
},
{
glyphname = kgreenlandic;
lastChange = "2019-06-15 17:04:46 +0000";
layers = (
{
anchors = (
{
name = bottom;
position = "{134, 0}";
},
{
name = top;
position = "{134, 800}";
}
);
layerId = "3B122060-26E0-4730-9241-82784E6CB359";
paths = (
{
closed = 1;
nodes = (
"114 317 LINE",
"119 330 LINE",
"235 600 LINE",
"213 600 LINE",
"131 410 LINE",
"91 306 LINE",
"79 306 LINE",
"77 221 LINE"
);
},
{
closed = 1;
nodes = (
"80 0 LINE",
"80 298 LINE",
"80 309 LINE",
"80 442 LINE",
"80 600 LINE",
"60 600 LINE",
"60 0 LINE"
);
},
{
closed = 1;
nodes = (
"238 0 LINE",
"121 338 LINE",
"102 333 LINE",
"215 0 LINE"
);
}
);
width = 268;
},
{
anchors = (
{
name = bottom;
position = "{240, 0}";
},
{
name = top;
position = "{240, 800}";
}
);
layerId = "1DFA7D5B-2E97-4B89-827F-FB43F8066DC1";
paths = (
{
closed = 1;
nodes = (
"275 291 LINE",
"299 329 LINE",
"449 600 LINE",
"294 600 LINE",
"230 479 LINE",
"184 352 LINE",
"147 352 LINE",
"156 101 LINE"
);
},
{
closed = 1;
nodes = (
"183 0 LINE",
"183 252 LINE",
"162 352 LINE",
"180 548 LINE",
"180 600 LINE",
"40 600 LINE",
"40 0 LINE"
);
},
{
closed = 1;
nodes = (
"456 0 LINE",
"305 379 LINE",
"197 267 LINE",
"303 0 LINE"
);
}
);
width = 486;
}
);
leftKerningGroup = h;
rightKerningGroup = k;
unicode = 0138;
},
{
glyphname = l;
lastChange = "2019-06-15 19:14:00 +0000";
layers = (
{
anchors = (
{
name = bottom;
position = "{70, 0}";
},
{
name = center;
position = "{70, 400}";
},
{
name = top;
position = "{70, 800}";
},
{
name = topright;
position = "{100, 800}";
}
);
layerId = "3B122060-26E0-4730-9241-82784E6CB359";
paths = (
{
closed = 1;
nodes = (
"80 0 LINE",
"80 800 LINE",
"60 800 LINE",
"60 0 LINE"
);
}
);
width = 140;
},
{
anchors = (
{
name = bottom;
position = "{115, 0}";
},
{
name = center;
position = "{115, 400}";
},
{
name = top;
position = "{115, 800}";
},
{
name = topright;
position = "{210, 800}";
}
);
layerId = "1DFA7D5B-2E97-4B89-827F-FB43F8066DC1";
paths = (
{
closed = 1;
nodes = (
"190 0 LINE",
"190 800 LINE",
"40 800 LINE",
"40 0 LINE"
);
}
);
width = 230;
}
);
leftKerningGroup = h;
rightKerningGroup = l;
unicode = 006C;
},
{
glyphname = lslash;
lastChange = "2019-06-15 16:19:00 +0000";
layers = (
{
components = (
{
name = l;
transform = "{1, 0, 0, 1, -1, 0}";
}
);
layerId = "3B122060-26E0-4730-9241-82784E6CB359";
paths = (
{
closed = 1;
nodes = (
"5 426 LINE",
"110 465 LINE",
"110 486 LINE",
"5 447 LINE"
);
}
);
width = 115;
},
{
components = (
{
name = l;
transform = "{1, 0, 0, 1, 25, 0}";
}
);
layerId = "1DFA7D5B-2E97-4B89-827F-FB43F8066DC1";
paths = (
{
closed = 1;
nodes = (
"5 356 LINE",
"283 439 LINE",
"283 511 LINE",
"5 428 LINE"
);
}
);
width = 288;
}
);
leftKerningGroup = h;
rightKerningGroup = l;
unicode = 0142;
},
{
glyphname = m;
lastChange = "2019-06-15 17:04:56 +0000";
layers = (
{
anchors = (
{
name = bottom;
position = "{226, 0}";
},
{
name = top;
position = "{226, 600}";
}
);
layerId = "3B122060-26E0-4730-9241-82784E6CB359";
paths = (
{
closed = 1;
nodes = (
"390 0 LINE",
"392 137 OFFCURVE",
"392 410 OFFCURVE",
"390 514 CURVE SMOOTH",
"389 579 OFFCURVE",
"368 605 OFFCURVE",
"316 605 CURVE SMOOTH",
"278 605 OFFCURVE",
"253 590 OFFCURVE",
"238 553 CURVE",
"230 553 LINE",
"230 514 LINE",
"235 514 LINE",
"249 565 OFFCURVE",
"272 585 OFFCURVE",
"316 585 CURVE SMOOTH",
"354 585 OFFCURVE",
"369 565 OFFCURVE",
"370 514 CURVE SMOOTH",
"374 311 OFFCURVE",
"371 116 OFFCURVE",
"370 0 CURVE"
);
},
{
closed = 1;
nodes = (
"80 0 LINE",
"80 600 LINE",
"60 600 LINE",
"60 0 LINE"
);
},
{
closed = 1;
nodes = (
"235 0 LINE",
"237 137 OFFCURVE",
"235 410 OFFCURVE",
"235 514 CURVE SMOOTH",
"234 579 OFFCURVE",
"213 605 OFFCURVE",
"161 605 CURVE SMOOTH",
"123 605 OFFCURVE",
"101 590 OFFCURVE",
"86 553 CURVE",
"75 553 LINE",
"75 514 LINE",
"80 514 LINE",
"94 565 OFFCURVE",
"117 585 OFFCURVE",
"161 585 CURVE SMOOTH",
"199 585 OFFCURVE",
"214 565 OFFCURVE",
"215 514 CURVE SMOOTH",
"217 311 OFFCURVE",
"216 116 OFFCURVE",
"215 0 CURVE"
);
}
);
width = 451;
},
{
anchors = (
{
name = bottom;
position = "{386, 0}";
},
{
name = top;
position = "{386, 600}";
}
);
layerId = "1DFA7D5B-2E97-4B89-827F-FB43F8066DC1";
paths = (
{
closed = 1;
nodes = (
"730 0 LINE",
"730 131 OFFCURVE",
"730 314 OFFCURVE",
"728 441 CURVE SMOOTH",
"726 562 OFFCURVE",
"680 610 OFFCURVE",
"597 610 CURVE SMOOTH",
"534 610 OFFCURVE",
"502 573 OFFCURVE",
"474 525 CURVE",
"438 525 LINE",
"447 448 LINE",
"457 448 LINE",
"469 474 OFFCURVE",
"505 501 OFFCURVE",
"532 501 CURVE SMOOTH",
"563 501 OFFCURVE",
"577 486 OFFCURVE",
"578 454 CURVE SMOOTH",
"582 303 OFFCURVE",
"580 146 OFFCURVE",
"580 0 CURVE"
);
},
{
closed = 1;
nodes = (
"190 0 LINE",
"190 600 LINE",
"40 600 LINE",
"40 0 LINE"
);
},
{
closed = 1;
nodes = (
"463 0 LINE",
"462 131 OFFCURVE",
"462 314 OFFCURVE",
"461 441 CURVE SMOOTH",
"460 562 OFFCURVE",
"413 610 OFFCURVE",
"330 610 CURVE SMOOTH",
"267 610 OFFCURVE",
"244 583 OFFCURVE",
"216 535 CURVE",
"180 535 LINE",
"180 458 LINE",
"190 458 LINE",
"202 484 OFFCURVE",
"238 501 OFFCURVE",
"265 501 CURVE SMOOTH",
"296 501 OFFCURVE",
"310 486 OFFCURVE",
"311 454 CURVE SMOOTH",
"314 303 OFFCURVE",
"312 146 OFFCURVE",
"313 0 CURVE"
);
}
);
width = 770;
}
);
leftKerningGroup = n;
rightKerningGroup = n;
unicode = 006D;
},
{
glyphname = n;
lastChange = "2019-06-15 17:05:00 +0000";
layers = (
{
anchors = (
{
name = bottom;
position = "{149, 0}";
},
{
name = top;
position = "{149, 600}";
}
);
layerId = "3B122060-26E0-4730-9241-82784E6CB359";
paths = (
{
closed = 1;
nodes = (
"235 0 LINE",
"238 137 OFFCURVE",
"236 410 OFFCURVE",
"235 514 CURVE SMOOTH",
"234 579 OFFCURVE",
"213 605 OFFCURVE",
"161 605 CURVE SMOOTH",
"127 605 OFFCURVE",
"101 586 OFFCURVE",
"88 553 CURVE",
"75 553 LINE",
"75 514 LINE",
"80 514 LINE",
"93 560 OFFCURVE",
"122 585 OFFCURVE",
"161 585 CURVE SMOOTH",
"199 585 OFFCURVE",
"214 565 OFFCURVE",
"215 514 CURVE SMOOTH",
"218 311 OFFCURVE",
"217 116 OFFCURVE",
"215 0 CURVE"
);
},
{
closed = 1;
nodes = (
"80 0 LINE",
"80 600 LINE",
"60 600 LINE",
"60 0 LINE"
);
}
);
width = 297;
},
{
anchors = (
{
name = bottom;
position = "{252, 0}";
},
{
name = top;
position = "{252, 600}";
}
);
layerId = "1DFA7D5B-2E97-4B89-827F-FB43F8066DC1";
paths = (
{
closed = 1;
nodes = (
"463 0 LINE",
"464 131 OFFCURVE",
"464 314 OFFCURVE",
"461 441 CURVE SMOOTH",
"459 562 OFFCURVE",
"413 610 OFFCURVE",
"330 610 CURVE SMOOTH",
"267 610 OFFCURVE",
"244 583 OFFCURVE",
"216 535 CURVE",
"180 535 LINE",
"180 458 LINE",
"190 458 LINE",
"202 484 OFFCURVE",
"238 501 OFFCURVE",
"265 501 CURVE SMOOTH",
"296 501 OFFCURVE",
"310 486 OFFCURVE",
"311 454 CURVE SMOOTH",
"316 303 OFFCURVE",
"314 146 OFFCURVE",
"313 0 CURVE"
);
},
{
closed = 1;
nodes = (
"190 0 LINE",
"190 600 LINE",
"40 600 LINE",
"40 0 LINE"
);
}
);
width = 504;
}
);
leftKerningGroup = n;
rightKerningGroup = n;
unicode = 006E;
},
{
glyphname = eng;
lastChange = "2019-06-15 17:05:08 +0000";
layers = (
{
layerId = "3B122060-26E0-4730-9241-82784E6CB359";
paths = (
{
closed = 1;
nodes = (
"213 -200 OFFCURVE",
"233 -174 OFFCURVE",
"234 -110 CURVE SMOOTH",
"237 179 OFFCURVE",
"238 327 OFFCURVE",
"235 514 CURVE SMOOTH",
"234 579 OFFCURVE",
"213 605 OFFCURVE",
"161 605 CURVE SMOOTH",
"127 605 OFFCURVE",
"101 586 OFFCURVE",
"88 553 CURVE",
"75 553 LINE",
"75 514 LINE",
"80 514 LINE",
"93 560 OFFCURVE",
"122 585 OFFCURVE",
"161 585 CURVE SMOOTH",
"199 585 OFFCURVE",
"214 565 OFFCURVE",
"215 514 CURVE SMOOTH",
"218 341 OFFCURVE",
"217 158 OFFCURVE",
"214 -110 CURVE SMOOTH",
"213 -165 OFFCURVE",
"199 -180 OFFCURVE",
"151 -180 CURVE SMOOTH",
"130 -180 OFFCURVE",
"114 -179 OFFCURVE",
"100 -176 CURVE",
"100 -195 LINE",
"113 -198 OFFCURVE",
"138 -200 OFFCURVE",
"153 -200 CURVE SMOOTH"
);
},
{
closed = 1;
nodes = (
"80 0 LINE",
"80 600 LINE",
"60 600 LINE",
"60 0 LINE"
);
}
);
width = 297;
},
{
layerId = "1DFA7D5B-2E97-4B89-827F-FB43F8066DC1";
paths = (
{
closed = 1;
nodes = (
"390 -211 OFFCURVE",
"460 -160 OFFCURVE",
"462 -33 CURVE SMOOTH",
"465 144 OFFCURVE",
"464 314 OFFCURVE",
"461 441 CURVE SMOOTH",
"459 562 OFFCURVE",
"413 610 OFFCURVE",
"330 610 CURVE SMOOTH",
"267 610 OFFCURVE",
"244 583 OFFCURVE",
"216 535 CURVE",
"180 535 LINE",
"180 458 LINE",
"190 458 LINE",
"202 484 OFFCURVE",
"238 501 OFFCURVE",
"265 501 CURVE SMOOTH",
"296 501 OFFCURVE",
"310 486 OFFCURVE",
"311 454 CURVE SMOOTH",
"316 303 OFFCURVE",
"317 138 OFFCURVE",
"312 -47 CURVE SMOOTH",
"311 -83 OFFCURVE",
"290 -97 OFFCURVE",
"237 -97 CURVE SMOOTH",
"218 -97 OFFCURVE",
"182 -96 OFFCURVE",
"164 -95 CURVE",
"164 -204 LINE",
"188 -208 OFFCURVE",
"214 -211 OFFCURVE",
"237 -211 CURVE SMOOTH"
);
},
{
closed = 1;
nodes = (
"190 0 LINE",
"190 600 LINE",
"40 600 LINE",
"40 0 LINE"
);
}
);
width = 504;
}
);
leftKerningGroup = n;
leftMetricsKey = n;
rightKerningGroup = j;
rightMetricsKey = n;
unicode = 014B;
},
{
glyphname = o;
lastChange = "2019-06-15 19:16:18 +0000";
layers = (
{
anchors = (
{
name = bottom;
position = "{151, 0}";
},
{
name = center;
position = "{151, 300}";
},
{
name = ogonekalt;
position = "{214, 0}";
},
{
name = top;
position = "{151, 600}";
},
{
name = topright;
position = "{260, 600}";
}
);
layerId = "3B122060-26E0-4730-9241-82784E6CB359";
paths = (
{
closed = 1;
nodes = (
"214 -5 OFFCURVE",
"237 21 OFFCURVE",
"239 85 CURVE SMOOTH",
"243 228 OFFCURVE",
"243 371 OFFCURVE",
"239 514 CURVE SMOOTH",
"237 579 OFFCURVE",
"214 605 OFFCURVE",
"151 605 CURVE SMOOTH",
"88 605 OFFCURVE",
"65 579 OFFCURVE",
"63 514 CURVE SMOOTH",
"59 371 OFFCURVE",
"59 228 OFFCURVE",
"63 85 CURVE SMOOTH",
"65 21 OFFCURVE",
"88 -5 OFFCURVE",
"151 -5 CURVE SMOOTH"
);
},
{
closed = 1;
nodes = (
"103 15 OFFCURVE",
"85 30 OFFCURVE",
"83 85 CURVE SMOOTH",
"78 254 OFFCURVE",
"78 345 OFFCURVE",
"83 514 CURVE SMOOTH",
"85 570 OFFCURVE",
"102 585 OFFCURVE",
"151 585 CURVE SMOOTH",
"200 585 OFFCURVE",
"217 570 OFFCURVE",
"219 514 CURVE SMOOTH",
"224 345 OFFCURVE",
"224 254 OFFCURVE",
"219 85 CURVE SMOOTH",
"217 30 OFFCURVE",
"199 15 OFFCURVE",
"151 15 CURVE SMOOTH"
);
}
);
width = 302;
},
{
anchors = (
{
name = bottom;
position = "{248, 0}";
},
{
name = center;
position = "{248, 300}";
},
{
name = ogonekalt;
position = "{396, 10}";
},
{
name = top;
position = "{248, 600}";
},
{
name = topright;
position = "{475, 600}";
}
);
layerId = "1DFA7D5B-2E97-4B89-827F-FB43F8066DC1";
paths = (
{
closed = 1;
nodes = (
"397 -10 OFFCURVE",
"445 48 OFFCURVE",
"453 191 CURVE SMOOTH",
"456 241 OFFCURVE",
"455 364 OFFCURVE",
"453 410 CURVE SMOOTH",
"445 552 OFFCURVE",
"397 610 OFFCURVE",
"248 610 CURVE SMOOTH",
"100 610 OFFCURVE",
"50 553 OFFCURVE",
"42 410 CURVE SMOOTH",
"39 360 OFFCURVE",
"40 236 OFFCURVE",
"42 191 CURVE SMOOTH",
"50 46 OFFCURVE",
"101 -10 OFFCURVE",
"248 -10 CURVE SMOOTH"
);
},
{
closed = 1;
nodes = (
"210 102 OFFCURVE",
"193 120 OFFCURVE",
"192 153 CURVE SMOOTH",
"189 244 OFFCURVE",
"189 356 OFFCURVE",
"192 448 CURVE SMOOTH",
"193 480 OFFCURVE",
"210 498 OFFCURVE",
"248 498 CURVE SMOOTH",
"287 498 OFFCURVE",
"302 480 OFFCURVE",
"303 448 CURVE SMOOTH",
"306 356 OFFCURVE",
"306 245 OFFCURVE",
"303 153 CURVE SMOOTH",
"302 120 OFFCURVE",
"287 102 OFFCURVE",
"248 102 CURVE SMOOTH"
);
}
);
width = 495;
}
);
leftKerningGroup = o;
rightKerningGroup = o;
unicode = 006F;
},
{
glyphname = oslash;
lastChange = "2019-06-19 20:40:51 +0000";
layers = (
{
components = (
{
name = o;
}
);
layerId = "3B122060-26E0-4730-9241-82784E6CB359";
paths = (
{
closed = 1;
nodes = (
"106 17 LINE",
"216 578 LINE",
"197 584 LINE",
"87 22 LINE"
);
}
);
width = 258;
},
{
components = (
{
name = o;
}
);
layerId = "1DFA7D5B-2E97-4B89-827F-FB43F8066DC1";
paths = (
{
closed = 1;
nodes = (
"183 17 LINE",
"379 518 LINE",
"312 545 LINE",
"116 43 LINE"
);
}
);
width = 491;
},
{
associatedMasterId = "3B122060-26E0-4730-9241-82784E6CB359";
components = (
{
alignment = -1;
name = o;
}
);
layerId = "B70297EC-3917-4979-9294-928C0B05A95B";
name = "thin {300, 257}";
paths = (
{
closed = 1;
nodes = (
"135 17 LINE",
"257 563 LINE",
"216 574 LINE",
"94 27 LINE"
);
}
);
width = 316;
}
);
leftKerningGroup = o;
rightKerningGroup = o;
unicode = 00F8;
},
{
glyphname = p;
lastChange = "2019-06-15 17:05:18 +0000";
layers = (
{
layerId = "3B122060-26E0-4730-9241-82784E6CB359";
paths = (
{
closed = 1;
nodes = (
"213 -5 OFFCURVE",
"234 21 OFFCURVE",
"235 86 CURVE SMOOTH",
"237 220 OFFCURVE",
"237 407 OFFCURVE",
"235 514 CURVE SMOOTH",
"234 579 OFFCURVE",
"213 605 OFFCURVE",
"161 605 CURVE SMOOTH",
"123 605 OFFCURVE",
"103 590 OFFCURVE",
"88 553 CURVE",
"75 553 LINE",
"75 514 LINE",
"80 514 LINE",
"94 565 OFFCURVE",
"117 585 OFFCURVE",
"161 585 CURVE SMOOTH",
"199 585 OFFCURVE",
"214 565 OFFCURVE",
"215 514 CURVE SMOOTH",
"217 378 OFFCURVE",
"219 269 OFFCURVE",
"215 86 CURVE SMOOTH",
"214 35 OFFCURVE",
"199 15 OFFCURVE",
"161 15 CURVE SMOOTH",
"117 15 OFFCURVE",
"94 35 OFFCURVE",
"80 86 CURVE",
"75 86 LINE",
"75 47 LINE",
"88 47 LINE",
"103 10 OFFCURVE",
"123 -5 OFFCURVE",
"161 -5 CURVE SMOOTH"
);
},
{
closed = 1;
nodes = (
"80 -200 LINE",
"80 600 LINE",
"60 600 LINE",
"60 -200 LINE"
);
}
);
width = 296;
},
{
layerId = "1DFA7D5B-2E97-4B89-827F-FB43F8066DC1";
paths = (
{
closed = 1;
nodes = (
"400 -10 OFFCURVE",
"455 38 OFFCURVE",
"461 159 CURVE SMOOTH",
"464 222 OFFCURVE",
"464 378 OFFCURVE",
"461 441 CURVE SMOOTH",
"455 562 OFFCURVE",
"408 610 OFFCURVE",
"325 610 CURVE SMOOTH",
"262 610 OFFCURVE",
"239 583 OFFCURVE",
"211 535 CURVE",
"180 535 LINE",
"180 458 LINE",
"190 458 LINE",
"202 484 OFFCURVE",
"238 501 OFFCURVE",
"265 501 CURVE SMOOTH",
"296 501 OFFCURVE",
"309 486 OFFCURVE",
"311 454 CURVE SMOOTH",
"316 367 OFFCURVE",
"316 224 OFFCURVE",
"311 146 CURVE SMOOTH",
"309 114 OFFCURVE",
"286 99 OFFCURVE",
"255 99 CURVE SMOOTH",
"223 99 OFFCURVE",
"204 111 OFFCURVE",
"190 142 CURVE",
"180 142 LINE",
"180 65 LINE",
"211 65 LINE",
"242 11 OFFCURVE",
"273 -10 OFFCURVE",
"317 -10 CURVE SMOOTH"
);
},
{
closed = 1;
nodes = (
"190 -200 LINE",
"190 600 LINE",
"40 600 LINE",
"40 -200 LINE"
);
}
);
width = 503;
}
);
leftKerningGroup = p;
rightKerningGroup = o;
unicode = 0070;
},
{
glyphname = thorn;
lastChange = "2019-06-15 17:05:23 +0000";
layers = (
{
layerId = "3B122060-26E0-4730-9241-82784E6CB359";
paths = (
{
closed = 1;
nodes = (
"213 -5 OFFCURVE",
"234 21 OFFCURVE",
"235 86 CURVE SMOOTH",
"237 220 OFFCURVE",
"237 407 OFFCURVE",
"235 514 CURVE SMOOTH",
"234 579 OFFCURVE",
"213 605 OFFCURVE",
"161 605 CURVE SMOOTH",
"123 605 OFFCURVE",
"103 590 OFFCURVE",
"88 553 CURVE",
"75 553 LINE",
"75 514 LINE",
"80 514 LINE",
"94 565 OFFCURVE",
"117 585 OFFCURVE",
"161 585 CURVE SMOOTH",
"199 585 OFFCURVE",
"214 565 OFFCURVE",
"215 514 CURVE SMOOTH",
"217 378 OFFCURVE",
"219 269 OFFCURVE",
"215 86 CURVE SMOOTH",
"214 35 OFFCURVE",
"199 15 OFFCURVE",
"161 15 CURVE SMOOTH",
"117 15 OFFCURVE",
"94 35 OFFCURVE",
"80 86 CURVE",
"75 86 LINE",
"75 47 LINE",
"88 47 LINE",
"103 10 OFFCURVE",
"123 -5 OFFCURVE",
"161 -5 CURVE SMOOTH"
);
},
{
closed = 1;
nodes = (
"80 -200 LINE",
"80 800 LINE",
"60 800 LINE",
"60 -200 LINE"
);
}
);
width = 296;
},
{
layerId = "1DFA7D5B-2E97-4B89-827F-FB43F8066DC1";
paths = (
{
closed = 1;
nodes = (
"400 -10 OFFCURVE",
"455 38 OFFCURVE",
"461 159 CURVE SMOOTH",
"464 222 OFFCURVE",
"464 378 OFFCURVE",
"461 441 CURVE SMOOTH",
"455 562 OFFCURVE",
"408 610 OFFCURVE",
"325 610 CURVE SMOOTH",
"262 610 OFFCURVE",
"239 583 OFFCURVE",
"211 535 CURVE",
"180 535 LINE",
"180 458 LINE",
"190 458 LINE",
"202 484 OFFCURVE",
"238 501 OFFCURVE",
"265 501 CURVE SMOOTH",
"296 501 OFFCURVE",
"309 486 OFFCURVE",
"311 454 CURVE SMOOTH",
"316 367 OFFCURVE",
"316 224 OFFCURVE",
"311 146 CURVE SMOOTH",
"309 114 OFFCURVE",
"286 99 OFFCURVE",
"255 99 CURVE SMOOTH",
"223 99 OFFCURVE",
"204 111 OFFCURVE",
"190 142 CURVE",
"180 142 LINE",
"180 65 LINE",
"211 65 LINE",
"242 11 OFFCURVE",
"273 -10 OFFCURVE",
"317 -10 CURVE SMOOTH"
);
},
{
closed = 1;
nodes = (
"190 -200 LINE",
"190 800 LINE",
"40 800 LINE",
"40 -200 LINE"
);
}
);
width = 503;
}
);
leftKerningGroup = h;
rightKerningGroup = o;
unicode = 00FE;
},
{
glyphname = q;
lastChange = "2019-06-15 17:05:31 +0000";
layers = (
{
layerId = "3B122060-26E0-4730-9241-82784E6CB359";
paths = (
{
closed = 1;
nodes = (
"174 -5 OFFCURVE",
"194 10 OFFCURVE",
"209 47 CURVE",
"222 47 LINE",
"222 86 LINE",
"217 86 LINE",
"203 35 OFFCURVE",
"180 15 OFFCURVE",
"136 15 CURVE SMOOTH",
"98 15 OFFCURVE",
"82 35 OFFCURVE",
"82 86 CURVE SMOOTH",
"78 289 OFFCURVE",
"79 398 OFFCURVE",
"82 514 CURVE SMOOTH",
"82 565 OFFCURVE",
"98 585 OFFCURVE",
"136 585 CURVE SMOOTH",
"180 585 OFFCURVE",
"203 565 OFFCURVE",
"217 514 CURVE",
"222 514 LINE",
"222 553 LINE",
"209 553 LINE",
"194 590 OFFCURVE",
"174 605 OFFCURVE",
"136 605 CURVE SMOOTH",
"84 605 OFFCURVE",
"63 579 OFFCURVE",
"62 514 CURVE SMOOTH",
"59 377 OFFCURVE",
"60 190 OFFCURVE",
"62 86 CURVE SMOOTH",
"63 21 OFFCURVE",
"84 -5 OFFCURVE",
"136 -5 CURVE SMOOTH"
);
},
{
closed = 1;
nodes = (
"237 -200 LINE",
"237 600 LINE",
"217 600 LINE",
"217 -200 LINE"
);
}
);
width = 297;
},
{
layerId = "1DFA7D5B-2E97-4B89-827F-FB43F8066DC1";
paths = (
{
closed = 1;
nodes = (
"233 -10 OFFCURVE",
"263 11 OFFCURVE",
"294 65 CURVE",
"323 65 LINE",
"323 142 LINE",
"313 142 LINE",
"299 111 OFFCURVE",
"280 99 OFFCURVE",
"248 99 CURVE SMOOTH",
"217 99 OFFCURVE",
"194 114 OFFCURVE",
"192 146 CURVE SMOOTH",
"187 224 OFFCURVE",
"187 367 OFFCURVE",
"192 454 CURVE SMOOTH",
"194 486 OFFCURVE",
"207 501 OFFCURVE",
"238 501 CURVE SMOOTH",
"265 501 OFFCURVE",
"301 484 OFFCURVE",
"313 458 CURVE",
"323 458 LINE",
"323 535 LINE",
"292 535 LINE",
"264 583 OFFCURVE",
"241 610 OFFCURVE",
"178 610 CURVE SMOOTH",
"95 610 OFFCURVE",
"48 562 OFFCURVE",
"42 441 CURVE SMOOTH",
"39 378 OFFCURVE",
"39 222 OFFCURVE",
"42 159 CURVE SMOOTH",
"48 38 OFFCURVE",
"105 -10 OFFCURVE",
"188 -10 CURVE SMOOTH"
);
},
{
closed = 1;
nodes = (
"463 -200 LINE",
"463 600 LINE",
"313 600 LINE",
"313 -200 LINE"
);
}
);
width = 503;
}
);
leftKerningGroup = o;
rightKerningGroup = q;
unicode = 0071;
},
{
glyphname = r;
lastChange = "2019-06-15 19:14:57 +0000";
layers = (
{
anchors = (
{
name = bottom;
position = "{110, 0}";
},
{
name = top;
position = "{110, 600}";
}
);
background = {
paths = (
{
closed = 0;
nodes = (
"150 580 LINE",
"170 580 OFFCURVE",
"191 579 OFFCURVE",
"211 573 CURVE",
"211 593 LINE",
"191 599 OFFCURVE",
"170 600 OFFCURVE",
"150 600 CURVE"
);
}
);
};
layerId = "3B122060-26E0-4730-9241-82784E6CB359";
paths = (
{
closed = 1;
nodes = (
"80 0 LINE",
"80 600 LINE",
"60 600 LINE",
"60 0 LINE"
);
},
{
closed = 1;
nodes = (
"80 514 LINE",
"93 563 OFFCURVE",
"115 580 OFFCURVE",
"160 580 CURVE SMOOTH",
"185 580 LINE",
"185 600 LINE",
"173 600 OFFCURVE",
"167 600 OFFCURVE",
"160 600 CURVE SMOOTH",
"121 600 OFFCURVE",
"101 588 OFFCURVE",
"87 553 CURVE",
"72 553 LINE",
"72 514 LINE"
);
}
);
width = 205;
},
{
anchors = (
{
name = bottom;
position = "{190, 0}";
},
{
name = top;
position = "{190, 600}";
}
);
background = {
paths = (
{
closed = 0;
nodes = (
"255 501 LINE",
"286 501 OFFCURVE",
"300 486 OFFCURVE",
"301 454 CURVE SMOOTH",
"306 303 OFFCURVE",
"304 146 OFFCURVE",
"303 0 CURVE",
"453 0 LINE",
"454 131 OFFCURVE",
"454 314 OFFCURVE",
"451 441 CURVE SMOOTH",
"449 562 OFFCURVE",
"403 610 OFFCURVE",
"320 610 CURVE"
);
},
{
closed = 0;
nodes = (
"380 597 LINE",
"356 601 OFFCURVE",
"330 604 OFFCURVE",
"307 604 CURVE SMOOTH"
);
}
);
};
layerId = "1DFA7D5B-2E97-4B89-827F-FB43F8066DC1";
paths = (
{
closed = 1;
nodes = (
"190 0 LINE",
"190 600 LINE",
"40 600 LINE",
"40 0 LINE"
);
},
{
closed = 1;
nodes = (
"190 422 LINE",
"197 462 OFFCURVE",
"222 487 OFFCURVE",
"299 487 CURVE SMOOTH",
"340 487 LINE",
"340 601 LINE",
"332 602 OFFCURVE",
"314 604 OFFCURVE",
"297 604 CURVE SMOOTH",
"252 604 OFFCURVE",
"222 584 OFFCURVE",
"216 525 CURVE",
"180 525 LINE",
"180 422 LINE"
);
}
);
width = 360;
}
);
leftKerningGroup = n;
rightKerningGroup = r;
unicode = 0072;
},
{
glyphname = s;
lastChange = "2019-06-15 17:05:40 +0000";
layers = (
{
anchors = (
{
name = bottom;
position = "{136, 0}";
},
{
name = top;
position = "{136, 600}";
}
);
background = {
paths = (
{
closed = 0;
nodes = (
"209 173 LINE SMOOTH",
"209 253 OFFCURVE",
"193 297 OFFCURVE",
"144 309 CURVE SMOOTH",
"109 318 LINE SMOOTH",
"54 332 OFFCURVE",
"61 391 OFFCURVE",
"61 436 CURVE SMOOTH"
);
},
{
closed = 0;
nodes = (
"41 436 LINE SMOOTH",
"43 348 OFFCURVE",
"49 311 OFFCURVE",
"108 296 CURVE SMOOTH",
"142 287 LINE SMOOTH",
"188 275 OFFCURVE",
"188 215 OFFCURVE",
"188 173 CURVE SMOOTH"
);
}
);
};
layerId = "3B122060-26E0-4730-9241-82784E6CB359";
paths = (
{
closed = 1;
nodes = (
"197 -5 OFFCURVE",
"216 21 OFFCURVE",
"220 85 CURVE SMOOTH",
"222 114 OFFCURVE",
"222 150 OFFCURVE",
"222 179 CURVE SMOOTH",
"222 259 OFFCURVE",
"202 293 OFFCURVE",
"154 311 CURVE SMOOTH",
"119 324 LINE SMOOTH",
"75 341 OFFCURVE",
"74 378 OFFCURVE",
"72 442 CURVE SMOOTH",
"71 466 OFFCURVE",
"72 486 OFFCURVE",
"73 514 CURVE SMOOTH",
"75 570 OFFCURVE",
"88 585 OFFCURVE",
"136 585 CURVE SMOOTH",
"184 585 OFFCURVE",
"198 570 OFFCURVE",
"199 514 CURVE SMOOTH",
"199 484 OFFCURVE",
"200 452 OFFCURVE",
"198 410 CURVE",
"218 410 LINE",
"220 453 OFFCURVE",
"219 486 OFFCURVE",
"219 514 CURVE SMOOTH",
"218 579 OFFCURVE",
"199 605 OFFCURVE",
"136 605 CURVE SMOOTH",
"73 605 OFFCURVE",
"55 579 OFFCURVE",
"53 514 CURVE SMOOTH",
"52 488 OFFCURVE",
"51 468 OFFCURVE",
"52 442 CURVE SMOOTH",
"55 354 OFFCURVE",
"61 324 OFFCURVE",
"118 302 CURVE SMOOTH",
"152 289 LINE SMOOTH",
"192 274 OFFCURVE",
"199 245 OFFCURVE",
"201 179 CURVE SMOOTH",
"202 152 OFFCURVE",
"201 117 OFFCURVE",
"200 85 CURVE SMOOTH",
"198 30 OFFCURVE",
"182 15 OFFCURVE",
"134 15 CURVE SMOOTH",
"86 15 OFFCURVE",
"72 30 OFFCURVE",
"71 85 CURVE SMOOTH",
"71 116 OFFCURVE",
"70 149 OFFCURVE",
"72 191 CURVE",
"52 191 LINE",
"50 148 OFFCURVE",
"50 114 OFFCURVE",
"51 85 CURVE SMOOTH",
"52 21 OFFCURVE",
"71 -5 OFFCURVE",
"134 -5 CURVE SMOOTH"
);
}
);
width = 272;
},
{
anchors = (
{
name = bottom;
position = "{231, 0}";
},
{
name = top;
position = "{231, 600}";
}
);
background = {
paths = (
{
closed = 0;
nodes = (
"12 384 LINE",
"18 313 OFFCURVE",
"62 275 OFFCURVE",
"114 264 CURVE SMOOTH",
"222 241 LINE SMOOTH",
"242 237 OFFCURVE",
"264 217 OFFCURVE",
"266 194 CURVE SMOOTH",
"267 182 OFFCURVE",
"268 168 OFFCURVE",
"266 152 CURVE"
);
},
{
closed = 0;
nodes = (
"407 158 LINE",
"408 170 OFFCURVE",
"407 208 OFFCURVE",
"405 220 CURVE SMOOTH",
"396 303 OFFCURVE",
"321 335 OFFCURVE",
"277 342 CURVE SMOOTH",
"205 353 LINE SMOOTH",
"171 358 OFFCURVE",
"159 379 OFFCURVE",
"159 402 CURVE"
);
},
{
closed = 0;
nodes = (
"160 399 LINE",
"160 417 OFFCURVE",
"160 436 OFFCURVE",
"161 453 CURVE SMOOTH",
"162 485 OFFCURVE",
"171 498 OFFCURVE",
"206 498 CURVE SMOOTH",
"239 498 OFFCURVE",
"248 485 OFFCURVE",
"250 453 CURVE SMOOTH",
"251 439 OFFCURVE",
"251 387 OFFCURVE",
"250 369 CURVE",
"396 369 LINE",
"397 376 OFFCURVE",
"398 414 OFFCURVE",
"397 436 CURVE SMOOTH",
"391 560 OFFCURVE",
"340 610 OFFCURVE",
"206 610 CURVE SMOOTH",
"72 610 OFFCURVE",
"20 559 OFFCURVE",
"11 430 CURVE"
);
},
{
closed = 0;
nodes = (
"260 152 LINE",
"259 116 OFFCURVE",
"246 102 OFFCURVE",
"210 102 CURVE SMOOTH",
"178 102 OFFCURVE",
"168 116 OFFCURVE",
"166 152 CURVE SMOOTH",
"165 168 OFFCURVE",
"165 198 OFFCURVE",
"166 233 CURVE",
"20 233 LINE",
"19 226 OFFCURVE",
"18 190 OFFCURVE",
"19 168 CURVE SMOOTH",
"25 41 OFFCURVE",
"78 -10 OFFCURVE",
"210 -10 CURVE SMOOTH",
"347 -10 OFFCURVE",
"404 41 OFFCURVE",
"410 168 CURVE"
);
}
);
};
layerId = "1DFA7D5B-2E97-4B89-827F-FB43F8066DC1";
paths = (
{
closed = 1;
nodes = (
"370 -10 OFFCURVE",
"426 40 OFFCURVE",
"426 164 CURVE SMOOTH",
"426 173 OFFCURVE",
"426 183 OFFCURVE",
"426 192 CURVE SMOOTH",
"426 284 OFFCURVE",
"377 327 OFFCURVE",
"284 349 CURVE SMOOTH",
"222 364 LINE SMOOTH",
"191 371 OFFCURVE",
"185 389 OFFCURVE",
"185 414 CURVE SMOOTH",
"185 438 OFFCURVE",
"185 438 OFFCURVE",
"186 453 CURVE SMOOTH",
"187 485 OFFCURVE",
"200 498 OFFCURVE",
"236 498 CURVE SMOOTH",
"269 498 OFFCURVE",
"281 485 OFFCURVE",
"283 453 CURVE SMOOTH",
"284 439 OFFCURVE",
"284 387 OFFCURVE",
"283 369 CURVE",
"419 369 LINE",
"420 376 OFFCURVE",
"421 414 OFFCURVE",
"420 436 CURVE SMOOTH",
"414 560 OFFCURVE",
"366 610 OFFCURVE",
"236 610 CURVE SMOOTH",
"92 610 OFFCURVE",
"40 558 OFFCURVE",
"40 429 CURVE SMOOTH",
"40 420 OFFCURVE",
"40 411 OFFCURVE",
"40 401 CURVE SMOOTH",
"40 313 OFFCURVE",
"95 271 OFFCURVE",
"185 245 CURVE SMOOTH",
"256 225 LINE SMOOTH",
"279 219 OFFCURVE",
"288 204 OFFCURVE",
"288 184 CURVE SMOOTH",
"288 160 OFFCURVE",
"288 177 OFFCURVE",
"288 152 CURVE SMOOTH",
"288 116 OFFCURVE",
"270 102 OFFCURVE",
"229 102 CURVE SMOOTH",
"197 102 OFFCURVE",
"178 116 OFFCURVE",
"176 152 CURVE SMOOTH",
"175 168 OFFCURVE",
"175 198 OFFCURVE",
"176 233 CURVE",
"45 233 LINE",
"44 226 OFFCURVE",
"43 190 OFFCURVE",
"44 168 CURVE SMOOTH",
"50 41 OFFCURVE",
"100 -10 OFFCURVE",
"229 -10 CURVE SMOOTH"
);
}
);
width = 466;
}
);
leftKerningGroup = s;
rightKerningGroup = s;
unicode = 0073;
},
{
glyphname = germandbls;
lastChange = "2019-06-15 17:05:44 +0000";
layers = (
{
background = {
paths = (
{
closed = 1;
nodes = (
"267 -5 OFFCURVE",
"286 21 OFFCURVE",
"290 85 CURVE SMOOTH",
"292 114 OFFCURVE",
"292 185 OFFCURVE",
"292 214 CURVE SMOOTH",
"292 294 OFFCURVE",
"272 328 OFFCURVE",
"224 346 CURVE SMOOTH",
"189 359 LINE SMOOTH",
"145 375 OFFCURVE",
"142 401 OFFCURVE",
"142 445 CURVE SMOOTH",
"142 491 OFFCURVE",
"147 515 OFFCURVE",
"175 532 CURVE SMOOTH",
"229 564 OFFCURVE",
"246 589 OFFCURVE",
"247 624 CURVE SMOOTH",
"248 650 OFFCURVE",
"248 688 OFFCURVE",
"247 714 CURVE SMOOTH",
"245 779 OFFCURVE",
"212 805 OFFCURVE",
"149 805 CURVE SMOOTH",
"86 805 OFFCURVE",
"52 779 OFFCURVE",
"51 714 CURVE SMOOTH",
"51 0 LINE",
"71 0 LINE",
"71 714 LINE SMOOTH",
"72 768 OFFCURVE",
"99 785 OFFCURVE",
"149 785 CURVE SMOOTH",
"199 785 OFFCURVE",
"225 768 OFFCURVE",
"227 714 CURVE SMOOTH",
"228 689 OFFCURVE",
"228 654 OFFCURVE",
"227 630 CURVE SMOOTH",
"226 590 OFFCURVE",
"209 573 OFFCURVE",
"158 544 CURVE SMOOTH",
"125 525 OFFCURVE",
"122 496 OFFCURVE",
"122 445 CURVE SMOOTH",
"122 383 OFFCURVE",
"131 359 OFFCURVE",
"188 337 CURVE SMOOTH",
"222 324 LINE SMOOTH",
"262 309 OFFCURVE",
"269 280 OFFCURVE",
"271 214 CURVE SMOOTH",
"272 187 OFFCURVE",
"271 117 OFFCURVE",
"270 85 CURVE SMOOTH",
"268 30 OFFCURVE",
"252 15 OFFCURVE",
"204 15 CURVE SMOOTH",
"156 15 OFFCURVE",
"143 30 OFFCURVE",
"141 85 CURVE SMOOTH",
"140 116 OFFCURVE",
"140 149 OFFCURVE",
"142 191 CURVE",
"122 191 LINE",
"120 148 OFFCURVE",
"120 114 OFFCURVE",
"121 85 CURVE SMOOTH",
"123 21 OFFCURVE",
"141 -5 OFFCURVE",
"204 -5 CURVE SMOOTH"
);
}
);
};
layerId = "3B122060-26E0-4730-9241-82784E6CB359";
paths = (
{
closed = 1;
nodes = (
"80 0 LINE",
"80 709 LINE SMOOTH",
"80 763 OFFCURVE",
"95 780 OFFCURVE",
"145 780 CURVE SMOOTH",
"190 780 OFFCURVE",
"206 759 OFFCURVE",
"208 707 CURVE SMOOTH",
"211 629 OFFCURVE",
"211 566 OFFCURVE",
"208 488 CURVE SMOOTH",
"206 432 OFFCURVE",
"187 410 OFFCURVE",
"141 410 CURVE SMOOTH",
"125 410 LINE",
"125 401 LINE",
"141 401 LINE SMOOTH",
"201 401 OFFCURVE",
"226 423 OFFCURVE",
"228 488 CURVE SMOOTH",
"230 551 OFFCURVE",
"230 614 OFFCURVE",
"228 707 CURVE SMOOTH",
"226 773 OFFCURVE",
"204 800 OFFCURVE",
"145 800 CURVE SMOOTH",
"82 800 OFFCURVE",
"60 774 OFFCURVE",
"60 709 CURVE SMOOTH",
"60 0 LINE"
);
},
{
closed = 1;
nodes = (
"147 0 LINE SMOOTH",
"206 0 OFFCURVE",
"231 27 OFFCURVE",
"233 93 CURVE SMOOTH",
"235 171 OFFCURVE",
"235 233 OFFCURVE",
"233 312 CURVE SMOOTH",
"231 377 OFFCURVE",
"205 399 OFFCURVE",
"141 399 CURVE SMOOTH",
"126 399 LINE",
"126 390 LINE",
"141 390 LINE SMOOTH",
"190 390 OFFCURVE",
"211 368 OFFCURVE",
"213 312 CURVE SMOOTH",
"216 234 OFFCURVE",
"216 171 OFFCURVE",
"213 93 CURVE SMOOTH",
"211 41 OFFCURVE",
"192 20 OFFCURVE",
"147 20 CURVE SMOOTH",
"122 20 LINE",
"122 0 LINE"
);
},
{
closed = 1;
nodes = (
"185 390 LINE",
"185 409 LINE",
"123 409 LINE",
"123 390 LINE"
);
}
);
width = 264;
},
{
background = {
paths = (
{
closed = 1;
nodes = (
"530 -10 OFFCURVE",
"581 41 OFFCURVE",
"581 164 CURVE SMOOTH",
"581 173 OFFCURVE",
"581 183 OFFCURVE",
"581 192 CURVE SMOOTH",
"581 294 OFFCURVE",
"511 321 OFFCURVE",
"439 349 CURVE SMOOTH",
"421 356 LINE SMOOTH",
"392 367 OFFCURVE",
"384 378 OFFCURVE",
"384 406 CURVE SMOOTH",
"384 437 OFFCURVE",
"384 449 OFFCURVE",
"419 468 CURVE SMOOTH",
"465 493 OFFCURVE",
"491 549 OFFCURVE",
"491 597 CURVE SMOOTH",
"491 606 OFFCURVE",
"491 599 OFFCURVE",
"491 610 CURVE SMOOTH",
"491 754 OFFCURVE",
"410 810 OFFCURVE",
"265 810 CURVE SMOOTH",
"97 810 OFFCURVE",
"30 753 OFFCURVE",
"30 610 CURVE SMOOTH",
"30 0 LINE",
"181 0 LINE",
"181 638 LINE SMOOTH",
"181 670 OFFCURVE",
"217 688 OFFCURVE",
"263 688 CURVE SMOOTH",
"305 688 OFFCURVE",
"340 670 OFFCURVE",
"341 638 CURVE SMOOTH",
"342 613 OFFCURVE",
"342 615 OFFCURVE",
"341 597 CURVE SMOOTH",
"339 566 OFFCURVE",
"336 558 OFFCURVE",
"292 530 CURVE SMOOTH",
"256 507 OFFCURVE",
"239 460 OFFCURVE",
"239 405 CURVE SMOOTH",
"239 323 OFFCURVE",
"270 287 OFFCURVE",
"384 237 CURVE SMOOTH",
"411 225 LINE SMOOTH",
"425 219 OFFCURVE",
"443 209 OFFCURVE",
"443 184 CURVE SMOOTH",
"443 165 OFFCURVE",
"443 177 OFFCURVE",
"443 152 CURVE SMOOTH",
"443 117 OFFCURVE",
"430 102 OFFCURVE",
"393 102 CURVE SMOOTH",
"354 102 OFFCURVE",
"343 118 OFFCURVE",
"341 152 CURVE SMOOTH",
"340 169 OFFCURVE",
"340 198 OFFCURVE",
"341 233 CURVE",
"210 233 LINE",
"209 226 OFFCURVE",
"208 190 OFFCURVE",
"209 168 CURVE SMOOTH",
"214 40 OFFCURVE",
"259 -10 OFFCURVE",
"394 -10 CURVE SMOOTH"
);
}
);
};
layerId = "1DFA7D5B-2E97-4B89-827F-FB43F8066DC1";
paths = (
{
closed = 1;
nodes = (
"190 0 LINE",
"191 623 LINE SMOOTH",
"192 655 OFFCURVE",
"210 678 OFFCURVE",
"248 678 CURVE SMOOTH",
"290 678 OFFCURVE",
"309 658 OFFCURVE",
"309 623 CURVE SMOOTH",
"309 591 OFFCURVE",
"310 588 OFFCURVE",
"310 556 CURVE SMOOTH",
"310 503 OFFCURVE",
"287 473 OFFCURVE",
"245 473 CURVE SMOOTH",
"239 473 LINE",
"239 402 LINE",
"245 402 LINE SMOOTH",
"393 405 OFFCURVE",
"452 440 OFFCURVE",
"459 552 CURVE SMOOTH",
"460 569 OFFCURVE",
"460 586 OFFCURVE",
"460 605 CURVE SMOOTH",
"460 744 OFFCURVE",
"401 800 OFFCURVE",
"252 800 CURVE SMOOTH",
"105 800 OFFCURVE",
"40 743 OFFCURVE",
"40 600 CURVE SMOOTH",
"40 0 LINE"
);
},
{
closed = 1;
nodes = (
"250 0 LINE SMOOTH",
"399 0 OFFCURVE",
"459 56 OFFCURVE",
"465 195 CURVE SMOOTH",
"466 218 OFFCURVE",
"466 235 OFFCURVE",
"465 257 CURVE SMOOTH",
"460 371 OFFCURVE",
"400 408 OFFCURVE",
"250 410 CURVE SMOOTH",
"239 410 LINE",
"239 341 LINE",
"250 341 LINE SMOOTH",
"296 341 OFFCURVE",
"315 316 OFFCURVE",
"315 250 CURVE SMOOTH",
"315 218 OFFCURVE",
"315 229 OFFCURVE",
"315 197 CURVE SMOOTH",
"315 155 OFFCURVE",
"292 132 OFFCURVE",
"250 132 CURVE SMOOTH",
"233 132 LINE",
"233 0 LINE"
);
},
{
closed = 1;
nodes = (
"369 387 LINE",
"369 421 LINE",
"239 421 LINE",
"239 387 LINE"
);
}
);
width = 496;
}
);
leftKerningGroup = h;
rightKerningGroup = b;
unicode = 00DF;
},
{
glyphname = t;
lastChange = "2019-06-19 23:42:36 +0000";
layers = (
{
anchors = (
{
name = bottom;
position = "{148, 0}";
},
{
name = center;
position = "{118, 300}";
},
{
name = top;
position = "{118, 769}";
},
{
name = topright;
position = "{186, 600}";
}
);
layerId = "3B122060-26E0-4730-9241-82784E6CB359";
paths = (
{
closed = 1;
nodes = (
"168 -5 OFFCURVE",
"183 -3 OFFCURVE",
"196 0 CURVE",
"196 19 LINE",
"182 16 OFFCURVE",
"176 15 OFFCURVE",
"155 15 CURVE SMOOTH",
"107 15 OFFCURVE",
"103 30 OFFCURVE",
"102 85 CURVE SMOOTH",
"99 232 OFFCURVE",
"101 352 OFFCURVE",
"102 514 CURVE SMOOTH",
"102 591 LINE",
"103 598 LINE",
"104 770 LINE",
"83 770 LINE",
"83 598 LINE",
"82 592 LINE",
"82 514 LINE SMOOTH",
"82 352 OFFCURVE",
"79 232 OFFCURVE",
"82 85 CURVE SMOOTH",
"83 21 OFFCURVE",
"93 -5 OFFCURVE",
"153 -5 CURVE SMOOTH"
);
},
{
closed = 1;
nodes = (
"186 580 LINE",
"186 600 LINE",
"50 600 LINE",
"50 580 LINE"
);
}
);
width = 226;
},
{
anchors = (
{
name = bottom;
position = "{235, 0}";
},
{
name = center;
position = "{190, 300}";
},
{
name = top;
position = "{182, 768}";
},
{
name = topright;
position = "{360, 600}";
}
);
layerId = "1DFA7D5B-2E97-4B89-827F-FB43F8066DC1";
paths = (
{
closed = 1;
nodes = (
"330 -10 OFFCURVE",
"346 -9 OFFCURVE",
"360 -5 CURVE",
"360 102 LINE",
"341 102 OFFCURVE",
"327 101 OFFCURVE",
"312 101 CURVE SMOOTH",
"259 101 OFFCURVE",
"248 115 OFFCURVE",
"247 151 CURVE SMOOTH",
"244 244 OFFCURVE",
"244 389 OFFCURVE",
"245 484 CURVE SMOOTH",
"246 550 LINE",
"249 582 LINE",
"251 770 LINE",
"98 770 LINE",
"98 583 LINE",
"96 563 LINE",
"95 461 LINE SMOOTH",
"95 411 OFFCURVE",
"94 213 OFFCURVE",
"97 168 CURVE SMOOTH",
"105 41 OFFCURVE",
"159 -10 OFFCURVE",
"312 -10 CURVE SMOOTH"
);
},
{
closed = 1;
nodes = (
"350 487 LINE",
"350 600 LINE",
"40 600 LINE",
"40 487 LINE"
);
}
);
width = 390;
}
);
leftKerningGroup = t;
rightKerningGroup = t;
unicode = 0074;
},
{
glyphname = tbar;
lastChange = "2019-06-15 17:19:03 +0000";
layers = (
{
components = (
{
name = t;
transform = "{1, 0, 0, 1, 4, 0}";
}
);
layerId = "3B122060-26E0-4730-9241-82784E6CB359";
paths = (
{
closed = 1;
nodes = (
"186 344 LINE",
"186 364 LINE",
"50 364 LINE",
"50 344 LINE"
);
}
);
width = 230;
},
{
components = (
{
name = t;
}
);
layerId = "1DFA7D5B-2E97-4B89-827F-FB43F8066DC1";
paths = (
{
closed = 1;
nodes = (
"355 305 LINE",
"355 377 LINE",
"45 377 LINE",
"45 305 LINE"
);
}
);
width = 390;
}
);
leftKerningGroup = t;
leftMetricsKey = t;
rightKerningGroup = t;
rightMetricsKey = t;
unicode = 0167;
},
{
glyphname = u;
lastChange = "2019-06-15 19:08:07 +0000";
layers = (
{
anchors = (
{
name = bottom;
position = "{149, 0}";
},
{
name = ogonek;
position = "{227, 1}";
},
{
name = top;
position = "{149, 600}";
},
{
name = topright;
position = "{257, 600}";
}
);
layerId = "3B122060-26E0-4730-9241-82784E6CB359";
paths = (
{
closed = 1;
nodes = (
"62 600 LINE",
"59 463 OFFCURVE",
"60 190 OFFCURVE",
"62 86 CURVE SMOOTH",
"63 21 OFFCURVE",
"84 -5 OFFCURVE",
"136 -5 CURVE SMOOTH",
"170 -5 OFFCURVE",
"196 14 OFFCURVE",
"209 47 CURVE",
"222 47 LINE",
"222 86 LINE",
"217 86 LINE",
"204 40 OFFCURVE",
"175 15 OFFCURVE",
"136 15 CURVE SMOOTH",
"98 15 OFFCURVE",
"83 35 OFFCURVE",
"82 86 CURVE SMOOTH",
"78 289 OFFCURVE",
"80 484 OFFCURVE",
"82 600 CURVE"
);
},
{
closed = 1;
nodes = (
"217 600 LINE",
"217 0 LINE",
"237 0 LINE",
"237 600 LINE"
);
}
);
width = 297;
},
{
anchors = (
{
name = bottom;
position = "{252, 0}";
},
{
name = ogonek;
position = "{381, 10}";
},
{
name = top;
position = "{252, 600}";
},
{
name = topright;
position = "{484, 600}";
}
);
layerId = "1DFA7D5B-2E97-4B89-827F-FB43F8066DC1";
paths = (
{
closed = 1;
nodes = (
"41 600 LINE",
"40 469 OFFCURVE",
"40 286 OFFCURVE",
"43 159 CURVE SMOOTH",
"46 38 OFFCURVE",
"97 -10 OFFCURVE",
"180 -10 CURVE SMOOTH",
"230 -10 OFFCURVE",
"263 11 OFFCURVE",
"294 65 CURVE",
"324 65 LINE",
"324 142 LINE",
"314 142 LINE",
"302 116 OFFCURVE",
"266 99 OFFCURVE",
"239 99 CURVE SMOOTH",
"208 99 OFFCURVE",
"194 114 OFFCURVE",
"193 146 CURVE SMOOTH",
"188 297 OFFCURVE",
"190 454 OFFCURVE",
"191 600 CURVE"
);
},
{
closed = 1;
nodes = (
"314 600 LINE",
"314 0 LINE",
"464 0 LINE",
"464 600 LINE"
);
}
);
width = 504;
}
);
leftKerningGroup = u;
rightKerningGroup = u;
unicode = 0075;
},
{
glyphname = v;
lastChange = "2019-06-15 19:03:46 +0000";
layers = (
{
layerId = "3B122060-26E0-4730-9241-82784E6CB359";
paths = (
{
closed = 1;
nodes = (
"100 0 LINE",
"146 0 LINE",
"217 600 LINE",
"195 600 LINE",
"161 296 LINE",
"129 20 LINE",
"117 20 LINE",
"86 296 LINE",
"52 600 LINE",
"30 600 LINE"
);
}
);
width = 247;
},
{
layerId = "1DFA7D5B-2E97-4B89-827F-FB43F8066DC1";
paths = (
{
closed = 1;
nodes = (
"124 0 LINE",
"360 0 LINE",
"455 600 LINE",
"303 600 LINE",
"263 299 LINE",
"256 110 LINE",
"228 110 LINE",
"221 299 LINE",
"182 600 LINE",
"30 600 LINE"
);
}
);
width = 485;
}
);
leftKerningGroup = v;
rightKerningGroup = v;
unicode = 0076;
},
{
glyphname = w;
lastChange = "2019-06-15 19:14:54 +0000";
layers = (
{
anchors = (
{
name = bottom;
position = "{181, 0}";
},
{
name = top;
position = "{181, 600}";
}
);
layerId = "3B122060-26E0-4730-9241-82784E6CB359";
paths = (
{
closed = 1;
nodes = (
"121 0 LINE",
"142 228 LINE",
"175 575 LINE",
"187 575 LINE",
"219 228 LINE",
"240 0 LINE",
"286 0 LINE",
"342 600 LINE",
"322 600 LINE",
"294 296 LINE",
"269 20 LINE",
"257 20 LINE",
"233 296 LINE",
"205 595 LINE",
"157 595 LINE",
"128 296 LINE",
"104 20 LINE",
"92 20 LINE",
"68 296 LINE",
"40 600 LINE",
"20 600 LINE",
"75 0 LINE"
);
}
);
width = 362;
},
{
anchors = (
{
name = bottom;
position = "{388, 0}";
},
{
name = top;
position = "{388, 600}";
}
);
layerId = "1DFA7D5B-2E97-4B89-827F-FB43F8066DC1";
paths = (
{
closed = 1;
nodes = (
"345 0 LINE",
"366 234 LINE",
"373 490 LINE",
"401 490 LINE",
"408 234 LINE",
"429 0 LINE",
"670 0 LINE",
"755 600 LINE",
"603 600 LINE",
"573 299 LINE",
"566 110 LINE",
"538 110 LINE",
"531 299 LINE",
"502 600 LINE",
"273 600 LINE",
"243 299 LINE",
"236 110 LINE",
"208 110 LINE",
"201 299 LINE",
"172 600 LINE",
"20 600 LINE",
"104 0 LINE"
);
}
);
width = 775;
}
);
leftKerningGroup = w;
rightKerningGroup = w;
unicode = 0077;
},
{
glyphname = x;
lastChange = "2019-06-20 16:34:40 +0000";
layers = (
{
background = {
paths = (
{
closed = 1;
nodes = (
"28 0 LINE",
"67 154 LINE",
"101 290 LINE",
"113 290 LINE",
"147 154 LINE",
"186 0 LINE",
"208 0 LINE",
"129 309 LINE",
"129 291 LINE",
"204 600 LINE",
"182 600 LINE",
"154 482 LINE",
"113 310 LINE",
"101 310 LINE",
"60 482 LINE",
"32 600 LINE",
"10 600 LINE",
"84 291 LINE",
"84 309 LINE",
"6 0 LINE"
);
},
{
closed = 0;
nodes = (
"32 600 LINE",
"186 0 LINE"
);
},
{
closed = 0;
nodes = (
"186 600 LINE",
"32 0 LINE"
);
}
);
};
layerId = "3B122060-26E0-4730-9241-82784E6CB359";
paths = (
{
closed = 1;
nodes = (
"50 0 LINE",
"87 164 LINE",
"116 292 LINE",
"122 292 LINE",
"153 164 LINE",
"190 0 LINE",
"210 0 LINE",
"137 310 LINE",
"137 292 LINE",
"208 600 LINE",
"188 600 LINE",
"158 466 LINE",
"123 312 LINE",
"115 312 LINE",
"81 466 LINE",
"52 600 LINE",
"32 600 LINE",
"101 292 LINE",
"101 310 LINE",
"30 0 LINE"
);
}
);
width = 240;
},
{
background = {
paths = (
{
closed = 1;
nodes = (
"159 300 LINE",
"5 600 LINE",
"155 600 LINE",
"234 447 LINE",
"312 600 LINE",
"462 600 LINE",
"309 300 LINE",
"462 0 LINE",
"312 0 LINE",
"234 153 LINE",
"155 0 LINE",
"5 0 LINE"
);
}
);
};
layerId = "1DFA7D5B-2E97-4B89-827F-FB43F8066DC1";
paths = (
{
closed = 1;
nodes = (
"175 0 LINE",
"214 149 LINE",
"220 270 LINE",
"248 270 LINE",
"254 149 LINE",
"292 0 LINE",
"437 0 LINE",
"314 379 LINE",
"314 255 LINE",
"435 600 LINE",
"290 600 LINE",
"254 476 LINE",
"248 378 LINE",
"220 378 LINE",
"214 476 LINE",
"177 600 LINE",
"32 600 LINE",
"154 261 LINE",
"154 381 LINE",
"30 0 LINE"
);
}
);
width = 467;
},
{
associatedMasterId = "3B122060-26E0-4730-9241-82784E6CB359";
layerId = "80DE80F7-E1DE-4FA0-A60F-FF154ADB3527";
name = "thin {300, 257}";
paths = (
{
closed = 1;
nodes = (
"81 0 LINE",
"119 160 LINE",
"145 287 LINE",
"157 287 LINE",
"184 160 LINE",
"222 0 LINE",
"273 0 LINE",
"189 327 LINE",
"189 283 LINE",
"271 600 LINE",
"220 600 LINE",
"188 469 LINE",
"157 329 LINE",
"144 329 LINE",
"114 469 LINE",
"83 600 LINE",
"32 600 LINE",
"112 284 LINE",
"112 328 LINE",
"30 0 LINE"
);
}
);
width = 303;
}
);
leftKerningGroup = x;
rightKerningGroup = x;
unicode = 0078;
},
{
glyphname = y;
lastChange = "2019-06-19 20:49:31 +0000";
layers = (
{
anchors = (
{
name = bottom;
position = "{128, -140}";
},
{
name = top;
position = "{128, 600}";
}
);
layerId = "3B122060-26E0-4730-9241-82784E6CB359";
paths = (
{
closed = 1;
nodes = (
"112 -109 LINE SMOOTH",
"105 -164 OFFCURVE",
"96 -180 OFFCURVE",
"49 -180 CURVE SMOOTH",
"28 -180 OFFCURVE",
"12 -178 OFFCURVE",
"-2 -175 CURVE",
"-2 -194 LINE",
"11 -197 OFFCURVE",
"36 -199 OFFCURVE",
"51 -199 CURVE SMOOTH",
"105 -199 OFFCURVE",
"124 -173 OFFCURVE",
"132 -109 CURVE SMOOTH",
"216 600 LINE",
"194 600 LINE",
"160 296 LINE",
"128 20 LINE",
"116 20 LINE",
"85 296 LINE",
"51 600 LINE",
"29 600 LINE",
"99 0 LINE",
"126 0 LINE"
);
}
);
width = 246;
},
{
anchors = (
{
name = bottom;
position = "{231, -160}";
},
{
name = top;
position = "{231, 600}";
}
);
layerId = "1DFA7D5B-2E97-4B89-827F-FB43F8066DC1";
paths = (
{
closed = 1;
nodes = (
"194 -45 LINE SMOOTH",
"189 -81 OFFCURVE",
"172 -95 OFFCURVE",
"119 -95 CURVE SMOOTH",
"100 -95 OFFCURVE",
"64 -94 OFFCURVE",
"46 -93 CURVE",
"46 -204 LINE",
"70 -208 OFFCURVE",
"96 -211 OFFCURVE",
"119 -211 CURVE SMOOTH",
"272 -211 OFFCURVE",
"324 -159 OFFCURVE",
"344 -33 CURVE SMOOTH",
"445 600 LINE",
"293 600 LINE",
"266 329 LINE",
"253 110 LINE",
"225 110 LINE",
"208 329 LINE",
"172 600 LINE",
"20 600 LINE",
"134 0 LINE",
"200 0 LINE"
);
}
);
width = 465;
},
{
anchors = (
{
name = bottom;
position = "{158, -145}";
},
{
name = top;
position = "{158, 600}";
}
);
associatedMasterId = "3B122060-26E0-4730-9241-82784E6CB359";
layerId = "2531D280-CFBB-4061-8DD0-896B3C41C45F";
name = "thin {300, 257}";
paths = (
{
closed = 1;
nodes = (
"137 -93 LINE SMOOTH",
"130 -143 OFFCURVE",
"119 -159 OFFCURVE",
"71 -159 CURVE SMOOTH",
"50 -159 OFFCURVE",
"29 -157 OFFCURVE",
"14 -155 CURVE",
"14 -197 LINE",
"30 -200 OFFCURVE",
"55 -202 OFFCURVE",
"72 -202 CURVE SMOOTH",
"151 -202 OFFCURVE",
"178 -170 OFFCURVE",
"189 -90 CURVE SMOOTH",
"277 600 LINE",
"223 600 LINE",
"191 304 LINE",
"158 43 LINE",
"143 43 LINE",
"112 304 LINE",
"77 600 LINE",
"23 600 LINE",
"104 0 LINE",
"149 0 LINE"
);
}
);
width = 305;
}
);
leftKerningGroup = y;
rightKerningGroup = y;
unicode = 0079;
},
{
glyphname = z;
lastChange = "2019-06-15 19:09:22 +0000";
layers = (
{
anchors = (
{
name = bottom;
position = "{120, 0}";
},
{
name = center;
position = "{120, 300}";
},
{
name = top;
position = "{120, 600}";
}
);
layerId = "3B122060-26E0-4730-9241-82784E6CB359";
paths = (
{
closed = 1;
nodes = (
"200 0 LINE",
"200 20 LINE",
"50 20 LINE",
"50 10 LINE",
"209 585 LINE",
"209 600 LINE",
"34 598 LINE",
"34 578 LINE",
"188 580 LINE",
"188 590 LINE",
"30 15 LINE",
"30 0 LINE"
);
}
);
width = 239;
},
{
anchors = (
{
name = bottom;
position = "{201, 0}";
},
{
name = center;
position = "{201, 300}";
},
{
name = top;
position = "{201, 600}";
}
);
layerId = "1DFA7D5B-2E97-4B89-827F-FB43F8066DC1";
paths = (
{
closed = 1;
nodes = (
"381 0 LINE",
"381 110 LINE",
"146 110 LINE",
"154 69 LINE",
"382 502 LINE",
"382 600 LINE",
"24 600 LINE",
"24 490 LINE",
"269 490 LINE",
"237 517 LINE",
"20 95 LINE",
"20 0 LINE"
);
}
);
width = 402;
}
);
leftKerningGroup = z;
rightKerningGroup = z;
unicode = 007A;
},
{
glyphname = a.ss01;
lastChange = "2019-06-19 20:50:30 +0000";
layers = (
{
anchors = (
{
name = bottom;
position = "{129, 0}";
},
{
name = ogonek;
position = "{205, 1}";
},
{
name = top;
position = "{129, 600}";
}
);
background = {
paths = (
{
closed = 0;
nodes = (
"30 179 LINE SMOOTH",
"30 259 OFFCURVE",
"50 293 OFFCURVE",
"98 311 CURVE SMOOTH"
);
},
{
closed = 0;
nodes = (
"100 289 LINE SMOOTH",
"56 272 OFFCURVE",
"53 221 OFFCURVE",
"51 179 CURVE SMOOTH"
);
}
);
};
layerId = "3B122060-26E0-4730-9241-82784E6CB359";
paths = (
{
closed = 1;
nodes = (
"215 0 LINE",
"216 197 OFFCURVE",
"216 321 OFFCURVE",
"215 509 CURVE SMOOTH",
"215 574 OFFCURVE",
"193 600 OFFCURVE",
"141 600 CURVE SMOOTH",
"115 600 OFFCURVE",
"65 600 OFFCURVE",
"52 600 CURVE",
"52 580 LINE",
"69 580 OFFCURVE",
"124 580 OFFCURVE",
"141 580 CURVE SMOOTH",
"179 580 OFFCURVE",
"195 560 OFFCURVE",
"195 509 CURVE SMOOTH",
"196 321 OFFCURVE",
"196 197 OFFCURVE",
"195 0 CURVE"
);
},
{
closed = 1;
nodes = (
"150 -5 OFFCURVE",
"176 14 OFFCURVE",
"189 47 CURVE",
"202 47 LINE",
"202 86 LINE",
"197 86 LINE",
"184 40 OFFCURVE",
"155 15 OFFCURVE",
"116 15 CURVE SMOOTH",
"78 15 OFFCURVE",
"64 35 OFFCURVE",
"62 86 CURVE SMOOTH",
"60 137 OFFCURVE",
"60 165 OFFCURVE",
"61 206 CURVE SMOOTH",
"62 279 OFFCURVE",
"68 312 OFFCURVE",
"113 331 CURVE SMOOTH",
"149 346 OFFCURVE",
"179 349 OFFCURVE",
"207 351 CURVE",
"207 371 LINE",
"179 369 OFFCURVE",
"141 364 OFFCURVE",
"113 352 CURVE SMOOTH",
"47 324 OFFCURVE",
"42 287 OFFCURVE",
"41 206 CURVE SMOOTH",
"40 165 OFFCURVE",
"40 137 OFFCURVE",
"42 86 CURVE SMOOTH",
"44 21 OFFCURVE",
"64 -5 OFFCURVE",
"116 -5 CURVE SMOOTH"
);
}
);
width = 276;
},
{
anchors = (
{
name = bottom;
position = "{236, 0}";
},
{
name = ogonek;
position = "{357, 10}";
},
{
name = top;
position = "{236, 600}";
}
);
background = {
paths = (
{
closed = 1;
nodes = (
"430 0 LINE",
"431 131 OFFCURVE",
"433 333 OFFCURVE",
"428 412 CURVE SMOOTH",
"420 555 OFFCURVE",
"373 610 OFFCURVE",
"222 610 CURVE SMOOTH",
"168 610 OFFCURVE",
"73 603 OFFCURVE",
"57 600 CURVE",
"57 487 LINE",
"95 487 OFFCURVE",
"186 487 OFFCURVE",
"224 487 CURVE SMOOTH",
"263 487 OFFCURVE",
"278 469 OFFCURVE",
"279 437 CURVE SMOOTH",
"284 281 OFFCURVE",
"281 146 OFFCURVE",
"280 0 CURVE"
);
},
{
closed = 1;
nodes = (
"208 -8 OFFCURVE",
"230 11 OFFCURVE",
"261 65 CURVE",
"291 65 LINE",
"291 142 LINE",
"281 142 LINE",
"269 116 OFFCURVE",
"243 99 OFFCURVE",
"216 99 CURVE SMOOTH",
"185 99 OFFCURVE",
"170 116 OFFCURVE",
"170 148 CURVE SMOOTH",
"170 164 OFFCURVE",
"170 221 OFFCURVE",
"170 232 CURVE SMOOTH",
"170 259 OFFCURVE",
"173 282 OFFCURVE",
"211 292 CURVE SMOOTH",
"242 300 OFFCURVE",
"294 301 OFFCURVE",
"306 301 CURVE",
"302 396 LINE",
"257 394 OFFCURVE",
"215 390 OFFCURVE",
"172 382 CURVE SMOOTH",
"57 360 OFFCURVE",
"20 310 OFFCURVE",
"20 210 CURVE SMOOTH",
"20 196 OFFCURVE",
"20 173 OFFCURVE",
"20 159 CURVE SMOOTH",
"20 48 OFFCURVE",
"74 -8 OFFCURVE",
"158 -8 CURVE SMOOTH"
);
}
);
};
layerId = "1DFA7D5B-2E97-4B89-827F-FB43F8066DC1";
paths = (
{
closed = 1;
nodes = (
"440 0 LINE",
"441 131 OFFCURVE",
"443 333 OFFCURVE",
"438 412 CURVE SMOOTH",
"430 555 OFFCURVE",
"383 610 OFFCURVE",
"232 610 CURVE SMOOTH",
"178 610 OFFCURVE",
"83 603 OFFCURVE",
"67 600 CURVE",
"67 487 LINE",
"105 487 OFFCURVE",
"196 487 OFFCURVE",
"234 487 CURVE SMOOTH",
"273 487 OFFCURVE",
"288 469 OFFCURVE",
"289 437 CURVE SMOOTH",
"294 281 OFFCURVE",
"291 146 OFFCURVE",
"290 0 CURVE"
);
},
{
closed = 1;
nodes = (
"218 -8 OFFCURVE",
"251 11 OFFCURVE",
"271 65 CURVE",
"301 65 LINE",
"301 142 LINE",
"291 142 LINE",
"279 116 OFFCURVE",
"253 99 OFFCURVE",
"226 99 CURVE SMOOTH",
"195 99 OFFCURVE",
"180 116 OFFCURVE",
"180 148 CURVE SMOOTH",
"180 164 OFFCURVE",
"180 221 OFFCURVE",
"180 232 CURVE SMOOTH",
"180 259 OFFCURVE",
"183 282 OFFCURVE",
"221 292 CURVE SMOOTH",
"252 300 OFFCURVE",
"304 301 OFFCURVE",
"316 301 CURVE",
"312 396 LINE",
"267 394 OFFCURVE",
"225 390 OFFCURVE",
"182 382 CURVE SMOOTH",
"67 360 OFFCURVE",
"30 310 OFFCURVE",
"30 210 CURVE SMOOTH",
"30 196 OFFCURVE",
"30 173 OFFCURVE",
"30 159 CURVE SMOOTH",
"30 48 OFFCURVE",
"84 -8 OFFCURVE",
"168 -8 CURVE SMOOTH"
);
}
);
width = 481;
},
{
anchors = (
{
name = bottom;
position = "{156, 0}";
},
{
name = ogonek;
position = "{243, 3}";
},
{
name = top;
position = "{156, 600}";
}
);
associatedMasterId = "3B122060-26E0-4730-9241-82784E6CB359";
background = {
paths = (
{
closed = 0;
nodes = (
"30 179 LINE SMOOTH",
"30 259 OFFCURVE",
"50 293 OFFCURVE",
"98 311 CURVE SMOOTH"
);
},
{
closed = 0;
nodes = (
"100 289 LINE SMOOTH",
"56 272 OFFCURVE",
"53 221 OFFCURVE",
"51 179 CURVE SMOOTH"
);
}
);
};
layerId = "B427D2ED-8CCB-4B6E-89B9-5AF52025650D";
name = "thin {300, 257}";
paths = (
{
closed = 1;
nodes = (
"271 0 LINE",
"272 181 OFFCURVE",
"273 324 OFFCURVE",
"271 485 CURVE SMOOTH",
"269 569 OFFCURVE",
"241 603 OFFCURVE",
"164 603 CURVE SMOOTH",
"131 603 OFFCURVE",
"70 601 OFFCURVE",
"56 600 CURVE",
"56 552 LINE",
"78 552 OFFCURVE",
"142 552 OFFCURVE",
"164 552 CURVE SMOOTH",
"203 552 OFFCURVE",
"218 532 OFFCURVE",
"219 486 CURVE SMOOTH",
"221 306 OFFCURVE",
"220 184 OFFCURVE",
"219 0 CURVE"
);
},
{
closed = 1;
nodes = (
"167 -6 OFFCURVE",
"195 13 OFFCURVE",
"210 52 CURVE",
"227 52 LINE",
"227 100 LINE",
"221 100 LINE",
"208 59 OFFCURVE",
"180 36 OFFCURVE",
"144 36 CURVE SMOOTH",
"107 36 OFFCURVE",
"93 55 OFFCURVE",
"92 102 CURVE SMOOTH",
"90 144 OFFCURVE",
"90 179 OFFCURVE",
"91 213 CURVE SMOOTH",
"92 274 OFFCURVE",
"97 295 OFFCURVE",
"140 311 CURVE SMOOTH",
"175 325 OFFCURVE",
"210 327 OFFCURVE",
"234 329 CURVE",
"233 377 LINE",
"201 375 OFFCURVE",
"162 371 OFFCURVE",
"130 360 CURVE SMOOTH",
"52 333 OFFCURVE",
"39 293 OFFCURVE",
"38 207 CURVE SMOOTH",
"38 173 OFFCURVE",
"38 146 OFFCURVE",
"39 104 CURVE SMOOTH",
"41 28 OFFCURVE",
"69 -6 OFFCURVE",
"129 -6 CURVE SMOOTH"
);
}
);
width = 327;
}
);
leftKerningGroup = a;
rightKerningGroup = a;
},
{
glyphname = g.ss01;
lastChange = "2019-06-15 17:07:23 +0000";
layers = (
{
anchors = (
{
name = bottom;
position = "{142, -200}";
},
{
name = top;
position = "{142, 600}";
}
);
layerId = "3B122060-26E0-4730-9241-82784E6CB359";
paths = (
{
closed = 1;
nodes = (
"197 -200 OFFCURVE",
"229 -174 OFFCURVE",
"230 -110 CURVE SMOOTH",
"232 20 OFFCURVE",
"231 179 OFFCURVE",
"230 344 CURVE SMOOTH",
"229 600 LINE",
"209 600 LINE",
"210 344 LINE SMOOTH",
"211 178 OFFCURVE",
"213 20 OFFCURVE",
"210 -110 CURVE SMOOTH",
"209 -165 OFFCURVE",
"183 -180 OFFCURVE",
"135 -180 CURVE SMOOTH",
"99 -180 OFFCURVE",
"74 -176 OFFCURVE",
"60 -172 CURVE",
"60 -191 LINE",
"73 -195 OFFCURVE",
"99 -200 OFFCURVE",
"137 -200 CURVE SMOOTH"
);
},
{
closed = 1;
nodes = (
"165 -5 OFFCURVE",
"189 10 OFFCURVE",
"204 47 CURVE",
"217 47 LINE",
"217 86 LINE",
"212 86 LINE",
"198 35 OFFCURVE",
"172 15 OFFCURVE",
"128 15 CURVE SMOOTH",
"90 15 OFFCURVE",
"77 35 OFFCURVE",
"74 86 CURVE SMOOTH",
"66 214 OFFCURVE",
"67 337 OFFCURVE",
"74 514 CURVE SMOOTH",
"76 565 OFFCURVE",
"91 585 OFFCURVE",
"129 585 CURVE SMOOTH",
"172 585 OFFCURVE",
"195 565 OFFCURVE",
"209 514 CURVE",
"217 514 LINE",
"217 553 LINE",
"202 553 LINE",
"187 590 OFFCURVE",
"166 605 OFFCURVE",
"129 605 CURVE SMOOTH",
"77 605 OFFCURVE",
"56 579 OFFCURVE",
"54 514 CURVE SMOOTH",
"49 337 OFFCURVE",
"48 214 OFFCURVE",
"54 86 CURVE SMOOTH",
"57 21 OFFCURVE",
"76 -5 OFFCURVE",
"128 -5 CURVE SMOOTH"
);
}
);
width = 291;
},
{
anchors = (
{
name = bottom;
position = "{251, -200}";
},
{
name = top;
position = "{251, 600}";
}
);
layerId = "1DFA7D5B-2E97-4B89-827F-FB43F8066DC1";
paths = (
{
closed = 1;
nodes = (
"388 -211 OFFCURVE",
"452 -160 OFFCURVE",
"460 -33 CURVE SMOOTH",
"463 12 OFFCURVE",
"462 210 OFFCURVE",
"462 260 CURVE SMOOTH",
"459 600 LINE",
"309 600 LINE",
"312 283 LINE SMOOTH",
"313 188 OFFCURVE",
"313 51 OFFCURVE",
"310 -42 CURVE SMOOTH",
"309 -78 OFFCURVE",
"288 -92 OFFCURVE",
"235 -92 CURVE SMOOTH",
"178 -92 OFFCURVE",
"99 -83 OFFCURVE",
"61 -76 CURVE",
"61 -185 LINE",
"99 -198 OFFCURVE",
"169 -211 OFFCURVE",
"235 -211 CURVE SMOOTH"
);
},
{
closed = 1;
nodes = (
"239 -10 OFFCURVE",
"264 17 OFFCURVE",
"292 65 CURVE",
"323 65 LINE",
"323 142 LINE",
"313 142 LINE",
"301 116 OFFCURVE",
"265 99 OFFCURVE",
"238 99 CURVE SMOOTH",
"207 99 OFFCURVE",
"194 114 OFFCURVE",
"192 146 CURVE SMOOTH",
"187 224 OFFCURVE",
"187 367 OFFCURVE",
"192 454 CURVE SMOOTH",
"194 486 OFFCURVE",
"207 501 OFFCURVE",
"238 501 CURVE SMOOTH",
"265 501 OFFCURVE",
"301 484 OFFCURVE",
"313 458 CURVE",
"323 458 LINE",
"323 535 LINE",
"292 535 LINE",
"264 583 OFFCURVE",
"241 610 OFFCURVE",
"178 610 CURVE SMOOTH",
"95 610 OFFCURVE",
"48 562 OFFCURVE",
"42 441 CURVE SMOOTH",
"39 378 OFFCURVE",
"39 222 OFFCURVE",
"42 159 CURVE SMOOTH",
"48 38 OFFCURVE",
"93 -10 OFFCURVE",
"176 -10 CURVE SMOOTH"
);
}
);
width = 502;
}
);
leftKerningGroup = g;
rightKerningGroup = g;
},
{
glyphname = f_f;
lastChange = "2019-06-15 16:19:00 +0000";
layers = (
{
layerId = "3B122060-26E0-4730-9241-82784E6CB359";
paths = (
{
closed = 1;
nodes = (
"277 -5 LINE",
"276 251 LINE SMOOTH",
"275 413 OFFCURVE",
"273 569 OFFCURVE",
"276 716 CURVE SMOOTH",
"277 771 OFFCURVE",
"291 786 OFFCURVE",
"339 786 CURVE SMOOTH",
"360 786 OFFCURVE",
"376 784 OFFCURVE",
"390 781 CURVE",
"390 800 LINE",
"377 803 OFFCURVE",
"352 806 OFFCURVE",
"337 806 CURVE SMOOTH",
"277 806 OFFCURVE",
"257 780 OFFCURVE",
"256 716 CURVE SMOOTH",
"254 569 OFFCURVE",
"255 411 OFFCURVE",
"256 251 CURVE SMOOTH",
"257 -5 LINE"
);
},
{
closed = 1;
nodes = (
"83 -5 LINE",
"82 251 LINE SMOOTH",
"81 413 OFFCURVE",
"79 569 OFFCURVE",
"82 716 CURVE SMOOTH",
"83 771 OFFCURVE",
"97 786 OFFCURVE",
"145 786 CURVE SMOOTH",
"166 786 OFFCURVE",
"182 784 OFFCURVE",
"196 781 CURVE",
"196 800 LINE",
"183 803 OFFCURVE",
"158 806 OFFCURVE",
"143 806 CURVE SMOOTH",
"83 806 OFFCURVE",
"63 780 OFFCURVE",
"62 716 CURVE SMOOTH",
"60 569 OFFCURVE",
"61 413 OFFCURVE",
"62 251 CURVE SMOOTH",
"63 -5 LINE"
);
},
{
closed = 1;
nodes = (
"380 580 LINE",
"380 600 LINE",
"30 600 LINE",
"30 580 LINE"
);
}
);
width = 400;
},
{
layerId = "1DFA7D5B-2E97-4B89-827F-FB43F8066DC1";
paths = (
{
closed = 1;
nodes = (
"563 -1 LINE",
"560 316 LINE SMOOTH",
"559 400 OFFCURVE",
"560 569 OFFCURVE",
"562 644 CURVE SMOOTH",
"563 676 OFFCURVE",
"583 694 OFFCURVE",
"617 694 CURVE SMOOTH",
"636 694 OFFCURVE",
"671 694 OFFCURVE",
"690 694 CURVE",
"690 803 LINE",
"666 807 OFFCURVE",
"640 810 OFFCURVE",
"617 810 CURVE SMOOTH",
"479 810 OFFCURVE",
"418 759 OFFCURVE",
"412 632 CURVE SMOOTH",
"409 569 OFFCURVE",
"409 400 OFFCURVE",
"410 339 CURVE SMOOTH",
"413 -1 LINE"
);
},
{
closed = 1;
nodes = (
"248 -1 LINE",
"245 316 LINE SMOOTH",
"244 400 OFFCURVE",
"245 569 OFFCURVE",
"247 644 CURVE SMOOTH",
"248 676 OFFCURVE",
"268 694 OFFCURVE",
"302 694 CURVE SMOOTH",
"321 694 OFFCURVE",
"356 694 OFFCURVE",
"375 694 CURVE",
"375 803 LINE",
"351 807 OFFCURVE",
"325 810 OFFCURVE",
"302 810 CURVE SMOOTH",
"164 810 OFFCURVE",
"103 759 OFFCURVE",
"97 632 CURVE SMOOTH",
"94 569 OFFCURVE",
"94 400 OFFCURVE",
"95 339 CURVE SMOOTH",
"98 -1 LINE"
);
},
{
closed = 1;
nodes = (
"665 487 LINE",
"665 600 LINE",
"30 600 LINE",
"30 487 LINE"
);
}
);
width = 700;
}
);
leftKerningGroup = f;
leftMetricsKey = f;
rightKerningGroup = f;
rightMetricsKey = f;
},
{
glyphname = t_t;
lastChange = "2019-06-17 19:33:35 +0000";
layers = (
{
anchors = (
{
name = bottom;
position = "{344, 0}";
},
{
name = center;
position = "{314, 300}";
},
{
name = top;
position = "{314, 769}";
},
{
name = topright;
position = "{382, 600}";
}
);
components = (
{
name = t;
}
);
layerId = "3B122060-26E0-4730-9241-82784E6CB359";
paths = (
{
closed = 1;
nodes = (
"344 -5 OFFCURVE",
"359 -3 OFFCURVE",
"372 0 CURVE",
"372 19 LINE",
"358 16 OFFCURVE",
"352 15 OFFCURVE",
"331 15 CURVE SMOOTH",
"283 15 OFFCURVE",
"279 30 OFFCURVE",
"278 85 CURVE SMOOTH",
"275 232 OFFCURVE",
"278 352 OFFCURVE",
"278 514 CURVE SMOOTH",
"278 591 LINE",
"279 598 LINE",
"280 770 LINE",
"259 770 LINE",
"259 598 LINE",
"258 592 LINE",
"258 514 LINE SMOOTH",
"258 352 OFFCURVE",
"256 232 OFFCURVE",
"258 85 CURVE SMOOTH",
"259 21 OFFCURVE",
"269 -5 OFFCURVE",
"329 -5 CURVE SMOOTH"
);
},
{
closed = 1;
nodes = (
"362 580 LINE",
"362 600 LINE",
"153 600 LINE",
"153 580 LINE"
);
}
);
width = 402;
},
{
anchors = (
{
name = bottom;
position = "{575, 0}";
},
{
name = center;
position = "{530, 300}";
},
{
name = top;
position = "{522, 768}";
},
{
name = topright;
position = "{700, 600}";
}
);
components = (
{
name = t;
}
);
layerId = "1DFA7D5B-2E97-4B89-827F-FB43F8066DC1";
paths = (
{
closed = 1;
nodes = (
"670 -10 OFFCURVE",
"686 -9 OFFCURVE",
"700 -5 CURVE",
"700 102 LINE",
"681 102 OFFCURVE",
"667 101 OFFCURVE",
"652 101 CURVE SMOOTH",
"599 101 OFFCURVE",
"588 115 OFFCURVE",
"587 151 CURVE SMOOTH",
"584 244 OFFCURVE",
"584 389 OFFCURVE",
"585 484 CURVE SMOOTH",
"586 550 LINE",
"589 582 LINE",
"591 770 LINE",
"438 770 LINE",
"438 583 LINE",
"436 563 LINE",
"435 461 LINE SMOOTH",
"435 411 OFFCURVE",
"434 213 OFFCURVE",
"437 168 CURVE SMOOTH",
"445 41 OFFCURVE",
"499 -10 OFFCURVE",
"652 -10 CURVE SMOOTH"
);
},
{
closed = 1;
nodes = (
"690 487 LINE",
"690 600 LINE",
"285 600 LINE",
"285 487 LINE"
);
}
);
width = 730;
}
);
leftKerningGroup = t;
leftMetricsKey = t;
rightKerningGroup = t;
rightMetricsKey = t;
},
{
glyphname = a.sc;
lastChange = "2019-06-14 01:43:58 +0000";
layers = (
{
anchors = (
{
name = bottom;
position = "{127, 0}";
},
{
name = ogonek;
position = "{214, 1}";
},
{
name = top;
position = "{127, 696}";
}
);
layerId = "3B122060-26E0-4730-9241-82784E6CB359";
paths = (
{
closed = 1;
nodes = (
"50 0 LINE",
"90 401 LINE",
"118 677 LINE",
"136 677 LINE",
"164 402 LINE",
"204 0 LINE",
"224 0 LINE",
"153 696 LINE",
"101 696 LINE",
"30 0 LINE"
);
},
{
closed = 1;
nodes = (
"188 232 LINE",
"188 251 LINE",
"65 251 LINE",
"65 232 LINE"
);
}
);
userData = {
RMXScaler = {
height = 87;
};
};
width = 254;
},
{
anchors = (
{
name = bottom;
position = "{251, 0}";
},
{
name = ogonek;
position = "{391, 13}";
},
{
name = top;
position = "{251, 696}";
}
);
color = -1;
layerId = "1DFA7D5B-2E97-4B89-827F-FB43F8066DC1";
paths = (
{
closed = 1;
nodes = (
"176 0 LINE",
"224 415 LINE",
"237 572 LINE",
"264 572 LINE",
"277 415 LINE",
"326 0 LINE",
"472 0 LINE",
"363 696 LINE",
"139 696 LINE",
"30 0 LINE"
);
},
{
closed = 1;
nodes = (
"340 137 LINE",
"340 261 LINE",
"167 261 LINE",
"167 137 LINE"
);
}
);
userData = {
RMXScaler = {
height = 87;
weight = -50;
};
};
width = 502;
}
);
leftKerningGroup = a.sc;
rightKerningGroup = a.sc;
userData = {
RMXScaler = {
source = A;
};
};
},
{
glyphname = ae.sc;
lastChange = "2019-06-15 17:19:14 +0000";
layers = (
{
anchors = (
{
name = bottom;
position = "{187, 0}";
},
{
name = ogonek;
position = "{332, 1}";
},
{
name = top;
position = "{222, 696}";
},
{
name = topleft;
position = "{163, 696}";
}
);
layerId = "3B122060-26E0-4730-9241-82784E6CB359";
paths = (
{
closed = 1;
nodes = (
"50 0 LINE",
"113 401 LINE",
"158 677 LINE",
"176 677 LINE",
"193 696 LINE",
"141 696 LINE",
"30 0 LINE"
);
},
{
closed = 1;
nodes = (
"187 232 LINE",
"187 251 LINE",
"84 251 LINE",
"84 232 LINE"
);
},
{
closed = 1;
nodes = (
"203 0 LINE",
"203 696 LINE",
"183 696 LINE",
"183 0 LINE"
);
},
{
closed = 1;
nodes = (
"342 0 LINE",
"342 19 LINE",
"198 19 LINE",
"198 0 LINE"
);
},
{
closed = 1;
nodes = (
"332 339 LINE",
"332 358 LINE",
"198 358 LINE",
"198 339 LINE"
);
},
{
closed = 1;
nodes = (
"342 677 LINE",
"342 696 LINE",
"198 696 LINE",
"198 677 LINE"
);
}
);
userData = {
RMXScaler = {
height = 87;
};
};
width = 392;
},
{
anchors = (
{
name = bottom;
position = "{360, 0}";
},
{
name = ogonek;
position = "{661, 9}";
},
{
name = top;
position = "{409, 696}";
},
{
name = topleft;
position = "{306, 696}";
}
);
color = -1;
layerId = "1DFA7D5B-2E97-4B89-827F-FB43F8066DC1";
paths = (
{
closed = 1;
nodes = (
"185 0 LINE",
"277 377 LINE",
"301 572 LINE",
"435 572 LINE",
"436 696 LINE",
"193 696 LINE",
"30 0 LINE"
);
},
{
closed = 1;
nodes = (
"349 137 LINE",
"349 261 LINE",
"178 261 LINE",
"178 137 LINE"
);
},
{
closed = 1;
nodes = (
"468 0 LINE",
"468 696 LINE",
"326 696 LINE",
"326 0 LINE"
);
},
{
closed = 1;
nodes = (
"661 0 LINE",
"661 124 LINE",
"401 124 LINE",
"401 0 LINE"
);
},
{
closed = 1;
nodes = (
"651 293 LINE",
"651 417 LINE",
"401 417 LINE",
"401 293 LINE"
);
},
{
closed = 1;
nodes = (
"661 572 LINE",
"661 696 LINE",
"401 696 LINE",
"401 572 LINE"
);
}
);
userData = {
RMXScaler = {
height = 87;
weight = -50;
};
};
width = 691;
}
);
leftKerningGroup = a.sc;
leftMetricsKey = a.sc;
rightKerningGroup = e.sc;
rightMetricsKey = e.sc;
userData = {
RMXScaler = {
source = AE;
};
};
},
{
glyphname = b.sc;
lastChange = "2019-06-15 17:08:00 +0000";
layers = (
{
layerId = "3B122060-26E0-4730-9241-82784E6CB359";
paths = (
{
closed = 1;
nodes = (
"141 349 LINE SMOOTH",
"200 349 OFFCURVE",
"226 368 OFFCURVE",
"228 425 CURVE SMOOTH",
"230 479 OFFCURVE",
"230 542 OFFCURVE",
"228 613 CURVE SMOOTH",
"226 672 OFFCURVE",
"201 696 OFFCURVE",
"142 696 CURVE SMOOTH",
"71 696 LINE",
"71 677 LINE",
"142 677 LINE SMOOTH",
"178 677 OFFCURVE",
"206 667 OFFCURVE",
"208 613 CURVE SMOOTH",
"211 546 OFFCURVE",
"211 497 OFFCURVE",
"208 426 CURVE SMOOTH",
"206 377 OFFCURVE",
"187 358 OFFCURVE",
"141 358 CURVE SMOOTH",
"75 358 LINE",
"75 349 LINE"
);
},
{
closed = 1;
nodes = (
"80 0 LINE",
"80 696 LINE",
"60 696 LINE",
"60 0 LINE"
);
},
{
closed = 1;
nodes = (
"185 339 LINE",
"185 356 LINE",
"73 356 LINE",
"73 339 LINE"
);
},
{
closed = 1;
nodes = (
"76 339 LINE",
"137 339 LINE SMOOTH",
"186 339 OFFCURVE",
"207 319 OFFCURVE",
"209 271 CURVE SMOOTH",
"212 203 OFFCURVE",
"212 150 OFFCURVE",
"209 83 CURVE SMOOTH",
"207 29 OFFCURVE",
"179 19 OFFCURVE",
"143 19 CURVE SMOOTH",
"72 19 LINE",
"72 0 LINE",
"143 0 LINE SMOOTH",
"202 0 OFFCURVE",
"227 24 OFFCURVE",
"229 83 CURVE SMOOTH",
"231 145 OFFCURVE",
"231 209 OFFCURVE",
"229 270 CURVE SMOOTH",
"227 328 OFFCURVE",
"201 347 OFFCURVE",
"137 347 CURVE SMOOTH",
"76 347 LINE"
);
}
);
userData = {
RMXScaler = {
height = 87;
};
};
width = 280;
},
{
layerId = "1DFA7D5B-2E97-4B89-827F-FB43F8066DC1";
paths = (
{
closed = 1;
nodes = (
"219 350 LINE SMOOTH",
"360 350 OFFCURVE",
"418 385 OFFCURVE",
"425 486 CURVE SMOOTH",
"426 500 OFFCURVE",
"426 507 OFFCURVE",
"426 518 CURVE SMOOTH",
"426 656 OFFCURVE",
"348 696 OFFCURVE",
"219 696 CURVE SMOOTH",
"143 696 LINE",
"143 572 LINE",
"219 572 LINE SMOOTH",
"261 572 OFFCURVE",
"284 554 OFFCURVE",
"284 525 CURVE SMOOTH",
"284 507 OFFCURVE",
"284 500 OFFCURVE",
"284 489 CURVE SMOOTH",
"284 444 OFFCURVE",
"261 417 OFFCURVE",
"219 417 CURVE SMOOTH",
"139 417 LINE",
"139 350 LINE"
);
},
{
closed = 1;
nodes = (
"182 0 LINE",
"182 696 LINE",
"40 696 LINE",
"40 0 LINE"
);
},
{
closed = 1;
nodes = (
"338 336 LINE",
"338 367 LINE",
"139 367 LINE",
"139 336 LINE"
);
},
{
closed = 1;
nodes = (
"139 293 LINE",
"218 293 LINE SMOOTH",
"257 293 OFFCURVE",
"284 278 OFFCURVE",
"284 212 CURVE SMOOTH",
"284 191 OFFCURVE",
"284 201 OFFCURVE",
"284 180 CURVE SMOOTH",
"284 145 OFFCURVE",
"261 124 OFFCURVE",
"219 124 CURVE SMOOTH",
"143 124 LINE",
"143 0 LINE",
"219 0 LINE SMOOTH",
"361 0 OFFCURVE",
"426 51 OFFCURVE",
"426 179 CURVE SMOOTH",
"426 191 OFFCURVE",
"427 201 OFFCURVE",
"426 219 CURVE SMOOTH",
"420 322 OFFCURVE",
"362 356 OFFCURVE",
"218 358 CURVE SMOOTH",
"139 359 LINE"
);
}
);
userData = {
RMXScaler = {
height = 87;
weight = -50;
};
};
width = 466;
}
);
leftKerningGroup = h.sc;
rightKerningGroup = b.sc;
userData = {
RMXScaler = {
source = B;
};
};
},
{
glyphname = c.sc;
lastChange = "2019-06-15 17:08:04 +0000";
layers = (
{
anchors = (
{
name = bottom;
position = "{145, 0}";
},
{
name = top;
position = "{145, 696}";
}
);
background = {
paths = (
{
closed = 1;
nodes = (
"211 -10 OFFCURVE",
"252 33 OFFCURVE",
"252 90 CURVE SMOOTH",
"252 240 LINE",
"232 240 LINE",
"232 90 LINE SMOOTH",
"232 44 OFFCURVE",
"200 10 OFFCURVE",
"157 10 CURVE SMOOTH",
"114 10 OFFCURVE",
"82 44 OFFCURVE",
"82 90 CURVE SMOOTH",
"82 700 LINE SMOOTH",
"82 746 OFFCURVE",
"114 790 OFFCURVE",
"157 790 CURVE SMOOTH",
"200 790 OFFCURVE",
"232 746 OFFCURVE",
"232 700 CURVE SMOOTH",
"232 570 LINE",
"252 570 LINE",
"252 700 LINE SMOOTH",
"252 757 OFFCURVE",
"211 810 OFFCURVE",
"157 810 CURVE SMOOTH",
"103 810 OFFCURVE",
"62 757 OFFCURVE",
"62 700 CURVE SMOOTH",
"62 90 LINE SMOOTH",
"62 33 OFFCURVE",
"103 -10 OFFCURVE",
"157 -10 CURVE SMOOTH"
);
}
);
};
layerId = "3B122060-26E0-4730-9241-82784E6CB359";
paths = (
{
closed = 1;
nodes = (
"211 -5 OFFCURVE",
"237 19 OFFCURVE",
"239 77 CURVE SMOOTH",
"241 138 OFFCURVE",
"240 186 OFFCURVE",
"238 246 CURVE",
"218 246 LINE",
"219 190 OFFCURVE",
"220 129 OFFCURVE",
"219 77 CURVE SMOOTH",
"218 30 OFFCURVE",
"200 14 OFFCURVE",
"147 14 CURVE SMOOTH",
"100 14 OFFCURVE",
"84 30 OFFCURVE",
"83 77 CURVE SMOOTH",
"79 276 OFFCURVE",
"79 420 OFFCURVE",
"83 617 CURVE SMOOTH",
"84 665 OFFCURVE",
"100 681 OFFCURVE",
"146 681 CURVE SMOOTH",
"197 681 OFFCURVE",
"214 665 OFFCURVE",
"215 617 CURVE SMOOTH",
"216 566 OFFCURVE",
"216 515 OFFCURVE",
"215 464 CURVE",
"235 464 LINE",
"236 498 OFFCURVE",
"236 586 OFFCURVE",
"235 617 CURVE SMOOTH",
"233 676 OFFCURVE",
"207 700 OFFCURVE",
"146 700 CURVE SMOOTH",
"88 700 OFFCURVE",
"64 676 OFFCURVE",
"63 617 CURVE SMOOTH",
"59 419 OFFCURVE",
"59 285 OFFCURVE",
"63 77 CURVE SMOOTH",
"64 19 OFFCURVE",
"88 -5 OFFCURVE",
"147 -5 CURVE SMOOTH"
);
}
);
userData = {
RMXScaler = {
height = 87;
};
};
width = 280;
},
{
anchors = (
{
name = bottom;
position = "{240, 0}";
},
{
name = top;
position = "{240, 696}";
}
);
layerId = "1DFA7D5B-2E97-4B89-827F-FB43F8066DC1";
paths = (
{
closed = 1;
nodes = (
"384 -9 OFFCURVE",
"445 43 OFFCURVE",
"449 175 CURVE SMOOTH",
"450 197 OFFCURVE",
"449 241 OFFCURVE",
"449 263 CURVE",
"307 263 LINE",
"307 241 OFFCURVE",
"308 197 OFFCURVE",
"307 148 CURVE SMOOTH",
"306 121 OFFCURVE",
"282 106 OFFCURVE",
"244 106 CURVE SMOOTH",
"206 106 OFFCURVE",
"184 121 OFFCURVE",
"183 148 CURVE SMOOTH",
"178 261 OFFCURVE",
"178 420 OFFCURVE",
"183 549 CURVE SMOOTH",
"184 575 OFFCURVE",
"205 591 OFFCURVE",
"244 591 CURVE SMOOTH",
"280 591 OFFCURVE",
"303 575 OFFCURVE",
"303 549 CURVE SMOOTH",
"304 480 OFFCURVE",
"303 462 OFFCURVE",
"302 432 CURVE",
"444 432 LINE",
"445 462 OFFCURVE",
"445 480 OFFCURVE",
"444 526 CURVE SMOOTH",
"440 653 OFFCURVE",
"383 705 OFFCURVE",
"244 705 CURVE SMOOTH",
"102 705 OFFCURVE",
"43 634 OFFCURVE",
"41 523 CURVE SMOOTH",
"39 417 OFFCURVE",
"39 264 OFFCURVE",
"41 175 CURVE SMOOTH",
"44 43 OFFCURVE",
"99 -9 OFFCURVE",
"244 -9 CURVE SMOOTH"
);
}
);
userData = {
RMXScaler = {
height = 87;
weight = -50;
};
};
width = 479;
}
);
leftKerningGroup = o.sc;
rightKerningGroup = o.sc;
userData = {
RMXScaler = {
source = C;
};
};
},
{
glyphname = d.sc;
lastChange = "2019-06-15 17:08:08 +0000";
layers = (
{
anchors = (
{
name = bottom;
position = "{147, 0}";
},
{
name = center;
position = "{72, 348}";
},
{
name = top;
position = "{147, 696}";
}
);
layerId = "3B122060-26E0-4730-9241-82784E6CB359";
paths = (
{
closed = 1;
nodes = (
"187 677 OFFCURVE",
"211 664 OFFCURVE",
"212 614 CURVE SMOOTH",
"214 436 OFFCURVE",
"214 226 OFFCURVE",
"212 83 CURVE SMOOTH",
"211 34 OFFCURVE",
"190 19 OFFCURVE",
"145 19 CURVE SMOOTH",
"70 19 LINE",
"70 0 LINE",
"145 0 LINE SMOOTH",
"206 0 OFFCURVE",
"231 24 OFFCURVE",
"232 83 CURVE SMOOTH",
"235 272 OFFCURVE",
"235 427 OFFCURVE",
"232 613 CURVE SMOOTH",
"231 672 OFFCURVE",
"206 696 OFFCURVE",
"146 696 CURVE SMOOTH",
"72 696 LINE",
"72 677 LINE",
"146 677 LINE SMOOTH"
);
},
{
closed = 1;
nodes = (
"80 0 LINE",
"80 696 LINE",
"60 696 LINE",
"60 0 LINE"
);
}
);
userData = {
RMXScaler = {
height = 87;
};
};
width = 294;
},
{
anchors = (
{
name = bottom;
position = "{242, 0}";
},
{
name = center;
position = "{112, 348}";
},
{
name = top;
position = "{242, 696}";
}
);
layerId = "1DFA7D5B-2E97-4B89-827F-FB43F8066DC1";
paths = (
{
closed = 1;
nodes = (
"278 572 OFFCURVE",
"300 554 OFFCURVE",
"301 525 CURVE SMOOTH",
"304 426 OFFCURVE",
"305 282 OFFCURVE",
"301 172 CURVE SMOOTH",
"300 142 OFFCURVE",
"278 124 OFFCURVE",
"236 124 CURVE SMOOTH",
"147 124 LINE",
"146 0 LINE",
"236 0 LINE SMOOTH",
"379 0 OFFCURVE",
"440 54 OFFCURVE",
"443 189 CURVE SMOOTH",
"445 290 OFFCURVE",
"445 406 OFFCURVE",
"443 508 CURVE SMOOTH",
"440 642 OFFCURVE",
"379 696 OFFCURVE",
"236 696 CURVE SMOOTH",
"150 696 LINE",
"150 572 LINE",
"236 572 LINE SMOOTH"
);
},
{
closed = 1;
nodes = (
"182 0 LINE",
"182 696 LINE",
"40 696 LINE",
"40 0 LINE"
);
}
);
userData = {
RMXScaler = {
height = 87;
weight = -50;
};
};
width = 484;
}
);
leftKerningGroup = h.sc;
rightKerningGroup = o.sc;
userData = {
RMXScaler = {
source = D;
};
};
},
{
glyphname = eth.sc;
lastChange = "2019-06-15 16:19:00 +0000";
layers = (
{
anchors = (
{
name = _center;
position = "{60, 348}";
}
);
components = (
{
name = d.sc;
}
);
layerId = "3B122060-26E0-4730-9241-82784E6CB359";
paths = (
{
closed = 1;
nodes = (
"30 338 LINE",
"110 338 LINE",
"110 358 LINE",
"30 358 LINE"
);
}
);
width = 270;
},
{
anchors = (
{
name = _center;
position = "{131, 348}";
}
);
components = (
{
name = d.sc;
transform = "{1, 0, 0, 1, 18, 0}";
}
);
layerId = "1DFA7D5B-2E97-4B89-827F-FB43F8066DC1";
paths = (
{
closed = 1;
nodes = (
"30 312 LINE",
"250 312 LINE",
"250 384 LINE",
"30 384 LINE"
);
}
);
width = 518;
}
);
leftKerningGroup = h.sc;
rightKerningGroup = o.sc;
},
{
glyphname = e.sc;
lastChange = "2019-06-15 17:08:16 +0000";
layers = (
{
anchors = (
{
name = bottom;
position = "{135, 0}";
},
{
name = ogonek;
position = "{209, 1}";
},
{
name = top;
position = "{135, 696}";
},
{
name = topleft;
position = "{40, 696}";
}
);
layerId = "3B122060-26E0-4730-9241-82784E6CB359";
paths = (
{
closed = 1;
nodes = (
"80 0 LINE",
"80 696 LINE",
"60 696 LINE",
"60 0 LINE"
);
},
{
closed = 1;
nodes = (
"219 0 LINE",
"219 19 LINE",
"75 19 LINE",
"75 0 LINE"
);
},
{
closed = 1;
nodes = (
"209 339 LINE",
"209 358 LINE",
"75 358 LINE",
"75 339 LINE"
);
},
{
closed = 1;
nodes = (
"219 677 LINE",
"219 696 LINE",
"75 696 LINE",
"75 677 LINE"
);
}
);
userData = {
RMXScaler = {
height = 87;
};
};
width = 269;
},
{
anchors = (
{
name = bottom;
position = "{212, 0}";
},
{
name = ogonek;
position = "{375, 9}";
},
{
name = top;
position = "{212, 696}";
},
{
name = topleft;
position = "{20, 696}";
}
);
layerId = "1DFA7D5B-2E97-4B89-827F-FB43F8066DC1";
paths = (
{
closed = 1;
nodes = (
"182 0 LINE",
"182 696 LINE",
"40 696 LINE",
"40 0 LINE"
);
},
{
closed = 1;
nodes = (
"374 0 LINE",
"374 124 LINE",
"115 124 LINE",
"115 0 LINE"
);
},
{
closed = 1;
nodes = (
"364 293 LINE",
"364 417 LINE",
"115 417 LINE",
"115 293 LINE"
);
},
{
closed = 1;
nodes = (
"374 572 LINE",
"374 696 LINE",
"115 696 LINE",
"115 572 LINE"
);
}
);
userData = {
RMXScaler = {
height = 87;
weight = -50;
};
};
width = 404;
}
);
leftKerningGroup = h.sc;
rightKerningGroup = e.sc;
userData = {
RMXScaler = {
source = E;
};
};
},
{
glyphname = schwa.sc;
lastChange = "2019-06-15 17:08:22 +0000";
layers = (
{
layerId = "3B122060-26E0-4730-9241-82784E6CB359";
paths = (
{
closed = 1;
nodes = (
"202 -5 OFFCURVE",
"226 18 OFFCURVE",
"227 77 CURVE SMOOTH",
"231 280 OFFCURVE",
"231 408 OFFCURVE",
"227 617 CURVE SMOOTH",
"226 676 OFFCURVE",
"202 700 OFFCURVE",
"143 700 CURVE SMOOTH",
"79 700 OFFCURVE",
"53 676 OFFCURVE",
"51 617 CURVE SMOOTH",
"49 557 OFFCURVE",
"50 509 OFFCURVE",
"52 449 CURVE",
"72 449 LINE",
"71 501 OFFCURVE",
"70 567 OFFCURVE",
"71 617 CURVE SMOOTH",
"72 664 OFFCURVE",
"90 681 OFFCURVE",
"143 681 CURVE SMOOTH",
"190 681 OFFCURVE",
"206 664 OFFCURVE",
"207 617 CURVE SMOOTH",
"211 418 OFFCURVE",
"211 274 OFFCURVE",
"207 77 CURVE SMOOTH",
"206 29 OFFCURVE",
"190 14 OFFCURVE",
"144 14 CURVE SMOOTH",
"93 14 OFFCURVE",
"76 29 OFFCURVE",
"75 77 CURVE SMOOTH",
"74 148 OFFCURVE",
"74 263 OFFCURVE",
"75 356 CURVE",
"55 356 LINE",
"54 268 OFFCURVE",
"54 150 OFFCURVE",
"55 77 CURVE SMOOTH",
"56 19 OFFCURVE",
"83 -5 OFFCURVE",
"144 -5 CURVE SMOOTH"
);
},
{
closed = 1;
nodes = (
"215 337 LINE",
"215 356 LINE",
"66 356 LINE",
"66 337 LINE"
);
}
);
userData = {
RMXScaler = {
height = 87;
};
};
width = 270;
},
{
layerId = "1DFA7D5B-2E97-4B89-827F-FB43F8066DC1";
paths = (
{
closed = 1;
nodes = (
"385 -9 OFFCURVE",
"447 62 OFFCURVE",
"449 173 CURVE SMOOTH",
"451 265 OFFCURVE",
"451 414 OFFCURVE",
"448 526 CURVE SMOOTH",
"445 649 OFFCURVE",
"395 705 OFFCURVE",
"246 705 CURVE SMOOTH",
"103 705 OFFCURVE",
"45 653 OFFCURVE",
"41 521 CURVE SMOOTH",
"40 482 OFFCURVE",
"40 465 OFFCURVE",
"41 434 CURVE",
"183 434 LINE",
"182 462 OFFCURVE",
"182 511 OFFCURVE",
"183 548 CURVE SMOOTH",
"184 575 OFFCURVE",
"205 591 OFFCURVE",
"246 591 CURVE SMOOTH",
"284 591 OFFCURVE",
"306 575 OFFCURVE",
"307 547 CURVE SMOOTH",
"311 445 OFFCURVE",
"312 257 OFFCURVE",
"307 148 CURVE SMOOTH",
"306 121 OFFCURVE",
"283 106 OFFCURVE",
"246 106 CURVE SMOOTH",
"209 106 OFFCURVE",
"188 121 OFFCURVE",
"187 147 CURVE SMOOTH",
"184 219 OFFCURVE",
"183 289 OFFCURVE",
"186 389 CURVE",
"45 389 LINE",
"44 300 OFFCURVE",
"44 242 OFFCURVE",
"45 174 CURVE SMOOTH",
"47 43 OFFCURVE",
"107 -9 OFFCURVE",
"246 -9 CURVE SMOOTH"
);
},
{
closed = 1;
nodes = (
"375 293 LINE",
"375 389 LINE",
"80 389 LINE",
"80 293 LINE"
);
}
);
userData = {
RMXScaler = {
height = 87;
weight = -50;
};
};
width = 490;
}
);
leftKerningGroup = o.sc;
rightKerningGroup = o.sc;
userData = {
RMXScaler = {
source = Schwa;
};
};
},
{
glyphname = f.sc;
lastChange = "2019-06-15 17:08:27 +0000";
layers = (
{
layerId = "3B122060-26E0-4730-9241-82784E6CB359";
paths = (
{
closed = 1;
nodes = (
"80 0 LINE",
"80 696 LINE",
"60 696 LINE",
"60 0 LINE"
);
},
{
closed = 1;
nodes = (
"209 339 LINE",
"209 358 LINE",
"75 358 LINE",
"75 339 LINE"
);
},
{
closed = 1;
nodes = (
"219 677 LINE",
"219 696 LINE",
"75 696 LINE",
"75 677 LINE"
);
}
);
userData = {
RMXScaler = {
height = 87;
};
};
width = 259;
},
{
layerId = "1DFA7D5B-2E97-4B89-827F-FB43F8066DC1";
paths = (
{
closed = 1;
nodes = (
"182 0 LINE",
"182 696 LINE",
"40 696 LINE",
"40 0 LINE"
);
},
{
closed = 1;
nodes = (
"364 293 LINE",
"364 417 LINE",
"115 417 LINE",
"115 293 LINE"
);
},
{
closed = 1;
nodes = (
"374 572 LINE",
"374 696 LINE",
"115 696 LINE",
"115 572 LINE"
);
}
);
userData = {
RMXScaler = {
height = 87;
weight = -50;
};
};
width = 404;
}
);
leftKerningGroup = h.sc;
rightKerningGroup = f.sc;
userData = {
RMXScaler = {
source = F;
};
};
},
{
glyphname = g.sc;
lastChange = "2019-06-15 17:08:32 +0000";
layers = (
{
anchors = (
{
name = bottom;
position = "{145, 0}";
},
{
name = top;
position = "{145, 696}";
}
);
background = {
paths = (
{
closed = 1;
nodes = (
"219 -10 OFFCURVE",
"260 33 OFFCURVE",
"260 90 CURVE SMOOTH",
"260 298 LINE",
"240 298 LINE",
"240 90 LINE SMOOTH",
"240 44 OFFCURVE",
"208 10 OFFCURVE",
"165 10 CURVE SMOOTH",
"122 10 OFFCURVE",
"90 44 OFFCURVE",
"90 90 CURVE SMOOTH",
"90 710 LINE SMOOTH",
"90 756 OFFCURVE",
"122 790 OFFCURVE",
"165 790 CURVE SMOOTH",
"208 790 OFFCURVE",
"240 756 OFFCURVE",
"240 710 CURVE SMOOTH",
"240 570 LINE",
"260 570 LINE",
"260 710 LINE SMOOTH",
"260 767 OFFCURVE",
"219 810 OFFCURVE",
"165 810 CURVE SMOOTH",
"111 810 OFFCURVE",
"70 767 OFFCURVE",
"70 710 CURVE SMOOTH",
"70 90 LINE SMOOTH",
"70 33 OFFCURVE",
"111 -10 OFFCURVE",
"165 -10 CURVE SMOOTH"
);
},
{
closed = 1;
nodes = (
"152 298 LINE",
"260 298 LINE",
"260 318 LINE",
"152 318 LINE"
);
}
);
};
layerId = "3B122060-26E0-4730-9241-82784E6CB359";
paths = (
{
closed = 1;
nodes = (
"209 -4 OFFCURVE",
"237 18 OFFCURVE",
"238 78 CURVE SMOOTH",
"239 148 OFFCURVE",
"239 233 OFFCURVE",
"238 268 CURVE",
"145 268 LINE",
"145 249 LINE",
"218 249 LINE",
"219 188 OFFCURVE",
"219 129 OFFCURVE",
"218 78 CURVE SMOOTH",
"217 33 OFFCURVE",
"197 15 OFFCURVE",
"149 15 CURVE SMOOTH",
"101 15 OFFCURVE",
"82 33 OFFCURVE",
"82 78 CURVE SMOOTH",
"80 325 OFFCURVE",
"80 445 OFFCURVE",
"82 618 CURVE SMOOTH",
"83 663 OFFCURVE",
"102 681 OFFCURVE",
"148 681 CURVE SMOOTH",
"193 681 OFFCURVE",
"212 663 OFFCURVE",
"214 618 CURVE SMOOTH",
"216 564 OFFCURVE",
"216 517 OFFCURVE",
"214 465 CURVE",
"234 465 LINE",
"236 519 OFFCURVE",
"236 561 OFFCURVE",
"234 618 CURVE SMOOTH",
"232 680 OFFCURVE",
"203 700 OFFCURVE",
"148 700 CURVE SMOOTH",
"91 700 OFFCURVE",
"63 679 OFFCURVE",
"62 618 CURVE SMOOTH",
"59 425 OFFCURVE",
"59 265 OFFCURVE",
"62 78 CURVE SMOOTH",
"63 17 OFFCURVE",
"91 -4 OFFCURVE",
"149 -4 CURVE SMOOTH"
);
}
);
userData = {
RMXScaler = {
height = 87;
};
};
width = 289;
},
{
anchors = (
{
name = bottom;
position = "{242, 0}";
},
{
name = top;
position = "{242, 696}";
}
);
background = {
paths = (
{
closed = 1;
nodes = (
"259 -10 OFFCURVE",
"322 54 OFFCURVE",
"322 140 CURVE SMOOTH",
"322 300 LINE",
"222 300 LINE",
"222 140 LINE SMOOTH",
"222 111 OFFCURVE",
"202 90 OFFCURVE",
"176 90 CURVE SMOOTH",
"151 90 OFFCURVE",
"132 111 OFFCURVE",
"132 140 CURVE SMOOTH",
"132 660 LINE SMOOTH",
"132 689 OFFCURVE",
"151 710 OFFCURVE",
"176 710 CURVE SMOOTH",
"202 710 OFFCURVE",
"222 689 OFFCURVE",
"222 660 CURVE SMOOTH",
"222 500 LINE",
"322 500 LINE",
"322 660 LINE SMOOTH",
"322 746 OFFCURVE",
"259 810 OFFCURVE",
"176 810 CURVE SMOOTH",
"94 810 OFFCURVE",
"32 746 OFFCURVE",
"32 660 CURVE SMOOTH",
"32 140 LINE SMOOTH",
"32 54 OFFCURVE",
"94 -10 OFFCURVE",
"176 -10 CURVE SMOOTH"
);
},
{
closed = 1;
nodes = (
"175 300 LINE",
"322 300 LINE",
"322 400 LINE",
"175 400 LINE"
);
}
);
};
layerId = "1DFA7D5B-2E97-4B89-827F-FB43F8066DC1";
paths = (
{
closed = 1;
nodes = (
"384 -9 OFFCURVE",
"442 43 OFFCURVE",
"449 176 CURVE SMOOTH",
"451 216 OFFCURVE",
"453 296 OFFCURVE",
"450 347 CURVE",
"255 347 LINE",
"255 225 LINE",
"312 225 LINE",
"313 209 OFFCURVE",
"314 172 OFFCURVE",
"311 147 CURVE SMOOTH",
"308 120 OFFCURVE",
"284 106 OFFCURVE",
"246 106 CURVE SMOOTH",
"207 106 OFFCURVE",
"187 121 OFFCURVE",
"185 147 CURVE SMOOTH",
"177 263 OFFCURVE",
"177 436 OFFCURVE",
"185 549 CURVE SMOOTH",
"187 575 OFFCURVE",
"206 590 OFFCURVE",
"246 590 CURVE SMOOTH",
"281 590 OFFCURVE",
"303 575 OFFCURVE",
"305 549 CURVE SMOOTH",
"307 525 OFFCURVE",
"308 456 OFFCURVE",
"305 432 CURVE",
"447 432 LINE",
"448 459 OFFCURVE",
"448 493 OFFCURVE",
"446 525 CURVE SMOOTH",
"437 654 OFFCURVE",
"381 705 OFFCURVE",
"246 705 CURVE SMOOTH",
"103 705 OFFCURVE",
"49 653 OFFCURVE",
"43 514 CURVE SMOOTH",
"39 429 OFFCURVE",
"39 275 OFFCURVE",
"43 175 CURVE SMOOTH",
"48 43 OFFCURVE",
"100 -9 OFFCURVE",
"246 -9 CURVE SMOOTH"
);
}
);
userData = {
RMXScaler = {
height = 87;
weight = -50;
};
};
width = 492;
}
);
leftKerningGroup = o.sc;
rightKerningGroup = o.sc;
userData = {
RMXScaler = {
source = G;
};
};
},
